SplineFontDB: 3.0
FontName: GLYPHICONSHalflings-Regular
FullName: GLYPHICONS Halflings Regular
FamilyName: GLYPHICONS Halflings
Weight: Book
Copyright: Copyright (c) 2014 by Jan Kovarik. All rights reserved.
Version: 1.009;PS 001.009;hotconv 1.0.70;makeotf.lib2.5.58329
ItalicAngle: 0
UnderlinePosition: -100
UnderlineWidth: 50
Ascent: 960
Descent: 240
InvalidEm: 0
sfntRevision: 0x0001024d
LayerCount: 2
Layer: 0 1 "Back" 1
Layer: 1 1 "Fore" 0
XUID: [1021 824 1041647733 18025]
StyleMap: 0x0040
FSType: 4
OS2Version: 3
OS2_WeightWidthSlopeOnly: 0
OS2_UseTypoMetrics: 0
CreationTime: 1414582517
ModificationTime: 1558072662
PfmFamily: 81
TTFWeight: 400
TTFWidth: 5
LineGap: 0
VLineGap: 0
Panose: 0 0 5 0 0 0 0 0 0 0
OS2TypoAscent: 960
OS2TypoAOffset: 0
OS2TypoDescent: -240
OS2TypoDOffset: 0
OS2TypoLinegap: 0
OS2WinAscent: 1300
OS2WinAOffset: 0
OS2WinDescent: 123
OS2WinDOffset: 0
HheadAscent: 1300
HheadAOffset: 0
HheadDescent: -123
HheadDOffset: 0
OS2SubXSize: 780
OS2SubYSize: 720
OS2SubXOff: 0
OS2SubYOff: 90
OS2SupXSize: 780
OS2SupYSize: 720
OS2SupXOff: 0
OS2SupYOff: 420
OS2StrikeYSize: 50
OS2StrikeYPos: 696
OS2Vendor: 'UKWN'
OS2CodePages: 00000001.00000000
OS2UnicodeRanges: 00000000.02000000.00000000.00000000
DEI: 91125
ShortTable: cvt  2
  40
  760
EndShort
ShortTable: maxp 16
  1
  0
  279
  167
  17
  0
  0
  2
  0
  1
  1
  0
  64
  46
  0
  0
EndShort
LangName: 1033 "Copyright +AKkA 2014 by Jan Kovarik. All rights reserved." "" "" "1.009;UKWN;GLYPHICONSHalflings-Regular" "" "Version 1.009;PS 001.009;hotconv 1.0.70;makeotf.lib2.5.58329" "" "" "Jan Kovarik" "Jan Kovarik" "" "www.glyphicons.com" "www.glyphicons.com" "" "" "" "" "" "" "www.glyphicons.com"
GaspTable: 1 65535 2 0
Encoding: UnicodeFull
UnicodeInterp: none
NameList: AGL For New Fonts
DisplaySize: -48
AntiAlias: 1
FitToEm: 0
WinInfo: 57798 19 15
BeginChars: 1114115 280

StartChar: .notdef
Encoding: 1114112 -1 0
Width: 440
Flags: W
LayerCount: 2
Fore
SplineSet
40 0 m 1,0,-1
 40 800 l 1,1,-1
 360 800 l 1,2,-1
 360 0 l 1,3,-1
 40 0 l 1,0,-1
80 40 m 1,4,-1
 320 40 l 1,5,-1
 320 760 l 1,6,-1
 80 760 l 1,7,-1
 80 40 l 1,4,-1
EndSplineSet
EndChar

StartChar: asterisk
Encoding: 42 42 4
Width: 1200
GlyphClass: 2
Flags: W
LayerCount: 2
Fore
SplineSet
600 1100 m 0,0,1
 615 1100 615 1100 634 1098.5 c 128,-1,2
 653 1097 653 1097 664 1095 c 2,3,-1
 675 1094 l 2,4,5
 685 1092 685 1092 692.5 1083.5 c 128,-1,6
 700 1075 700 1075 700 1065 c 2,7,-1
 700 841 l 1,8,-1
 858 999 l 2,9,10
 865 1006 865 1006 876 1007 c 128,-1,11
 887 1008 887 1008 895 1001 c 2,12,-1
 1001 895 l 2,13,14
 1008 887 1008 887 1007 876 c 128,-1,15
 1006 865 1006 865 999 858 c 2,16,-1
 841 700 l 1,17,-1
 1065 700 l 2,18,19
 1075 700 1075 700 1083.5 692.5 c 128,-1,20
 1092 685 1092 685 1094 675 c 0,21,22
 1100 634 1100 634 1100 600 c 0,23,24
 1100 585 1100 585 1098.5 566 c 128,-1,25
 1097 547 1097 547 1095 536 c 2,26,-1
 1094 525 l 2,27,28
 1092 515 1092 515 1083.5 507.5 c 128,-1,29
 1075 500 1075 500 1065 500 c 2,30,-1
 841 500 l 1,31,-1
 999 342 l 2,32,33
 1006 335 1006 335 1007 324 c 128,-1,34
 1008 313 1008 313 1001 305 c 2,35,-1
 895 199 l 2,36,37
 887 192 887 192 876 193 c 128,-1,38
 865 194 865 194 858 201 c 2,39,-1
 700 359 l 1,40,-1
 700 135 l 2,41,42
 700 125 700 125 692.5 116.5 c 128,-1,43
 685 108 685 108 675 106 c 0,44,45
 634 100 634 100 600 100 c 0,46,47
 585 100 585 100 566 101.5 c 128,-1,48
 547 103 547 103 536 105 c 2,49,-1
 525 106 l 2,50,51
 515 108 515 108 507.5 116.5 c 128,-1,52
 500 125 500 125 500 135 c 2,53,-1
 500 359 l 1,54,-1
 342 201 l 2,55,56
 335 194 335 194 324 193 c 128,-1,57
 313 192 313 192 305 199 c 2,58,-1
 199 305 l 2,59,60
 192 313 192 313 193 324 c 128,-1,61
 194 335 194 335 201 342 c 2,62,-1
 359 500 l 1,63,-1
 135 500 l 2,64,65
 125 500 125 500 116.5 507.5 c 128,-1,66
 108 515 108 515 106 525 c 0,67,68
 100 566 100 566 100 600 c 0,69,70
 100 615 100 615 101.5 634 c 128,-1,71
 103 653 103 653 105 664 c 2,72,-1
 106 675 l 2,73,74
 108 685 108 685 116.5 692.5 c 128,-1,75
 125 700 125 700 135 700 c 2,76,-1
 359 700 l 1,77,-1
 201 858 l 2,78,79
 194 865 194 865 193 876 c 128,-1,80
 192 887 192 887 199 895 c 2,81,-1
 305 1001 l 2,82,83
 313 1008 313 1008 324 1007 c 128,-1,84
 335 1006 335 1006 342 999 c 2,85,-1
 500 841 l 1,86,-1
 500 1065 l 2,87,88
 500 1075 500 1075 507.5 1083.5 c 128,-1,89
 515 1092 515 1092 525 1094 c 0,90,91
 566 1100 566 1100 600 1100 c 0,0,1
EndSplineSet
EndChar

StartChar: plus
Encoding: 43 43 5
Width: 1200
GlyphClass: 2
Flags: W
LayerCount: 2
Fore
SplineSet
450 1100 m 2,0,-1
 650 1100 l 2,1,2
 671 1100 671 1100 685.5 1085.5 c 128,-1,3
 700 1071 700 1071 700 1050 c 2,4,-1
 700 700 l 1,5,-1
 1050 700 l 2,6,7
 1071 700 1071 700 1085.5 685.5 c 128,-1,8
 1100 671 1100 671 1100 650 c 2,9,-1
 1100 450 l 2,10,11
 1100 429 1100 429 1085.5 414.5 c 128,-1,12
 1071 400 1071 400 1050 400 c 2,13,-1
 700 400 l 1,14,-1
 700 50 l 2,15,16
 700 29 700 29 685.5 14.5 c 128,-1,17
 671 0 671 0 650 0 c 2,18,-1
 450 0 l 2,19,20
 429 0 429 0 414.5 14.5 c 128,-1,21
 400 29 400 29 400 50 c 2,22,-1
 400 400 l 1,23,-1
 50 400 l 2,24,25
 29 400 29 400 14.5 414.5 c 128,-1,26
 0 429 0 429 0 450 c 2,27,-1
 0 650 l 2,28,29
 0 671 0 671 14.5 685.5 c 128,-1,30
 29 700 29 700 50 700 c 2,31,-1
 400 700 l 1,32,-1
 400 1050 l 2,33,34
 400 1071 400 1071 414.5 1085.5 c 128,-1,35
 429 1100 429 1100 450 1100 c 2,0,-1
EndSplineSet
EndChar

StartChar: yen
Encoding: 165 165 7
Width: 1200
GlyphClass: 2
Flags: W
LayerCount: 2
Fore
SplineSet
825 1100 m 2,0,-1
 1075 1100 l 2,1,2
 1085 1100 1085 1100 1087.5 1095 c 128,-1,3
 1090 1090 1090 1090 1082 1082 c 2,4,-1
 718 718 l 2,5,6
 712 712 712 712 707 700 c 1,7,-1
 975 700 l 2,8,9
 985 700 985 700 988 694 c 128,-1,10
 991 688 991 688 985 680 c 2,11,-1
 865 520 l 2,12,13
 859 512 859 512 847 506 c 128,-1,14
 835 500 835 500 825 500 c 2,15,-1
 700 500 l 1,16,-1
 700 400 l 1,17,-1
 975 400 l 2,18,19
 985 400 985 400 988 394 c 128,-1,20
 991 388 991 388 985 380 c 2,21,-1
 865 220 l 2,22,23
 859 212 859 212 847 206 c 128,-1,24
 835 200 835 200 825 200 c 2,25,-1
 700 200 l 1,26,-1
 700 26 l 2,27,28
 700 15 700 15 692.5 7.5 c 128,-1,29
 685 0 685 0 674 0 c 2,30,-1
 526 0 l 2,31,32
 515 0 515 0 507.5 7.5 c 128,-1,33
 500 15 500 15 500 26 c 2,34,-1
 500 200 l 1,35,-1
 225 200 l 2,36,37
 215 200 215 200 212 206 c 128,-1,38
 209 212 209 212 215 220 c 2,39,-1
 335 380 l 2,40,41
 341 388 341 388 353 394 c 128,-1,42
 365 400 365 400 375 400 c 2,43,-1
 500 400 l 1,44,-1
 500 500 l 1,45,-1
 225 500 l 2,46,47
 215 500 215 500 212 506 c 128,-1,48
 209 512 209 512 215 520 c 2,49,-1
 335 680 l 2,50,51
 341 688 341 688 353 694 c 128,-1,52
 365 700 365 700 375 700 c 2,53,-1
 493 700 l 1,54,55
 488 712 488 712 482 718 c 2,56,-1
 118 1082 l 2,57,58
 110 1090 110 1090 112.5 1095 c 128,-1,59
 115 1100 115 1100 125 1100 c 2,60,-1
 375 1100 l 2,61,62
 400 1100 400 1100 418 1082 c 2,63,-1
 582 918 l 2,64,65
 590 910 590 910 600 910 c 128,-1,66
 610 910 610 910 618 918 c 2,67,-1
 782 1082 l 2,68,69
 800 1100 800 1100 825 1100 c 2,0,-1
EndSplineSet
EndChar

StartChar: Euro
Encoding: 8364 8364 21
Width: 1200
GlyphClass: 2
Flags: W
LayerCount: 2
Fore
SplineSet
744 1198 m 0,0,1
 986 1198 986 1198 1098 1009 c 0,2,3
 1158 905 1158 905 1164 800 c 1,4,-1
 983 800 l 1,5,6
 983 845 983 845 965.5 882.5 c 128,-1,7
 948 920 948 920 922 944 c 128,-1,8
 896 968 896 968 864 984.5 c 128,-1,9
 832 1001 832 1001 803.5 1008.5 c 128,-1,10
 775 1016 775 1016 752 1016 c 0,11,12
 733 1016 733 1016 711.5 1010.5 c 128,-1,13
 690 1005 690 1005 662 990 c 128,-1,14
 634 975 634 975 609 952 c 128,-1,15
 584 929 584 929 560 889.5 c 128,-1,16
 536 850 536 850 521 800 c 1,17,-1
 900 800 l 1,18,-1
 800 700 l 1,19,-1
 500 700 l 1,20,21
 494 650 494 650 494 600 c 1,22,-1
 900 600 l 1,23,-1
 800 500 l 1,24,-1
 500 500 l 1,25,26
 509 426 509 426 533 368 c 128,-1,27
 557 310 557 310 585.5 277 c 128,-1,28
 614 244 614 244 647 222.5 c 128,-1,29
 680 201 680 201 706 193.5 c 128,-1,30
 732 186 732 186 753 186 c 0,31,32
 775 186 775 186 803.5 193.5 c 128,-1,33
 832 201 832 201 864 218 c 128,-1,34
 896 235 896 235 922 259 c 128,-1,35
 948 283 948 283 965.5 320 c 128,-1,36
 983 357 983 357 983 400 c 1,37,-1
 1157 400 l 1,38,39
 1127 229 1127 229 1029 122 c 0,40,41
 922 5 922 5 755 5 c 0,42,43
 549 5 549 5 431 163 c 0,44,45
 395 211 395 211 362 296 c 128,-1,46
 329 381 329 381 317 500 c 1,47,-1
 100 500 l 1,48,-1
 200 600 l 1,49,-1
 312 600 l 1,50,51
 313 647 313 647 318 700 c 1,52,-1
 100 700 l 1,53,-1
 200 800 l 1,54,-1
 334 800 l 1,55,56
 354 887 354 887 385 953.5 c 128,-1,57
 416 1020 416 1020 447 1057 c 0,58,59
 564 1198 564 1198 744 1198 c 0,0,1
EndSplineSet
EndChar

StartChar: uni20BD
Encoding: 8381 8381 22
Width: 1200
GlyphClass: 2
Flags: W
LayerCount: 2
Fore
SplineSet
428 1200 m 2,0,-1
 778 1200 l 2,1,2
 845 1200 845 1200 898 1187 c 128,-1,3
 951 1174 951 1174 984 1156 c 128,-1,4
 1017 1138 1017 1138 1041 1106.5 c 128,-1,5
 1065 1075 1065 1075 1076 1050 c 128,-1,6
 1087 1025 1087 1025 1093 985.5 c 128,-1,7
 1099 946 1099 946 1099.5 925 c 128,-1,8
 1100 904 1100 904 1100 868 c 0,9,10
 1100 857 1100 857 1100 851.5 c 128,-1,11
 1100 846 1100 846 1100 835 c 0,12,13
 1100 799 1100 799 1099.5 778 c 128,-1,14
 1099 757 1099 757 1093 717 c 128,-1,15
 1087 677 1087 677 1076 652 c 128,-1,16
 1065 627 1065 627 1041 595 c 128,-1,17
 1017 563 1017 563 984 544.5 c 128,-1,18
 951 526 951 526 898 513 c 128,-1,19
 845 500 845 500 778 500 c 2,20,-1
 600 500 l 1,21,-1
 598 400 l 1,22,-1
 886 400 l 2,23,24
 896 400 896 400 899 394 c 128,-1,25
 902 388 902 388 896 380 c 2,26,-1
 776 220 l 2,27,28
 770 212 770 212 758 206 c 128,-1,29
 746 200 746 200 736 200 c 2,30,-1
 598 200 l 1,31,-1
 598 25 l 2,32,33
 598 14 598 14 592.5 7 c 128,-1,34
 587 0 587 0 577 0 c 2,35,-1
 428 0 l 2,36,37
 418 0 418 0 410.5 7.5 c 128,-1,38
 403 15 403 15 403 25 c 2,39,-1
 403 200 l 1,40,-1
 136 200 l 2,41,42
 126 200 126 200 123 206 c 128,-1,43
 120 212 120 212 126 220 c 2,44,-1
 246 380 l 2,45,46
 252 388 252 388 264 394 c 128,-1,47
 276 400 276 400 286 400 c 2,48,-1
 403 400 l 1,49,-1
 403 500 l 1,50,-1
 136 500 l 2,51,52
 126 500 126 500 123 506 c 128,-1,53
 120 512 120 512 126 520 c 2,54,-1
 246 680 l 2,55,56
 252 688 252 688 264 694 c 128,-1,57
 276 700 276 700 286 700 c 2,58,-1
 403 700 l 1,59,-1
 403 1175 l 2,60,61
 403 1185 403 1185 410.5 1192.5 c 128,-1,62
 418 1200 418 1200 428 1200 c 2,0,-1
600 1000 m 1,63,-1
 600 700 l 1,64,-1
 803 700 l 2,65,66
 867 700 867 700 889.5 733 c 128,-1,67
 912 766 912 766 912 852 c 0,68,69
 912 936 912 936 889.5 968 c 128,-1,70
 867 1000 867 1000 803 1000 c 2,71,-1
 600 1000 l 1,63,-1
EndSplineSet
EndChar

StartChar: minus
Encoding: 8722 8722 23
Width: 1200
GlyphClass: 2
Flags: W
LayerCount: 2
Fore
SplineSet
250 700 m 2,0,-1
 1050 700 l 2,1,2
 1071 700 1071 700 1085.5 685.5 c 128,-1,3
 1100 671 1100 671 1100 650 c 2,4,-1
 1100 450 l 2,5,6
 1100 429 1100 429 1085.5 414.5 c 128,-1,7
 1071 400 1071 400 1050 400 c 2,8,-1
 250 400 l 2,9,10
 229 400 229 400 214.5 414.5 c 128,-1,11
 200 429 200 429 200 450 c 2,12,-1
 200 650 l 2,13,14
 200 671 200 671 214.5 685.5 c 128,-1,15
 229 700 229 700 250 700 c 2,0,-1
EndSplineSet
EndChar

StartChar: uni231B
Encoding: 8987 8987 24
Width: 1200
GlyphClass: 2
Flags: W
LayerCount: 2
Fore
SplineSet
1000 1200 m 1,0,-1
 1000 1050 l 2,1,2
 1000 1029 1000 1029 985.5 1014.5 c 128,-1,3
 971 1000 971 1000 950 1000 c 2,4,-1
 900 1000 l 1,5,-1
 900 900 l 2,6,7
 900 809 900 809 850.5 734.5 c 128,-1,8
 801 660 801 660 720 625 c 1,9,10
 801 590 801 590 850.5 515.5 c 128,-1,11
 900 441 900 441 900 350 c 2,12,-1
 900 200 l 1,13,-1
 950 200 l 2,14,15
 971 200 971 200 985.5 185.5 c 128,-1,16
 1000 171 1000 171 1000 150 c 2,17,-1
 1000 0 l 1,18,-1
 200 0 l 1,19,-1
 200 150 l 2,20,21
 200 171 200 171 214.5 185.5 c 128,-1,22
 229 200 229 200 250 200 c 2,23,-1
 300 200 l 1,24,-1
 300 350 l 2,25,26
 300 441 300 441 349.5 515.5 c 128,-1,27
 399 590 399 590 480 625 c 1,28,29
 399 660 399 660 349.5 734.5 c 128,-1,30
 300 809 300 809 300 900 c 2,31,-1
 300 1000 l 1,32,-1
 250 1000 l 2,33,34
 229 1000 229 1000 214.5 1014.5 c 128,-1,35
 200 1029 200 1029 200 1050 c 2,36,-1
 200 1200 l 1,37,-1
 1000 1200 l 1,0,-1
400 1000 m 1,38,-1
 400 900 l 2,39,40
 400 840 400 840 432.5 790.5 c 128,-1,41
 465 741 465 741 520 717 c 0,42,43
 548 705 548 705 564 680 c 128,-1,44
 580 655 580 655 580 625 c 128,-1,45
 580 595 580 595 564 570 c 128,-1,46
 548 545 548 545 520 533 c 0,47,48
 465 509 465 509 432.5 459.5 c 128,-1,49
 400 410 400 410 400 350 c 2,50,-1
 400 200 l 1,51,-1
 800 200 l 1,52,-1
 800 350 l 2,53,54
 800 410 800 410 767.5 459.5 c 128,-1,55
 735 509 735 509 680 533 c 0,56,57
 652 545 652 545 636 570 c 128,-1,58
 620 595 620 595 620 625 c 128,-1,59
 620 655 620 655 636 680 c 128,-1,60
 652 705 652 705 680 717 c 0,61,62
 735 741 735 741 767.5 790.5 c 128,-1,63
 800 840 800 840 800 900 c 2,64,-1
 800 1000 l 1,65,-1
 400 1000 l 1,38,-1
EndSplineSet
EndChar

StartChar: uni25FC
Encoding: 9724 9724 25
Width: 500
GlyphClass: 2
Flags: W
LayerCount: 2
Fore
SplineSet
0 0 m 1024,0,-1
EndSplineSet
EndChar

StartChar: uni2601
Encoding: 9729 9729 26
Width: 1200
GlyphClass: 2
Flags: W
LayerCount: 2
Fore
SplineSet
503 1089 m 0,0,1
 613 1089 613 1089 703.5 1029.5 c 128,-1,2
 794 970 794 970 838 873 c 1,3,4
 882 887 882 887 928 887 c 0,5,6
 1048 887 1048 887 1133 800.5 c 128,-1,7
 1218 714 1218 714 1218 594 c 0,8,9
 1218 473 1218 473 1133 386.5 c 128,-1,10
 1048 300 1048 300 928 300 c 2,11,-1
 178 300 l 2,12,13
 99 300 99 300 42.5 357 c 128,-1,14
 -14 414 -14 414 -14 494 c 0,15,16
 -14 563 -14 563 28.5 616.5 c 128,-1,17
 71 670 71 670 137 684 c 1,18,19
 135 696 135 696 135 721 c 0,20,21
 135 874 135 874 243 981.5 c 128,-1,22
 351 1089 351 1089 503 1089 c 0,0,1
EndSplineSet
EndChar

StartChar: uni26FA
Encoding: 9978 9978 27
Width: 1200
GlyphClass: 2
Flags: W
LayerCount: 2
Fore
SplineSet
774 1193.5 m 128,-1,1
 790 1184 790 1184 794.5 1166.5 c 128,-1,2
 799 1149 799 1149 789 1133 c 2,3,-1
 653 946 l 1,4,-1
 1120 200 l 1,5,-1
 1150 200 l 2,6,7
 1170 200 1170 200 1185 181.5 c 128,-1,8
 1200 163 1200 163 1200 142 c 2,9,-1
 1200 100 l 1,10,-1
 0 100 l 1,11,-1
 0 142 l 2,12,13
 0 163 0 163 15 181.5 c 128,-1,14
 30 200 30 200 50 200 c 2,15,-1
 80 200 l 1,16,-1
 548 946 l 1,17,-1
 413 1129 l 2,18,19
 403 1145 403 1145 407.5 1163 c 128,-1,20
 412 1181 412 1181 428 1191 c 128,-1,21
 444 1201 444 1201 462 1196.5 c 128,-1,22
 480 1192 480 1192 490 1176 c 2,23,-1
 601 1028 l 1,24,-1
 713 1178 l 2,25,26
 722 1194 722 1194 740 1198.5 c 128,-1,0
 758 1203 758 1203 774 1193.5 c 128,-1,1
600 200 m 1,27,-1
 977 200 l 1,28,-1
 795 312 l 1,29,-1
 600 846 l 1,30,-1
 600 200 l 1,27,-1
EndSplineSet
EndChar

StartChar: uni2709
Encoding: 9993 9993 28
Width: 1200
GlyphClass: 2
Flags: W
LayerCount: 2
Fore
SplineSet
25 1100 m 2,0,-1
 1175 1100 l 2,1,2
 1185 1100 1185 1100 1187.5 1095 c 128,-1,3
 1190 1090 1190 1090 1182 1082 c 2,4,-1
 618 515 l 2,5,6
 610 507 610 507 600 507 c 128,-1,7
 590 507 590 507 582 515 c 2,8,-1
 18 1082 l 2,9,10
 10 1090 10 1090 12.5 1095 c 128,-1,11
 15 1100 15 1100 25 1100 c 2,0,-1
18 882 m 2,12,-1
 282 618 l 2,13,14
 290 610 290 610 290 600 c 128,-1,15
 290 590 290 590 282 582 c 2,16,-1
 18 318 l 2,17,18
 10 310 10 310 5 312.5 c 128,-1,19
 0 315 0 315 0 325 c 2,20,-1
 0 875 l 2,21,22
 0 885 0 885 5 887.5 c 128,-1,23
 10 890 10 890 18 882 c 2,12,-1
918 618 m 2,24,-1
 1182 882 l 2,25,26
 1190 890 1190 890 1195 887.5 c 128,-1,27
 1200 885 1200 885 1200 875 c 2,28,-1
 1200 325 l 2,29,30
 1200 315 1200 315 1195 312.5 c 128,-1,31
 1190 310 1190 310 1182 318 c 2,32,-1
 918 582 l 2,33,34
 910 590 910 590 910 600 c 128,-1,35
 910 610 910 610 918 618 c 2,24,-1
818 482 m 2,36,-1
 1182 118 l 2,37,38
 1190 110 1190 110 1187.5 105 c 128,-1,39
 1185 100 1185 100 1175 100 c 2,40,-1
 25 100 l 2,41,42
 15 100 15 100 12.5 105 c 128,-1,43
 10 110 10 110 18 118 c 2,44,-1
 382 482 l 2,45,46
 390 490 390 490 400 490 c 128,-1,47
 410 490 410 490 418 482 c 2,48,-1
 582 318 l 2,49,50
 590 310 590 310 600 310 c 128,-1,51
 610 310 610 310 618 318 c 2,52,-1
 782 482 l 2,53,54
 790 490 790 490 800 490 c 128,-1,55
 810 490 810 490 818 482 c 2,36,-1
EndSplineSet
EndChar

StartChar: uni270F
Encoding: 9999 9999 29
Width: 1200
GlyphClass: 2
Flags: W
LayerCount: 2
Fore
SplineSet
1011 1210 m 128,-1,1
 1030 1210 1030 1210 1044 1197 c 2,2,-1
 1197 1044 l 2,3,4
 1210 1030 1210 1030 1210 1011 c 128,-1,5
 1210 992 1210 992 1197 978 c 2,6,-1
 1098 886 l 1,7,-1
 884 1100 l 1,8,-1
 979 1196 l 2,9,0
 992 1210 992 1210 1011 1210 c 128,-1,1
1013 800 m 1,10,-1
 398 186 l 1,11,-1
 184 400 l 1,12,-1
 798 1014 l 1,13,-1
 1013 800 l 1,10,-1
317 96 m 1,14,-1
 -16 -16 l 1,15,-1
 94 319 l 1,16,-1
 317 96 l 1,14,-1
EndSplineSet
EndChar

StartChar: uniE001
Encoding: 57345 57345 30
Width: 1200
GlyphClass: 2
Flags: W
LayerCount: 2
Fore
SplineSet
700 650 m 1,0,-1
 700 100 l 1,1,-1
 950 100 l 2,2,3
 971 100 971 100 985.5 85.5 c 128,-1,4
 1000 71 1000 71 1000 50 c 2,5,-1
 1000 0 l 1,6,-1
 200 0 l 1,7,-1
 200 50 l 2,8,9
 200 71 200 71 214.5 85.5 c 128,-1,10
 229 100 229 100 250 100 c 2,11,-1
 500 100 l 1,12,-1
 500 650 l 1,13,-1
 0 1200 l 1,14,-1
 1200 1200 l 1,15,-1
 700 650 l 1,0,-1
EndSplineSet
EndChar

StartChar: uniE002
Encoding: 57346 57346 31
Width: 1200
GlyphClass: 2
Flags: W
LayerCount: 2
Fore
SplineSet
368 1017 m 2,0,-1
 1013 1180 l 1,1,2
 1052 1195 1052 1195 1076 1180 c 128,-1,3
 1100 1165 1100 1165 1100 1131 c 2,4,-1
 1100 300 l 2,5,6
 1100 245 1100 245 1058.5 204.5 c 128,-1,7
 1017 164 1017 164 947 141 c 0,8,9
 868 116 868 116 800 136.5 c 128,-1,10
 732 157 732 157 714 211.5 c 128,-1,11
 696 266 696 266 739.5 323 c 128,-1,12
 783 380 783 380 862 405 c 0,13,14
 934 429 934 429 1000 413 c 1,15,-1
 1000 934 l 1,16,-1
 400 779 l 1,17,-1
 400 173 l 2,18,19
 400 131 400 131 356 83 c 128,-1,20
 312 35 312 35 247 14 c 0,21,22
 168 -12 168 -12 100 8.5 c 128,-1,23
 32 29 32 29 14 84 c 128,-1,24
 -4 139 -4 139 39.5 195.5 c 128,-1,25
 83 252 83 252 162 278 c 0,26,27
 234 302 234 302 300 285 c 1,28,-1
 300 924 l 2,29,30
 300 962 300 962 314.5 983 c 128,-1,31
 329 1004 329 1004 368 1017 c 2,0,-1
EndSplineSet
EndChar

StartChar: uniE003
Encoding: 57347 57347 32
Width: 1200
GlyphClass: 2
Flags: W
LayerCount: 2
Fore
SplineSet
500 1191 m 128,-1,1
 600 1191 600 1191 691 1152 c 128,-1,2
 782 1113 782 1113 847.5 1047.5 c 128,-1,3
 913 982 913 982 952 891 c 128,-1,4
 991 800 991 800 991 700 c 1,5,-1
 990 698 l 1,6,-1
 991 693 l 1,7,8
 991 552 991 552 913 431 c 1,9,-1
 1188 157 l 2,10,11
 1211 131 1211 131 1210.5 112.5 c 128,-1,12
 1210 94 1210 94 1188 70 c 2,13,-1
 1129 12 l 2,14,15
 1103 -8 1103 -8 1082.5 -8 c 128,-1,16
 1062 -8 1062 -8 1043 12 c 2,17,-1
 768 286 l 1,18,19
 649 209 649 209 507 209 c 1,20,-1
 502 210 l 1,21,-1
 500 209 l 1,22,23
 400 209 400 209 309 248 c 128,-1,24
 218 287 218 287 152.5 352.5 c 128,-1,25
 87 418 87 418 48 509 c 128,-1,26
 9 600 9 600 9 700 c 128,-1,27
 9 800 9 800 48 891 c 128,-1,28
 87 982 87 982 152.5 1047.5 c 128,-1,29
 218 1113 218 1113 309 1152 c 128,-1,0
 400 1191 400 1191 500 1191 c 128,-1,1
500 1022 m 128,-1,31
 412 1022 412 1022 338 979 c 128,-1,32
 264 936 264 936 221 862 c 128,-1,33
 178 788 178 788 178 700 c 128,-1,34
 178 612 178 612 221 538 c 128,-1,35
 264 464 264 464 338 421 c 128,-1,36
 412 378 412 378 500 378 c 128,-1,37
 588 378 588 378 662 421 c 128,-1,38
 736 464 736 464 779 538 c 128,-1,39
 822 612 822 612 822 700 c 128,-1,40
 822 788 822 788 779 862 c 128,-1,41
 736 936 736 936 662 979 c 128,-1,30
 588 1022 588 1022 500 1022 c 128,-1,31
EndSplineSet
EndChar

StartChar: uniE005
Encoding: 57349 57349 33
Width: 1200
GlyphClass: 2
Flags: W
LayerCount: 2
Fore
SplineSet
649 949 m 1,0,1
 697 1017 697 1017 758.5 1053 c 128,-1,2
 820 1089 820 1089 880 1091.5 c 128,-1,3
 940 1094 940 1094 998.5 1071.5 c 128,-1,4
 1057 1049 1057 1049 1101 1007.5 c 128,-1,5
 1145 966 1145 966 1172 907 c 128,-1,6
 1199 848 1199 848 1199 784 c 0,7,8
 1199 727 1199 727 1165.5 666.5 c 128,-1,9
 1132 606 1132 606 1071.5 542 c 128,-1,10
 1011 478 1011 478 945 414.5 c 128,-1,11
 879 351 879 351 795 262 c 128,-1,12
 711 173 711 173 649 88 c 1,13,14
 587 173 587 173 503.5 262 c 128,-1,15
 420 351 420 351 353.5 414.5 c 128,-1,16
 287 478 287 478 227 542 c 128,-1,17
 167 606 167 606 133.5 666.5 c 128,-1,18
 100 727 100 727 100 784 c 0,19,20
 100 848 100 848 128 907 c 128,-1,21
 156 966 156 966 201 1007.5 c 128,-1,22
 246 1049 246 1049 305 1071.5 c 128,-1,23
 364 1094 364 1094 424 1091.5 c 128,-1,24
 484 1089 484 1089 544.5 1053 c 128,-1,25
 605 1017 605 1017 649 949 c 1,0,1
EndSplineSet
EndChar

StartChar: uniE006
Encoding: 57350 57350 34
Width: 1200
GlyphClass: 2
Flags: W
LayerCount: 2
Fore
SplineSet
407 800 m 1,0,-1
 538 1153 l 2,1,2
 545 1172 545 1172 555.5 1172 c 128,-1,3
 566 1172 566 1172 573 1153 c 2,4,-1
 702 800 l 1,5,-1
 1123 800 l 2,6,7
 1144 800 1144 800 1147 791.5 c 128,-1,8
 1150 783 1150 783 1133 771 c 2,9,-1
 791 522 l 1,10,-1
 921 121 l 2,11,12
 928 101 928 101 920.5 95.5 c 128,-1,13
 913 90 913 90 896 102 c 2,14,-1
 553 348 l 1,15,-1
 211 101 l 2,16,17
 194 89 194 89 186.5 94.5 c 128,-1,18
 179 100 179 100 186 120 c 2,19,-1
 316 520 l 1,20,-1
 -31 771 l 2,21,22
 -48 783 -48 783 -45 791.5 c 128,-1,23
 -42 800 -42 800 -22 800 c 2,24,-1
 407 800 l 1,0,-1
EndSplineSet
EndChar

StartChar: uniE007
Encoding: 57351 57351 35
Width: 1200
GlyphClass: 2
Flags: W
LayerCount: 2
Fore
SplineSet
407 800 m 1,0,-1
 538 1153 l 2,1,2
 545 1172 545 1172 555.5 1172 c 128,-1,3
 566 1172 566 1172 573 1153 c 2,4,-1
 702 800 l 1,5,-1
 1123 800 l 2,6,7
 1144 800 1144 800 1147 791.5 c 128,-1,8
 1150 783 1150 783 1133 771 c 2,9,-1
 791 522 l 1,10,-1
 921 121 l 2,11,12
 928 101 928 101 920.5 95.5 c 128,-1,13
 913 90 913 90 896 102 c 2,14,-1
 553 348 l 1,15,-1
 211 101 l 2,16,17
 194 89 194 89 186.5 94.5 c 128,-1,18
 179 100 179 100 186 120 c 2,19,-1
 316 520 l 1,20,-1
 -31 771 l 2,21,22
 -48 783 -48 783 -45 791.5 c 128,-1,23
 -42 800 -42 800 -22 800 c 2,24,-1
 407 800 l 1,0,-1
477 700 m 1,25,-1
 237 700 l 1,26,-1
 434 558 l 1,27,-1
 360 332 l 1,28,-1
 553 471 l 1,29,-1
 748 331 l 1,30,-1
 674 560 l 1,31,-1
 866 700 l 1,32,-1
 632 700 l 1,33,-1
 554 911 l 1,34,-1
 477 700 l 1,25,-1
EndSplineSet
EndChar

StartChar: uniE008
Encoding: 57352 57352 36
Width: 1200
GlyphClass: 2
Flags: W
LayerCount: 2
Fore
SplineSet
600 1200 m 256,0,1
 724 1200 724 1200 812 1112 c 128,-1,2
 900 1024 900 1024 900 900 c 2,3,-1
 900 650 l 2,4,5
 900 604 900 604 869 552 c 128,-1,6
 838 500 838 500 800 500 c 1,7,-1
 800 425 l 2,8,9
 800 415 800 415 806 403.5 c 128,-1,10
 812 392 812 392 821 386 c 2,11,-1
 1179 156 l 2,12,13
 1188 151 1188 151 1194 139.5 c 128,-1,14
 1200 128 1200 128 1200 118 c 2,15,-1
 1200 25 l 2,16,17
 1200 15 1200 15 1192.5 7.5 c 128,-1,18
 1185 0 1185 0 1175 0 c 2,19,-1
 25 0 l 2,20,21
 15 0 15 0 7.5 7.5 c 128,-1,22
 0 15 0 15 0 25 c 2,23,-1
 0 118 l 2,24,25
 0 128 0 128 6 139.5 c 128,-1,26
 12 151 12 151 21 156 c 2,27,-1
 379 386 l 2,28,29
 388 392 388 392 394 403.5 c 128,-1,30
 400 415 400 415 400 425 c 2,31,-1
 400 500 l 1,32,33
 362 500 362 500 331 552 c 128,-1,34
 300 604 300 604 300 650 c 2,35,-1
 300 900 l 2,36,37
 300 1024 300 1024 388 1112 c 128,-1,38
 476 1200 476 1200 600 1200 c 256,0,1
EndSplineSet
EndChar

StartChar: uniE009
Encoding: 57353 57353 37
Width: 1200
GlyphClass: 2
Flags: W
LayerCount: 2
Fore
SplineSet
25 1100 m 2,0,-1
 1175 1100 l 2,1,2
 1185 1100 1185 1100 1192.5 1092.5 c 128,-1,3
 1200 1085 1200 1085 1200 1075 c 2,4,-1
 1200 25 l 2,5,6
 1200 15 1200 15 1192.5 7.5 c 128,-1,7
 1185 0 1185 0 1175 0 c 2,8,-1
 25 0 l 2,9,10
 15 0 15 0 7.5 7.5 c 128,-1,11
 0 15 0 15 0 25 c 2,12,-1
 0 1075 l 2,13,14
 0 1085 0 1085 7.5 1092.5 c 128,-1,15
 15 1100 15 1100 25 1100 c 2,0,-1
100 1000 m 1,16,-1
 100 900 l 1,17,-1
 200 900 l 1,18,-1
 200 1000 l 1,19,-1
 100 1000 l 1,16,-1
875 1000 m 2,20,-1
 325 1000 l 2,21,22
 315 1000 315 1000 307.5 992.5 c 128,-1,23
 300 985 300 985 300 975 c 2,24,-1
 300 625 l 2,25,26
 300 615 300 615 307.5 607.5 c 128,-1,27
 315 600 315 600 325 600 c 2,28,-1
 875 600 l 2,29,30
 885 600 885 600 892.5 607.5 c 128,-1,31
 900 615 900 615 900 625 c 2,32,-1
 900 975 l 2,33,34
 900 985 900 985 892.5 992.5 c 128,-1,35
 885 1000 885 1000 875 1000 c 2,20,-1
1000 1000 m 1,36,-1
 1000 900 l 1,37,-1
 1100 900 l 1,38,-1
 1100 1000 l 1,39,-1
 1000 1000 l 1,36,-1
100 800 m 1,40,-1
 100 700 l 1,41,-1
 200 700 l 1,42,-1
 200 800 l 1,43,-1
 100 800 l 1,40,-1
1000 800 m 1,44,-1
 1000 700 l 1,45,-1
 1100 700 l 1,46,-1
 1100 800 l 1,47,-1
 1000 800 l 1,44,-1
100 600 m 1,48,-1
 100 500 l 1,49,-1
 200 500 l 1,50,-1
 200 600 l 1,51,-1
 100 600 l 1,48,-1
1000 600 m 1,52,-1
 1000 500 l 1,53,-1
 1100 500 l 1,54,-1
 1100 600 l 1,55,-1
 1000 600 l 1,52,-1
875 500 m 2,56,-1
 325 500 l 2,57,58
 315 500 315 500 307.5 492.5 c 128,-1,59
 300 485 300 485 300 475 c 2,60,-1
 300 125 l 2,61,62
 300 115 300 115 307.5 107.5 c 128,-1,63
 315 100 315 100 325 100 c 2,64,-1
 875 100 l 2,65,66
 885 100 885 100 892.5 107.5 c 128,-1,67
 900 115 900 115 900 125 c 2,68,-1
 900 475 l 2,69,70
 900 485 900 485 892.5 492.5 c 128,-1,71
 885 500 885 500 875 500 c 2,56,-1
100 400 m 1,72,-1
 100 300 l 1,73,-1
 200 300 l 1,74,-1
 200 400 l 1,75,-1
 100 400 l 1,72,-1
1000 400 m 1,76,-1
 1000 300 l 1,77,-1
 1100 300 l 1,78,-1
 1100 400 l 1,79,-1
 1000 400 l 1,76,-1
100 200 m 1,80,-1
 100 100 l 1,81,-1
 200 100 l 1,82,-1
 200 200 l 1,83,-1
 100 200 l 1,80,-1
1000 200 m 1,84,-1
 1000 100 l 1,85,-1
 1100 100 l 1,86,-1
 1100 200 l 1,87,-1
 1000 200 l 1,84,-1
EndSplineSet
EndChar

StartChar: uniE010
Encoding: 57360 57360 38
Width: 1200
GlyphClass: 2
Flags: W
LayerCount: 2
Fore
SplineSet
50 1100 m 2,0,-1
 450 1100 l 2,1,2
 471 1100 471 1100 485.5 1085.5 c 128,-1,3
 500 1071 500 1071 500 1050 c 2,4,-1
 500 650 l 2,5,6
 500 629 500 629 485.5 614.5 c 128,-1,7
 471 600 471 600 450 600 c 2,8,-1
 50 600 l 2,9,10
 29 600 29 600 14.5 614.5 c 128,-1,11
 0 629 0 629 0 650 c 2,12,-1
 0 1050 l 2,13,14
 0 1071 0 1071 14.5 1085.5 c 128,-1,15
 29 1100 29 1100 50 1100 c 2,0,-1
650 1100 m 2,16,-1
 1050 1100 l 2,17,18
 1071 1100 1071 1100 1085.5 1085.5 c 128,-1,19
 1100 1071 1100 1071 1100 1050 c 2,20,-1
 1100 650 l 2,21,22
 1100 629 1100 629 1085.5 614.5 c 128,-1,23
 1071 600 1071 600 1050 600 c 2,24,-1
 650 600 l 2,25,26
 629 600 629 600 614.5 614.5 c 128,-1,27
 600 629 600 629 600 650 c 2,28,-1
 600 1050 l 2,29,30
 600 1071 600 1071 614.5 1085.5 c 128,-1,31
 629 1100 629 1100 650 1100 c 2,16,-1
50 500 m 2,32,-1
 450 500 l 2,33,34
 471 500 471 500 485.5 485.5 c 128,-1,35
 500 471 500 471 500 450 c 2,36,-1
 500 50 l 2,37,38
 500 29 500 29 485.5 14.5 c 128,-1,39
 471 0 471 0 450 0 c 2,40,-1
 50 0 l 2,41,42
 29 0 29 0 14.5 14.5 c 128,-1,43
 0 29 0 29 0 50 c 2,44,-1
 0 450 l 2,45,46
 0 471 0 471 14.5 485.5 c 128,-1,47
 29 500 29 500 50 500 c 2,32,-1
650 500 m 2,48,-1
 1050 500 l 2,49,50
 1071 500 1071 500 1085.5 485.5 c 128,-1,51
 1100 471 1100 471 1100 450 c 2,52,-1
 1100 50 l 2,53,54
 1100 29 1100 29 1085.5 14.5 c 128,-1,55
 1071 0 1071 0 1050 0 c 2,56,-1
 650 0 l 2,57,58
 629 0 629 0 614.5 14.5 c 128,-1,59
 600 29 600 29 600 50 c 2,60,-1
 600 450 l 2,61,62
 600 471 600 471 614.5 485.5 c 128,-1,63
 629 500 629 500 650 500 c 2,48,-1
EndSplineSet
EndChar

StartChar: uniE011
Encoding: 57361 57361 39
Width: 1200
GlyphClass: 2
Flags: W
LayerCount: 2
Fore
SplineSet
50 1100 m 2,0,-1
 250 1100 l 2,1,2
 271 1100 271 1100 285.5 1085.5 c 128,-1,3
 300 1071 300 1071 300 1050 c 2,4,-1
 300 850 l 2,5,6
 300 829 300 829 285.5 814.5 c 128,-1,7
 271 800 271 800 250 800 c 2,8,-1
 50 800 l 2,9,10
 29 800 29 800 14.5 814.5 c 128,-1,11
 0 829 0 829 0 850 c 2,12,-1
 0 1050 l 2,13,14
 0 1071 0 1071 14.5 1085.5 c 128,-1,15
 29 1100 29 1100 50 1100 c 2,0,-1
450 1100 m 2,16,-1
 650 1100 l 2,17,18
 671 1100 671 1100 685.5 1085.5 c 128,-1,19
 700 1071 700 1071 700 1050 c 2,20,-1
 700 850 l 2,21,22
 700 829 700 829 685.5 814.5 c 128,-1,23
 671 800 671 800 650 800 c 2,24,-1
 450 800 l 2,25,26
 429 800 429 800 414.5 814.5 c 128,-1,27
 400 829 400 829 400 850 c 2,28,-1
 400 1050 l 2,29,30
 400 1071 400 1071 414.5 1085.5 c 128,-1,31
 429 1100 429 1100 450 1100 c 2,16,-1
850 1100 m 2,32,-1
 1050 1100 l 2,33,34
 1071 1100 1071 1100 1085.5 1085.5 c 128,-1,35
 1100 1071 1100 1071 1100 1050 c 2,36,-1
 1100 850 l 2,37,38
 1100 829 1100 829 1085.5 814.5 c 128,-1,39
 1071 800 1071 800 1050 800 c 2,40,-1
 850 800 l 2,41,42
 829 800 829 800 814.5 814.5 c 128,-1,43
 800 829 800 829 800 850 c 2,44,-1
 800 1050 l 2,45,46
 800 1071 800 1071 814.5 1085.5 c 128,-1,47
 829 1100 829 1100 850 1100 c 2,32,-1
50 700 m 2,48,-1
 250 700 l 2,49,50
 271 700 271 700 285.5 685.5 c 128,-1,51
 300 671 300 671 300 650 c 2,52,-1
 300 450 l 2,53,54
 300 429 300 429 285.5 414.5 c 128,-1,55
 271 400 271 400 250 400 c 2,56,-1
 50 400 l 2,57,58
 29 400 29 400 14.5 414.5 c 128,-1,59
 0 429 0 429 0 450 c 2,60,-1
 0 650 l 2,61,62
 0 671 0 671 14.5 685.5 c 128,-1,63
 29 700 29 700 50 700 c 2,48,-1
450 700 m 2,64,-1
 650 700 l 2,65,66
 671 700 671 700 685.5 685.5 c 128,-1,67
 700 671 700 671 700 650 c 2,68,-1
 700 450 l 2,69,70
 700 429 700 429 685.5 414.5 c 128,-1,71
 671 400 671 400 650 400 c 2,72,-1
 450 400 l 2,73,74
 429 400 429 400 414.5 414.5 c 128,-1,75
 400 429 400 429 400 450 c 2,76,-1
 400 650 l 2,77,78
 400 671 400 671 414.5 685.5 c 128,-1,79
 429 700 429 700 450 700 c 2,64,-1
850 700 m 2,80,-1
 1050 700 l 2,81,82
 1071 700 1071 700 1085.5 685.5 c 128,-1,83
 1100 671 1100 671 1100 650 c 2,84,-1
 1100 450 l 2,85,86
 1100 429 1100 429 1085.5 414.5 c 128,-1,87
 1071 400 1071 400 1050 400 c 2,88,-1
 850 400 l 2,89,90
 829 400 829 400 814.5 414.5 c 128,-1,91
 800 429 800 429 800 450 c 2,92,-1
 800 650 l 2,93,94
 800 671 800 671 814.5 685.5 c 128,-1,95
 829 700 829 700 850 700 c 2,80,-1
50 300 m 2,96,-1
 250 300 l 2,97,98
 271 300 271 300 285.5 285.5 c 128,-1,99
 300 271 300 271 300 250 c 2,100,-1
 300 50 l 2,101,102
 300 29 300 29 285.5 14.5 c 128,-1,103
 271 0 271 0 250 0 c 2,104,-1
 50 0 l 2,105,106
 29 0 29 0 14.5 14.5 c 128,-1,107
 0 29 0 29 0 50 c 2,108,-1
 0 250 l 2,109,110
 0 271 0 271 14.5 285.5 c 128,-1,111
 29 300 29 300 50 300 c 2,96,-1
450 300 m 2,112,-1
 650 300 l 2,113,114
 671 300 671 300 685.5 285.5 c 128,-1,115
 700 271 700 271 700 250 c 2,116,-1
 700 50 l 2,117,118
 700 29 700 29 685.5 14.5 c 128,-1,119
 671 0 671 0 650 0 c 2,120,-1
 450 0 l 2,121,122
 429 0 429 0 414.5 14.5 c 128,-1,123
 400 29 400 29 400 50 c 2,124,-1
 400 250 l 2,125,126
 400 271 400 271 414.5 285.5 c 128,-1,127
 429 300 429 300 450 300 c 2,112,-1
850 300 m 2,128,-1
 1050 300 l 2,129,130
 1071 300 1071 300 1085.5 285.5 c 128,-1,131
 1100 271 1100 271 1100 250 c 2,132,-1
 1100 50 l 2,133,134
 1100 29 1100 29 1085.5 14.5 c 128,-1,135
 1071 0 1071 0 1050 0 c 2,136,-1
 850 0 l 2,137,138
 829 0 829 0 814.5 14.5 c 128,-1,139
 800 29 800 29 800 50 c 2,140,-1
 800 250 l 2,141,142
 800 271 800 271 814.5 285.5 c 128,-1,143
 829 300 829 300 850 300 c 2,128,-1
EndSplineSet
EndChar

StartChar: uniE012
Encoding: 57362 57362 40
Width: 1200
GlyphClass: 2
Flags: W
LayerCount: 2
Fore
SplineSet
50 1100 m 2,0,-1
 250 1100 l 2,1,2
 271 1100 271 1100 285.5 1085.5 c 128,-1,3
 300 1071 300 1071 300 1050 c 2,4,-1
 300 850 l 2,5,6
 300 829 300 829 285.5 814.5 c 128,-1,7
 271 800 271 800 250 800 c 2,8,-1
 50 800 l 2,9,10
 29 800 29 800 14.5 814.5 c 128,-1,11
 0 829 0 829 0 850 c 2,12,-1
 0 1050 l 2,13,14
 0 1071 0 1071 14.5 1085.5 c 128,-1,15
 29 1100 29 1100 50 1100 c 2,0,-1
450 1100 m 2,16,-1
 1150 1100 l 2,17,18
 1171 1100 1171 1100 1185.5 1085.5 c 128,-1,19
 1200 1071 1200 1071 1200 1050 c 2,20,-1
 1200 850 l 2,21,22
 1200 829 1200 829 1185.5 814.5 c 128,-1,23
 1171 800 1171 800 1150 800 c 2,24,-1
 450 800 l 2,25,26
 429 800 429 800 414.5 814.5 c 128,-1,27
 400 829 400 829 400 850 c 2,28,-1
 400 1050 l 2,29,30
 400 1071 400 1071 414.5 1085.5 c 128,-1,31
 429 1100 429 1100 450 1100 c 2,16,-1
50 700 m 2,32,-1
 250 700 l 2,33,34
 271 700 271 700 285.5 685.5 c 128,-1,35
 300 671 300 671 300 650 c 2,36,-1
 300 450 l 2,37,38
 300 429 300 429 285.5 414.5 c 128,-1,39
 271 400 271 400 250 400 c 2,40,-1
 50 400 l 2,41,42
 29 400 29 400 14.5 414.5 c 128,-1,43
 0 429 0 429 0 450 c 2,44,-1
 0 650 l 2,45,46
 0 671 0 671 14.5 685.5 c 128,-1,47
 29 700 29 700 50 700 c 2,32,-1
450 700 m 2,48,-1
 1150 700 l 2,49,50
 1171 700 1171 700 1185.5 685.5 c 128,-1,51
 1200 671 1200 671 1200 650 c 2,52,-1
 1200 450 l 2,53,54
 1200 429 1200 429 1185.5 414.5 c 128,-1,55
 1171 400 1171 400 1150 400 c 2,56,-1
 450 400 l 2,57,58
 429 400 429 400 414.5 414.5 c 128,-1,59
 400 429 400 429 400 450 c 2,60,-1
 400 650 l 2,61,62
 400 671 400 671 414.5 685.5 c 128,-1,63
 429 700 429 700 450 700 c 2,48,-1
50 300 m 2,64,-1
 250 300 l 2,65,66
 271 300 271 300 285.5 285.5 c 128,-1,67
 300 271 300 271 300 250 c 2,68,-1
 300 50 l 2,69,70
 300 29 300 29 285.5 14.5 c 128,-1,71
 271 0 271 0 250 0 c 2,72,-1
 50 0 l 2,73,74
 29 0 29 0 14.5 14.5 c 128,-1,75
 0 29 0 29 0 50 c 2,76,-1
 0 250 l 2,77,78
 0 271 0 271 14.5 285.5 c 128,-1,79
 29 300 29 300 50 300 c 2,64,-1
450 300 m 2,80,-1
 1150 300 l 2,81,82
 1171 300 1171 300 1185.5 285.5 c 128,-1,83
 1200 271 1200 271 1200 250 c 2,84,-1
 1200 50 l 2,85,86
 1200 29 1200 29 1185.5 14.5 c 128,-1,87
 1171 0 1171 0 1150 0 c 2,88,-1
 450 0 l 2,89,90
 429 0 429 0 414.5 14.5 c 128,-1,91
 400 29 400 29 400 50 c 2,92,-1
 400 250 l 2,93,94
 400 271 400 271 414.5 285.5 c 128,-1,95
 429 300 429 300 450 300 c 2,80,-1
EndSplineSet
EndChar

StartChar: uniE013
Encoding: 57363 57363 41
Width: 1200
GlyphClass: 2
Flags: W
LayerCount: 2
Fore
SplineSet
465 477 m 2,0,-1
 1036 1048 l 2,1,2
 1044 1056 1044 1056 1054 1056 c 128,-1,3
 1064 1056 1064 1056 1071 1048 c 2,4,-1
 1248 871 l 2,5,6
 1256 864 1256 864 1256 854 c 128,-1,7
 1256 844 1256 844 1248 836 c 2,8,-1
 465 52 l 2,9,10
 458 44 458 44 447.5 44 c 128,-1,11
 437 44 437 44 430 52 c 2,12,-1
 46 436 l 2,13,14
 38 444 38 444 38 454 c 128,-1,15
 38 464 38 464 46 471 c 2,16,-1
 223 648 l 2,17,18
 230 656 230 656 240 656 c 128,-1,19
 250 656 250 656 258 648 c 2,20,-1
 429 477 l 2,21,22
 436 470 436 470 447 470 c 128,-1,23
 458 470 458 470 465 477 c 2,0,-1
EndSplineSet
EndChar

StartChar: uniE014
Encoding: 57364 57364 42
Width: 1200
GlyphClass: 2
Flags: W
LayerCount: 2
Fore
SplineSet
904 1083 m 2,0,-1
 1082 904 l 2,1,2
 1090 896 1090 896 1090 885.5 c 128,-1,3
 1090 875 1090 875 1082 868 c 2,4,-1
 815 600 l 1,5,-1
 1082 332 l 2,6,7
 1090 325 1090 325 1090 314.5 c 128,-1,8
 1090 304 1090 304 1082 296 c 2,9,-1
 904 118 l 2,10,11
 896 110 896 110 885.5 110 c 128,-1,12
 875 110 875 110 868 118 c 2,13,-1
 600 385 l 1,14,-1
 332 118 l 2,15,16
 325 110 325 110 314.5 110 c 128,-1,17
 304 110 304 110 296 118 c 2,18,-1
 118 296 l 2,19,20
 110 304 110 304 110 314.5 c 128,-1,21
 110 325 110 325 118 332 c 2,22,-1
 385 600 l 1,23,-1
 118 868 l 2,24,25
 110 875 110 875 110 885.5 c 128,-1,26
 110 896 110 896 118 904 c 2,27,-1
 296 1082 l 2,28,29
 304 1090 304 1090 314.5 1090 c 128,-1,30
 325 1090 325 1090 332 1082 c 2,31,-1
 600 815 l 1,32,-1
 868 1083 l 2,33,34
 875 1090 875 1090 885.5 1090 c 128,-1,35
 896 1090 896 1090 904 1083 c 2,0,-1
EndSplineSet
EndChar

StartChar: uniE015
Encoding: 57365 57365 43
Width: 1200
GlyphClass: 2
Flags: W
LayerCount: 2
Fore
SplineSet
507 1177 m 128,-1,1
 605 1177 605 1177 694.5 1138.5 c 128,-1,2
 784 1100 784 1100 849 1035 c 128,-1,3
 914 970 914 970 952.5 880.5 c 128,-1,4
 991 791 991 791 991 693 c 0,5,6
 991 552 991 552 913 431 c 1,7,-1
 1213 132 l 2,8,9
 1221 124 1221 124 1221 113.5 c 128,-1,10
 1221 103 1221 103 1213 95 c 2,11,-1
 1104 -13 l 2,12,13
 1097 -21 1097 -21 1086.5 -21 c 128,-1,14
 1076 -21 1076 -21 1068 -13 c 2,15,-1
 768 286 l 1,16,17
 649 209 649 209 507 209 c 0,18,19
 409 209 409 209 319 247.5 c 128,-1,20
 229 286 229 286 164.5 350.5 c 128,-1,21
 100 415 100 415 61.5 505 c 128,-1,22
 23 595 23 595 23 693 c 128,-1,23
 23 791 23 791 61.5 880.5 c 128,-1,24
 100 970 100 970 164.5 1035 c 128,-1,25
 229 1100 229 1100 319 1138.5 c 128,-1,0
 409 1177 409 1177 507 1177 c 128,-1,1
506.5 1023 m 128,-1,27
 417 1023 417 1023 341 979 c 128,-1,28
 265 935 265 935 221 858.5 c 128,-1,29
 177 782 177 782 177 692.5 c 128,-1,30
 177 603 177 603 221 527 c 128,-1,31
 265 451 265 451 341 407 c 128,-1,32
 417 363 417 363 506.5 363 c 128,-1,33
 596 363 596 363 672.5 407 c 128,-1,34
 749 451 749 451 793 527 c 128,-1,35
 837 603 837 603 837 692.5 c 128,-1,36
 837 782 837 782 793 858.5 c 128,-1,37
 749 935 749 935 672.5 979 c 128,-1,26
 596 1023 596 1023 506.5 1023 c 128,-1,27
425 900 m 2,38,-1
 575 900 l 2,39,40
 585 900 585 900 592.5 892.5 c 128,-1,41
 600 885 600 885 600 875 c 2,42,-1
 600 800 l 1,43,-1
 675 800 l 2,44,45
 685 800 685 800 692.5 792.5 c 128,-1,46
 700 785 700 785 700 775 c 2,47,-1
 700 625 l 2,48,49
 700 615 700 615 692.5 607.5 c 128,-1,50
 685 600 685 600 675 600 c 2,51,-1
 600 600 l 1,52,-1
 600 525 l 2,53,54
 600 515 600 515 592.5 507.5 c 128,-1,55
 585 500 585 500 575 500 c 2,56,-1
 425 500 l 2,57,58
 415 500 415 500 407.5 507.5 c 128,-1,59
 400 515 400 515 400 525 c 2,60,-1
 400 600 l 1,61,-1
 325 600 l 2,62,63
 315 600 315 600 307.5 607.5 c 128,-1,64
 300 615 300 615 300 625 c 2,65,-1
 300 775 l 2,66,67
 300 785 300 785 307.5 792.5 c 128,-1,68
 315 800 315 800 325 800 c 2,69,-1
 400 800 l 1,70,-1
 400 875 l 2,71,72
 400 885 400 885 407.5 892.5 c 128,-1,73
 415 900 415 900 425 900 c 2,38,-1
EndSplineSet
EndChar

StartChar: uniE016
Encoding: 57366 57366 44
Width: 1200
GlyphClass: 2
Flags: W
LayerCount: 2
Fore
SplineSet
507 1177 m 128,-1,1
 605 1177 605 1177 694.5 1138.5 c 128,-1,2
 784 1100 784 1100 849 1035 c 128,-1,3
 914 970 914 970 952.5 880.5 c 128,-1,4
 991 791 991 791 991 693 c 0,5,6
 991 552 991 552 913 431 c 1,7,-1
 1213 132 l 2,8,9
 1221 124 1221 124 1221 113.5 c 128,-1,10
 1221 103 1221 103 1213 95 c 2,11,-1
 1104 -13 l 2,12,13
 1097 -21 1097 -21 1086.5 -21 c 128,-1,14
 1076 -21 1076 -21 1068 -13 c 2,15,-1
 768 286 l 1,16,17
 649 209 649 209 507 209 c 0,18,19
 409 209 409 209 319 247.5 c 128,-1,20
 229 286 229 286 164.5 350.5 c 128,-1,21
 100 415 100 415 61.5 505 c 128,-1,22
 23 595 23 595 23 693 c 128,-1,23
 23 791 23 791 61.5 880.5 c 128,-1,24
 100 970 100 970 164.5 1035 c 128,-1,25
 229 1100 229 1100 319 1138.5 c 128,-1,0
 409 1177 409 1177 507 1177 c 128,-1,1
506.5 1023 m 128,-1,27
 417 1023 417 1023 341 979 c 128,-1,28
 265 935 265 935 221 858.5 c 128,-1,29
 177 782 177 782 177 692.5 c 128,-1,30
 177 603 177 603 221 527 c 128,-1,31
 265 451 265 451 341 407 c 128,-1,32
 417 363 417 363 506.5 363 c 128,-1,33
 596 363 596 363 672.5 407 c 128,-1,34
 749 451 749 451 793 527 c 128,-1,35
 837 603 837 603 837 692.5 c 128,-1,36
 837 782 837 782 793 858.5 c 128,-1,37
 749 935 749 935 672.5 979 c 128,-1,26
 596 1023 596 1023 506.5 1023 c 128,-1,27
325 800 m 2,38,-1
 675 800 l 2,39,40
 685 800 685 800 692.5 792.5 c 128,-1,41
 700 785 700 785 700 775 c 2,42,-1
 700 625 l 2,43,44
 700 615 700 615 692.5 607.5 c 128,-1,45
 685 600 685 600 675 600 c 2,46,-1
 325 600 l 2,47,48
 315 600 315 600 307.5 607.5 c 128,-1,49
 300 615 300 615 300 625 c 2,50,-1
 300 775 l 2,51,52
 300 785 300 785 307.5 792.5 c 128,-1,53
 315 800 315 800 325 800 c 2,38,-1
EndSplineSet
EndChar

StartChar: uniE017
Encoding: 57367 57367 45
Width: 1200
GlyphClass: 2
Flags: W
LayerCount: 2
Fore
SplineSet
550 1200 m 2,0,-1
 650 1200 l 2,1,2
 671 1200 671 1200 685.5 1185.5 c 128,-1,3
 700 1171 700 1171 700 1150 c 2,4,-1
 700 750 l 2,5,6
 700 729 700 729 685.5 714.5 c 128,-1,7
 671 700 671 700 650 700 c 2,8,-1
 550 700 l 2,9,10
 529 700 529 700 514.5 714.5 c 128,-1,11
 500 729 500 729 500 750 c 2,12,-1
 500 1150 l 2,13,14
 500 1171 500 1171 514.5 1185.5 c 128,-1,15
 529 1200 529 1200 550 1200 c 2,0,-1
800 975 m 1,16,-1
 800 1141 l 1,17,18
 967 1079 967 1079 1072 931.5 c 128,-1,19
 1177 784 1177 784 1177 600 c 0,20,21
 1177 483 1177 483 1131.5 376 c 128,-1,22
 1086 269 1086 269 1008.5 191.5 c 128,-1,23
 931 114 931 114 824 68.5 c 128,-1,24
 717 23 717 23 600 23 c 128,-1,25
 483 23 483 23 376 68.5 c 128,-1,26
 269 114 269 114 191.5 191.5 c 128,-1,27
 114 269 114 269 68.5 376 c 128,-1,28
 23 483 23 483 23 600 c 0,29,30
 23 784 23 784 128 931.5 c 128,-1,31
 233 1079 233 1079 400 1141 c 1,32,-1
 400 975 l 1,33,34
 297 920 297 920 235 820 c 128,-1,35
 173 720 173 720 173 600 c 0,36,37
 173 484 173 484 230 385.5 c 128,-1,38
 287 287 287 287 385.5 230 c 128,-1,39
 484 173 484 173 600 173 c 128,-1,40
 716 173 716 173 814.5 230 c 128,-1,41
 913 287 913 287 970 385.5 c 128,-1,42
 1027 484 1027 484 1027 600 c 0,43,44
 1027 720 1027 720 965 820 c 128,-1,45
 903 920 903 920 800 975 c 1,16,-1
EndSplineSet
EndChar

StartChar: uniE018
Encoding: 57368 57368 46
Width: 1200
GlyphClass: 2
Flags: W
LayerCount: 2
Fore
SplineSet
1025 1200 m 2,0,-1
 1175 1200 l 2,1,2
 1185 1200 1185 1200 1192.5 1192.5 c 128,-1,3
 1200 1185 1200 1185 1200 1175 c 2,4,-1
 1200 25 l 2,5,6
 1200 15 1200 15 1192.5 7.5 c 128,-1,7
 1185 0 1185 0 1175 0 c 2,8,-1
 1025 0 l 2,9,10
 1015 0 1015 0 1007.5 7.5 c 128,-1,11
 1000 15 1000 15 1000 25 c 2,12,-1
 1000 1175 l 2,13,14
 1000 1185 1000 1185 1007.5 1192.5 c 128,-1,15
 1015 1200 1015 1200 1025 1200 c 2,0,-1
725 800 m 2,16,-1
 875 800 l 2,17,18
 885 800 885 800 892.5 792.5 c 128,-1,19
 900 785 900 785 900 775 c 2,20,-1
 900 25 l 2,21,22
 900 15 900 15 892.5 7.5 c 128,-1,23
 885 0 885 0 875 0 c 2,24,-1
 725 0 l 2,25,26
 715 0 715 0 707.5 7.5 c 128,-1,27
 700 15 700 15 700 25 c 2,28,-1
 700 775 l 2,29,30
 700 785 700 785 707.5 792.5 c 128,-1,31
 715 800 715 800 725 800 c 2,16,-1
425 500 m 2,32,-1
 575 500 l 2,33,34
 585 500 585 500 592.5 492.5 c 128,-1,35
 600 485 600 485 600 475 c 2,36,-1
 600 25 l 2,37,38
 600 15 600 15 592.5 7.5 c 128,-1,39
 585 0 585 0 575 0 c 2,40,-1
 425 0 l 2,41,42
 415 0 415 0 407.5 7.5 c 128,-1,43
 400 15 400 15 400 25 c 2,44,-1
 400 475 l 2,45,46
 400 485 400 485 407.5 492.5 c 128,-1,47
 415 500 415 500 425 500 c 2,32,-1
125 300 m 2,48,-1
 275 300 l 2,49,50
 285 300 285 300 292.5 292.5 c 128,-1,51
 300 285 300 285 300 275 c 2,52,-1
 300 25 l 2,53,54
 300 15 300 15 292.5 7.5 c 128,-1,55
 285 0 285 0 275 0 c 2,56,-1
 125 0 l 2,57,58
 115 0 115 0 107.5 7.5 c 128,-1,59
 100 15 100 15 100 25 c 2,60,-1
 100 275 l 2,61,62
 100 285 100 285 107.5 292.5 c 128,-1,63
 115 300 115 300 125 300 c 2,48,-1
EndSplineSet
EndChar

StartChar: uniE019
Encoding: 57369 57369 47
Width: 1200
GlyphClass: 2
Flags: W
LayerCount: 2
Fore
SplineSet
600 1174 m 0,0,1
 633 1174 633 1174 674 1169 c 1,2,-1
 712 1017 l 1,3,-1
 717 1016 l 1,4,5
 766 1002 766 1002 811 977 c 1,6,-1
 816 975 l 1,7,-1
 950 1055 l 1,8,9
 1011 1007 1011 1007 1054 950 c 1,10,-1
 974 816 l 1,11,-1
 977 811 l 2,12,13
 1002 767 1002 767 1016 718 c 1,14,-1
 1017 712 l 1,15,-1
 1169 674 l 1,16,17
 1174 631 1174 631 1174 601 c 0,18,19
 1174 567 1174 567 1169 527 c 1,20,-1
 1017 489 l 1,21,-1
 1016 483 l 1,22,23
 1001 434 1001 434 977 390 c 2,24,-1
 974 385 l 1,25,-1
 1054 251 l 1,26,27
 1006 190 1006 190 950 146 c 1,28,-1
 816 227 l 1,29,-1
 811 224 l 2,30,31
 767 199 767 199 717 185 c 1,32,-1
 712 183 l 1,33,-1
 674 32 l 1,34,35
 631 27 631 27 600 27 c 0,36,37
 567 27 567 27 526 32 c 1,38,-1
 488 183 l 1,39,-1
 483 185 l 1,40,41
 434 199 434 199 389 224 c 2,42,-1
 384 227 l 1,43,-1
 250 146 l 1,44,45
 190 194 190 194 146 251 c 1,46,-1
 226 385 l 1,47,-1
 223 390 l 2,48,49
 198 435 198 435 185 483 c 2,50,-1
 183 489 l 1,51,-1
 32 527 l 1,52,53
 26 569 26 569 26 601 c 0,54,55
 26 634 26 634 32 674 c 1,56,-1
 183 712 l 1,57,-1
 185 718 l 2,58,59
 198 766 198 766 223 811 c 2,60,-1
 226 816 l 1,61,-1
 146 950 l 1,62,63
 193 1011 193 1011 251 1055 c 1,64,-1
 384 975 l 1,65,-1
 389 977 l 1,66,67
 434 1002 434 1002 483 1016 c 1,68,-1
 488 1017 l 1,69,-1
 526 1169 l 1,70,71
 569 1174 569 1174 600 1174 c 0,0,1
600 815 m 128,-1,73
 511 815 511 815 448 752 c 128,-1,74
 385 689 385 689 385 600.5 c 128,-1,75
 385 512 385 512 448 449 c 128,-1,76
 511 386 511 386 600 386 c 128,-1,77
 689 386 689 386 752 449 c 128,-1,78
 815 512 815 512 815 600.5 c 128,-1,79
 815 689 815 689 752 752 c 128,-1,72
 689 815 689 815 600 815 c 128,-1,73
EndSplineSet
EndChar

StartChar: uniE020
Encoding: 57376 57376 48
Width: 1200
GlyphClass: 2
Flags: W
LayerCount: 2
Fore
SplineSet
500 1300 m 2,0,-1
 800 1300 l 2,1,2
 841 1300 841 1300 870.5 1270.5 c 128,-1,3
 900 1241 900 1241 900 1200 c 2,4,-1
 900 1100 l 1,5,-1
 1175 1100 l 2,6,7
 1185 1100 1185 1100 1192.5 1092.5 c 128,-1,8
 1200 1085 1200 1085 1200 1075 c 2,9,-1
 1200 1000 l 1,10,-1
 100 1000 l 1,11,-1
 100 1075 l 2,12,13
 100 1085 100 1085 107.5 1092.5 c 128,-1,14
 115 1100 115 1100 125 1100 c 2,15,-1
 400 1100 l 1,16,-1
 400 1200 l 2,17,18
 400 1241 400 1241 429.5 1270.5 c 128,-1,19
 459 1300 459 1300 500 1300 c 2,0,-1
500 1200 m 1,20,-1
 500 1100 l 1,21,-1
 800 1100 l 1,22,-1
 800 1200 l 1,23,-1
 500 1200 l 1,20,-1
1100 900 m 1,24,-1
 1100 100 l 2,25,26
 1100 59 1100 59 1070.5 29.5 c 128,-1,27
 1041 0 1041 0 1000 0 c 2,28,-1
 300 0 l 2,29,30
 259 0 259 0 229.5 29.5 c 128,-1,31
 200 59 200 59 200 100 c 2,32,-1
 200 900 l 1,33,-1
 1100 900 l 1,24,-1
300 800 m 1,34,-1
 300 100 l 1,35,-1
 400 100 l 1,36,-1
 400 800 l 1,37,-1
 300 800 l 1,34,-1
500 800 m 1,38,-1
 500 100 l 1,39,-1
 600 100 l 1,40,-1
 600 800 l 1,41,-1
 500 800 l 1,38,-1
700 800 m 1,42,-1
 700 100 l 1,43,-1
 800 100 l 1,44,-1
 800 800 l 1,45,-1
 700 800 l 1,42,-1
900 800 m 1,46,-1
 900 100 l 1,47,-1
 1000 100 l 1,48,-1
 1000 800 l 1,49,-1
 900 800 l 1,46,-1
EndSplineSet
EndChar

StartChar: uniE021
Encoding: 57377 57377 49
Width: 1200
GlyphClass: 2
Flags: W
LayerCount: 2
Fore
SplineSet
18 618 m 2,0,-1
 638 1226 l 2,1,2
 646 1233 646 1233 656.5 1233 c 128,-1,3
 667 1233 667 1233 674 1226 c 2,4,-1
 1282 618 l 2,5,6
 1290 610 1290 610 1287.5 605 c 128,-1,7
 1285 600 1285 600 1275 600 c 2,8,-1
 1100 600 l 1,9,-1
 1100 25 l 2,10,11
 1100 15 1100 15 1092.5 7.5 c 128,-1,12
 1085 0 1085 0 1075 0 c 2,13,-1
 825 0 l 2,14,15
 815 0 815 0 807.5 7.5 c 128,-1,16
 800 15 800 15 800 25 c 2,17,-1
 800 400 l 1,18,-1
 500 400 l 1,19,-1
 500 25 l 2,20,21
 500 15 500 15 492.5 7.5 c 128,-1,22
 485 0 485 0 475 0 c 2,23,-1
 225 0 l 2,24,25
 215 0 215 0 207.5 7.5 c 128,-1,26
 200 15 200 15 200 25 c 2,27,-1
 200 600 l 1,28,-1
 25 600 l 2,29,30
 15 600 15 600 12.5 605 c 128,-1,31
 10 610 10 610 18 618 c 2,0,-1
EndSplineSet
EndChar

StartChar: uniE022
Encoding: 57378 57378 50
Width: 1200
GlyphClass: 2
Flags: W
LayerCount: 2
Fore
SplineSet
600 1200 m 1,0,-1
 600 800 l 2,1,2
 600 759 600 759 629.5 729.5 c 128,-1,3
 659 700 659 700 700 700 c 2,4,-1
 1000 700 l 1,5,-1
 1000 50 l 2,6,7
 1000 29 1000 29 985.5 14.5 c 128,-1,8
 971 0 971 0 950 0 c 2,9,-1
 150 0 l 2,10,11
 129 0 129 0 114.5 14.5 c 128,-1,12
 100 29 100 29 100 50 c 2,13,-1
 100 1150 l 2,14,15
 100 1171 100 1171 114.5 1185.5 c 128,-1,16
 129 1200 129 1200 150 1200 c 2,17,-1
 600 1200 l 1,0,-1
1000 800 m 1,18,-1
 750 800 l 2,19,20
 729 800 729 800 714.5 814.5 c 128,-1,21
 700 829 700 829 700 850 c 2,22,-1
 700 1100 l 1,23,-1
 1000 800 l 1,18,-1
EndSplineSet
EndChar

StartChar: uniE023
Encoding: 57379 57379 51
Width: 1200
GlyphClass: 2
Flags: W
LayerCount: 2
Fore
SplineSet
600 1177 m 128,-1,1
 717 1177 717 1177 824 1131.5 c 128,-1,2
 931 1086 931 1086 1008.5 1008.5 c 128,-1,3
 1086 931 1086 931 1131.5 824 c 128,-1,4
 1177 717 1177 717 1177 600 c 128,-1,5
 1177 483 1177 483 1131.5 376 c 128,-1,6
 1086 269 1086 269 1008.5 191.5 c 128,-1,7
 931 114 931 114 824 68.5 c 128,-1,8
 717 23 717 23 600 23 c 128,-1,9
 483 23 483 23 376 68.5 c 128,-1,10
 269 114 269 114 191.5 191.5 c 128,-1,11
 114 269 114 269 68.5 376 c 128,-1,12
 23 483 23 483 23 600 c 128,-1,13
 23 717 23 717 68.5 824 c 128,-1,14
 114 931 114 931 191.5 1008.5 c 128,-1,15
 269 1086 269 1086 376 1131.5 c 128,-1,0
 483 1177 483 1177 600 1177 c 128,-1,1
600 1027 m 128,-1,17
 484 1027 484 1027 385.5 970 c 128,-1,18
 287 913 287 913 230 814.5 c 128,-1,19
 173 716 173 716 173 600 c 128,-1,20
 173 484 173 484 230 385.5 c 128,-1,21
 287 287 287 287 385.5 230 c 128,-1,22
 484 173 484 173 600 173 c 128,-1,23
 716 173 716 173 814.5 230 c 128,-1,24
 913 287 913 287 970 385.5 c 128,-1,25
 1027 484 1027 484 1027 600 c 128,-1,26
 1027 716 1027 716 970 814.5 c 128,-1,27
 913 913 913 913 814.5 970 c 128,-1,16
 716 1027 716 1027 600 1027 c 128,-1,17
525 900 m 2,28,-1
 575 900 l 2,29,30
 585 900 585 900 592.5 892.5 c 128,-1,31
 600 885 600 885 600 875 c 2,32,-1
 600 600 l 1,33,-1
 775 600 l 2,34,35
 785 600 785 600 792.5 592.5 c 128,-1,36
 800 585 800 585 800 575 c 2,37,-1
 800 525 l 2,38,39
 800 515 800 515 792.5 507.5 c 128,-1,40
 785 500 785 500 775 500 c 2,41,-1
 525 500 l 2,42,43
 515 500 515 500 507.5 507.5 c 128,-1,44
 500 515 500 515 500 525 c 2,45,-1
 500 875 l 2,46,47
 500 885 500 885 507.5 892.5 c 128,-1,48
 515 900 515 900 525 900 c 2,28,-1
EndSplineSet
EndChar

StartChar: uniE024
Encoding: 57380 57380 52
Width: 1200
GlyphClass: 2
Flags: W
LayerCount: 2
Fore
SplineSet
1300 0 m 1,0,-1
 762 0 l 1,1,-1
 721 400 l 1,2,-1
 479 400 l 1,3,-1
 438 0 l 1,4,-1
 -100 0 l 1,5,-1
 331 1200 l 1,6,-1
 540 1200 l 1,7,-1
 519 900 l 1,8,-1
 681 900 l 1,9,-1
 661 1200 l 1,10,-1
 869 1200 l 1,11,-1
 1300 0 l 1,0,-1
515 800 m 1,12,-1
 488 500 l 1,13,-1
 712 500 l 1,14,-1
 685 800 l 1,15,-1
 515 800 l 1,12,-1
EndSplineSet
EndChar

StartChar: uniE025
Encoding: 57381 57381 53
Width: 1200
GlyphClass: 2
Flags: W
LayerCount: 2
Fore
SplineSet
550 1200 m 2,0,-1
 750 1200 l 2,1,2
 771 1200 771 1200 785.5 1185.5 c 128,-1,3
 800 1171 800 1171 800 1150 c 2,4,-1
 800 700 l 1,5,-1
 991 700 l 2,6,7
 1011 700 1011 700 1016.5 688.5 c 128,-1,8
 1022 677 1022 677 1009 661 c 2,9,-1
 682 261 l 2,10,11
 669 245 669 245 650 245 c 128,-1,12
 631 245 631 245 618 261 c 2,13,-1
 291 661 l 2,14,15
 278 677 278 677 283.5 688.5 c 128,-1,16
 289 700 289 700 309 700 c 2,17,-1
 500 700 l 1,18,-1
 500 1150 l 2,19,20
 500 1171 500 1171 514.5 1185.5 c 128,-1,21
 529 1200 529 1200 550 1200 c 2,0,-1
1125 400 m 2,22,-1
 1175 400 l 2,23,24
 1185 400 1185 400 1192.5 392.5 c 128,-1,25
 1200 385 1200 385 1200 375 c 2,26,-1
 1200 25 l 2,27,28
 1200 15 1200 15 1192.5 7.5 c 128,-1,29
 1185 0 1185 0 1175 0 c 2,30,-1
 125 0 l 2,31,32
 115 0 115 0 107.5 7.5 c 128,-1,33
 100 15 100 15 100 25 c 2,34,-1
 100 375 l 2,35,36
 100 385 100 385 107.5 392.5 c 128,-1,37
 115 400 115 400 125 400 c 2,38,-1
 175 400 l 2,39,40
 185 400 185 400 192.5 392.5 c 128,-1,41
 200 385 200 385 200 375 c 2,42,-1
 200 200 l 1,43,-1
 1100 200 l 1,44,-1
 1100 375 l 2,45,46
 1100 385 1100 385 1107.5 392.5 c 128,-1,47
 1115 400 1115 400 1125 400 c 2,22,-1
EndSplineSet
EndChar

StartChar: uniE026
Encoding: 57382 57382 54
Width: 1200
GlyphClass: 2
Flags: W
LayerCount: 2
Fore
SplineSet
600 1177 m 128,-1,1
 717 1177 717 1177 824 1131.5 c 128,-1,2
 931 1086 931 1086 1008.5 1008.5 c 128,-1,3
 1086 931 1086 931 1131.5 824 c 128,-1,4
 1177 717 1177 717 1177 600 c 128,-1,5
 1177 483 1177 483 1131.5 376 c 128,-1,6
 1086 269 1086 269 1008.5 191.5 c 128,-1,7
 931 114 931 114 824 68.5 c 128,-1,8
 717 23 717 23 600 23 c 128,-1,9
 483 23 483 23 376 68.5 c 128,-1,10
 269 114 269 114 191.5 191.5 c 128,-1,11
 114 269 114 269 68.5 376 c 128,-1,12
 23 483 23 483 23 600 c 128,-1,13
 23 717 23 717 68.5 824 c 128,-1,14
 114 931 114 931 191.5 1008.5 c 128,-1,15
 269 1086 269 1086 376 1131.5 c 128,-1,0
 483 1177 483 1177 600 1177 c 128,-1,1
600 1027 m 128,-1,17
 484 1027 484 1027 385.5 970 c 128,-1,18
 287 913 287 913 230 814.5 c 128,-1,19
 173 716 173 716 173 600 c 128,-1,20
 173 484 173 484 230 385.5 c 128,-1,21
 287 287 287 287 385.5 230 c 128,-1,22
 484 173 484 173 600 173 c 128,-1,23
 716 173 716 173 814.5 230 c 128,-1,24
 913 287 913 287 970 385.5 c 128,-1,25
 1027 484 1027 484 1027 600 c 128,-1,26
 1027 716 1027 716 970 814.5 c 128,-1,27
 913 913 913 913 814.5 970 c 128,-1,16
 716 1027 716 1027 600 1027 c 128,-1,17
525 900 m 2,28,-1
 675 900 l 2,29,30
 685 900 685 900 692.5 892.5 c 128,-1,31
 700 885 700 885 700 875 c 2,32,-1
 700 600 l 1,33,-1
 837 600 l 2,34,35
 858 600 858 600 863 588.5 c 128,-1,36
 868 577 868 577 855 561 c 2,37,-1
 632 286 l 2,38,39
 619 270 619 270 600 270 c 128,-1,40
 581 270 581 270 568 286 c 2,41,-1
 345 561 l 2,42,43
 332 577 332 577 337 588.5 c 128,-1,44
 342 600 342 600 363 600 c 2,45,-1
 500 600 l 1,46,-1
 500 875 l 2,47,48
 500 885 500 885 507.5 892.5 c 128,-1,49
 515 900 515 900 525 900 c 2,28,-1
EndSplineSet
EndChar

StartChar: uniE027
Encoding: 57383 57383 55
Width: 1200
GlyphClass: 2
Flags: W
LayerCount: 2
Fore
SplineSet
600 1177 m 128,-1,1
 717 1177 717 1177 824 1131.5 c 128,-1,2
 931 1086 931 1086 1008.5 1008.5 c 128,-1,3
 1086 931 1086 931 1131.5 824 c 128,-1,4
 1177 717 1177 717 1177 600 c 128,-1,5
 1177 483 1177 483 1131.5 376 c 128,-1,6
 1086 269 1086 269 1008.5 191.5 c 128,-1,7
 931 114 931 114 824 68.5 c 128,-1,8
 717 23 717 23 600 23 c 128,-1,9
 483 23 483 23 376 68.5 c 128,-1,10
 269 114 269 114 191.5 191.5 c 128,-1,11
 114 269 114 269 68.5 376 c 128,-1,12
 23 483 23 483 23 600 c 128,-1,13
 23 717 23 717 68.5 824 c 128,-1,14
 114 931 114 931 191.5 1008.5 c 128,-1,15
 269 1086 269 1086 376 1131.5 c 128,-1,0
 483 1177 483 1177 600 1177 c 128,-1,1
600 1027 m 128,-1,17
 484 1027 484 1027 385.5 970 c 128,-1,18
 287 913 287 913 230 814.5 c 128,-1,19
 173 716 173 716 173 600 c 128,-1,20
 173 484 173 484 230 385.5 c 128,-1,21
 287 287 287 287 385.5 230 c 128,-1,22
 484 173 484 173 600 173 c 128,-1,23
 716 173 716 173 814.5 230 c 128,-1,24
 913 287 913 287 970 385.5 c 128,-1,25
 1027 484 1027 484 1027 600 c 128,-1,26
 1027 716 1027 716 970 814.5 c 128,-1,27
 913 913 913 913 814.5 970 c 128,-1,16
 716 1027 716 1027 600 1027 c 128,-1,17
632 914 m 2,28,-1
 855 639 l 2,29,30
 868 623 868 623 863 611.5 c 128,-1,31
 858 600 858 600 837 600 c 2,32,-1
 700 600 l 1,33,-1
 700 325 l 2,34,35
 700 315 700 315 692.5 307.5 c 128,-1,36
 685 300 685 300 675 300 c 2,37,-1
 525 300 l 2,38,39
 515 300 515 300 507.5 307.5 c 128,-1,40
 500 315 500 315 500 325 c 2,41,-1
 500 600 l 1,42,-1
 363 600 l 2,43,44
 342 600 342 600 337 611.5 c 128,-1,45
 332 623 332 623 345 639 c 2,46,-1
 568 914 l 2,47,48
 581 930 581 930 600 930 c 128,-1,49
 619 930 619 930 632 914 c 2,28,-1
EndSplineSet
EndChar

StartChar: uniE028
Encoding: 57384 57384 56
Width: 1200
GlyphClass: 2
Flags: W
LayerCount: 2
Fore
SplineSet
225 1200 m 2,0,-1
 975 1200 l 2,1,2
 985 1200 985 1200 994.5 1193 c 128,-1,3
 1004 1186 1004 1186 1007 1176 c 2,4,-1
 1193 524 l 2,5,6
 1200 500 1200 500 1200 475 c 2,7,-1
 1200 50 l 2,8,9
 1200 38 1200 38 1196 23 c 128,-1,10
 1192 8 1192 8 1187 6 c 0,11,12
 1175 0 1175 0 1150 0 c 2,13,-1
 50 0 l 2,14,15
 38 0 38 0 23 4 c 128,-1,16
 8 8 8 8 6 12 c 0,17,18
 0 25 0 25 0 50 c 2,19,-1
 1 475 l 2,20,21
 1 500 1 500 8 524 c 2,22,-1
 193 1176 l 2,23,24
 196 1186 196 1186 205.5 1193 c 128,-1,25
 215 1200 215 1200 225 1200 c 2,0,-1
878 1000 m 2,26,-1
 322 1000 l 2,27,28
 312 1000 312 1000 303 993 c 128,-1,29
 294 986 294 986 292 975 c 2,30,-1
 205 525 l 2,31,32
 203 514 203 514 209 507 c 128,-1,33
 215 500 215 500 225 500 c 2,34,-1
 375 500 l 2,35,36
 385 500 385 500 394.5 493 c 128,-1,37
 404 486 404 486 406 476 c 2,38,-1
 444 324 l 2,39,40
 446 314 446 314 455.5 307 c 128,-1,41
 465 300 465 300 475 300 c 2,42,-1
 725 300 l 2,43,44
 735 300 735 300 744.5 307 c 128,-1,45
 754 314 754 314 756 324 c 2,46,-1
 794 476 l 2,47,48
 796 486 796 486 805.5 493 c 128,-1,49
 815 500 815 500 825 500 c 2,50,-1
 975 500 l 2,51,52
 985 500 985 500 991 507 c 128,-1,53
 997 514 997 514 995 525 c 2,54,-1
 908 975 l 2,55,56
 906 986 906 986 897 993 c 128,-1,57
 888 1000 888 1000 878 1000 c 2,26,-1
EndSplineSet
EndChar

StartChar: uniE029
Encoding: 57385 57385 57
Width: 1200
GlyphClass: 2
Flags: W
LayerCount: 2
Fore
SplineSet
600 1177 m 128,-1,1
 717 1177 717 1177 824 1131.5 c 128,-1,2
 931 1086 931 1086 1008.5 1008.5 c 128,-1,3
 1086 931 1086 931 1131.5 824 c 128,-1,4
 1177 717 1177 717 1177 600 c 128,-1,5
 1177 483 1177 483 1131.5 376 c 128,-1,6
 1086 269 1086 269 1008.5 191.5 c 128,-1,7
 931 114 931 114 824 68.5 c 128,-1,8
 717 23 717 23 600 23 c 128,-1,9
 483 23 483 23 376 68.5 c 128,-1,10
 269 114 269 114 191.5 191.5 c 128,-1,11
 114 269 114 269 68.5 376 c 128,-1,12
 23 483 23 483 23 600 c 128,-1,13
 23 717 23 717 68.5 824 c 128,-1,14
 114 931 114 931 191.5 1008.5 c 128,-1,15
 269 1086 269 1086 376 1131.5 c 128,-1,0
 483 1177 483 1177 600 1177 c 128,-1,1
600 1027 m 128,-1,17
 484 1027 484 1027 385.5 970 c 128,-1,18
 287 913 287 913 230 814.5 c 128,-1,19
 173 716 173 716 173 600 c 128,-1,20
 173 484 173 484 230 385.5 c 128,-1,21
 287 287 287 287 385.5 230 c 128,-1,22
 484 173 484 173 600 173 c 128,-1,23
 716 173 716 173 814.5 230 c 128,-1,24
 913 287 913 287 970 385.5 c 128,-1,25
 1027 484 1027 484 1027 600 c 128,-1,26
 1027 716 1027 716 970 814.5 c 128,-1,27
 913 913 913 913 814.5 970 c 128,-1,16
 716 1027 716 1027 600 1027 c 128,-1,17
540 820 m 2,28,-1
 793 630 l 2,29,30
 810 618 810 618 810 600 c 128,-1,31
 810 582 810 582 793 570 c 2,32,-1
 540 380 l 2,33,34
 524 368 524 368 512 373.5 c 128,-1,35
 500 379 500 379 500 400 c 2,36,-1
 500 800 l 2,37,38
 500 821 500 821 512 826.5 c 128,-1,39
 524 832 524 832 540 820 c 2,28,-1
EndSplineSet
EndChar

StartChar: uniE030
Encoding: 57392 57392 58
Width: 1200
GlyphClass: 2
Flags: W
LayerCount: 2
Fore
SplineSet
947 1060 m 1,0,-1
 1082 1195 l 2,1,2
 1089 1202 1089 1202 1094.5 1200 c 128,-1,3
 1100 1198 1100 1198 1100 1187 c 2,4,-1
 1100 825 l 2,5,6
 1100 815 1100 815 1092.5 807.5 c 128,-1,7
 1085 800 1085 800 1075 800 c 2,8,-1
 713 800 l 2,9,10
 702 800 702 800 700 805.5 c 128,-1,11
 698 811 698 811 705 818 c 2,12,-1
 838 951 l 1,13,14
 729 1027 729 1027 600 1027 c 0,15,16
 484 1027 484 1027 385.5 970 c 128,-1,17
 287 913 287 913 230 814.5 c 128,-1,18
 173 716 173 716 173 600 c 128,-1,19
 173 484 173 484 230 385.5 c 128,-1,20
 287 287 287 287 385.5 230 c 128,-1,21
 484 173 484 173 600 173 c 128,-1,22
 716 173 716 173 814.5 230 c 128,-1,23
 913 287 913 287 970 385.5 c 128,-1,24
 1027 484 1027 484 1027 600 c 1,25,-1
 1177 600 l 1,26,27
 1177 483 1177 483 1131.5 376 c 128,-1,28
 1086 269 1086 269 1008.5 191.5 c 128,-1,29
 931 114 931 114 824 68.5 c 128,-1,30
 717 23 717 23 600 23 c 128,-1,31
 483 23 483 23 376 68.5 c 128,-1,32
 269 114 269 114 191.5 191.5 c 128,-1,33
 114 269 114 269 68.5 376 c 128,-1,34
 23 483 23 483 23 600 c 128,-1,35
 23 717 23 717 68.5 824 c 128,-1,36
 114 931 114 931 191.5 1008.5 c 128,-1,37
 269 1086 269 1086 376 1131.5 c 128,-1,38
 483 1177 483 1177 600 1177 c 0,39,40
 792 1177 792 1177 947 1060 c 1,0,-1
EndSplineSet
EndChar

StartChar: uniE031
Encoding: 57393 57393 59
Width: 1200
GlyphClass: 2
Flags: W
LayerCount: 2
Fore
SplineSet
947 1060 m 1,0,-1
 1082 1195 l 2,1,2
 1089 1202 1089 1202 1094.5 1200 c 128,-1,3
 1100 1198 1100 1198 1100 1187 c 2,4,-1
 1100 826 l 2,5,6
 1100 815 1100 815 1092.5 807.5 c 128,-1,7
 1085 800 1085 800 1074 800 c 2,8,-1
 713 800 l 2,9,10
 702 800 702 800 700 805.5 c 128,-1,11
 698 811 698 811 705 818 c 2,12,-1
 839 952 l 1,13,14
 729 1027 729 1027 600 1027 c 0,15,16
 484 1027 484 1027 385.5 970 c 128,-1,17
 287 913 287 913 230 814.5 c 128,-1,18
 173 716 173 716 173 600 c 1,19,-1
 23 600 l 1,20,21
 23 717 23 717 68.5 824 c 128,-1,22
 114 931 114 931 191.5 1008.5 c 128,-1,23
 269 1086 269 1086 376 1131.5 c 128,-1,24
 483 1177 483 1177 600 1177 c 0,25,26
 792 1177 792 1177 947 1060 c 1,0,-1
1027 600 m 1,27,-1
 1177 600 l 1,28,29
 1177 483 1177 483 1131.5 376 c 128,-1,30
 1086 269 1086 269 1008.5 191.5 c 128,-1,31
 931 114 931 114 824 68.5 c 128,-1,32
 717 23 717 23 600 23 c 0,33,34
 408 23 408 23 252 141 c 1,35,-1
 118 7 l 2,36,37
 111 -1 111 -1 105.5 1.5 c 128,-1,38
 100 4 100 4 100 14 c 2,39,-1
 100 374 l 2,40,41
 100 385 100 385 107.5 392.5 c 128,-1,42
 115 400 115 400 126 400 c 2,43,-1
 486 400 l 2,44,45
 496 400 496 400 498.5 394.5 c 128,-1,46
 501 389 501 389 493 382 c 2,47,-1
 360 249 l 1,48,49
 470 173 470 173 600 173 c 0,50,51
 716 173 716 173 814.5 230 c 128,-1,52
 913 287 913 287 970 385.5 c 128,-1,53
 1027 484 1027 484 1027 600 c 1,27,-1
EndSplineSet
EndChar

StartChar: uniE032
Encoding: 57394 57394 60
Width: 1200
GlyphClass: 2
Flags: W
LayerCount: 2
Fore
SplineSet
125 1200 m 2,0,-1
 1175 1200 l 2,1,2
 1185 1200 1185 1200 1192.5 1192.5 c 128,-1,3
 1200 1185 1200 1185 1200 1175 c 2,4,-1
 1200 25 l 2,5,6
 1200 15 1200 15 1192.5 7.5 c 128,-1,7
 1185 0 1185 0 1175 0 c 2,8,-1
 125 0 l 2,9,10
 115 0 115 0 107.5 7.5 c 128,-1,11
 100 15 100 15 100 25 c 2,12,-1
 100 1175 l 2,13,14
 100 1185 100 1185 107.5 1192.5 c 128,-1,15
 115 1200 115 1200 125 1200 c 2,0,-1
1075 1000 m 2,16,-1
 225 1000 l 2,17,18
 215 1000 215 1000 207.5 992.5 c 128,-1,19
 200 985 200 985 200 975 c 2,20,-1
 200 125 l 2,21,22
 200 115 200 115 207.5 107.5 c 128,-1,23
 215 100 215 100 225 100 c 2,24,-1
 1075 100 l 2,25,26
 1085 100 1085 100 1092.5 107.5 c 128,-1,27
 1100 115 1100 115 1100 125 c 2,28,-1
 1100 975 l 2,29,30
 1100 985 1100 985 1092.5 992.5 c 128,-1,31
 1085 1000 1085 1000 1075 1000 c 2,16,-1
325 900 m 2,32,-1
 375 900 l 2,33,34
 385 900 385 900 392.5 892.5 c 128,-1,35
 400 885 400 885 400 875 c 2,36,-1
 400 825 l 2,37,38
 400 815 400 815 392.5 807.5 c 128,-1,39
 385 800 385 800 375 800 c 2,40,-1
 325 800 l 2,41,42
 315 800 315 800 307.5 807.5 c 128,-1,43
 300 815 300 815 300 825 c 2,44,-1
 300 875 l 2,45,46
 300 885 300 885 307.5 892.5 c 128,-1,47
 315 900 315 900 325 900 c 2,32,-1
525 900 m 2,48,-1
 975 900 l 2,49,50
 985 900 985 900 992.5 892.5 c 128,-1,51
 1000 885 1000 885 1000 875 c 2,52,-1
 1000 825 l 2,53,54
 1000 815 1000 815 992.5 807.5 c 128,-1,55
 985 800 985 800 975 800 c 2,56,-1
 525 800 l 2,57,58
 515 800 515 800 507.5 807.5 c 128,-1,59
 500 815 500 815 500 825 c 2,60,-1
 500 875 l 2,61,62
 500 885 500 885 507.5 892.5 c 128,-1,63
 515 900 515 900 525 900 c 2,48,-1
325 700 m 2,64,-1
 375 700 l 2,65,66
 385 700 385 700 392.5 692.5 c 128,-1,67
 400 685 400 685 400 675 c 2,68,-1
 400 625 l 2,69,70
 400 615 400 615 392.5 607.5 c 128,-1,71
 385 600 385 600 375 600 c 2,72,-1
 325 600 l 2,73,74
 315 600 315 600 307.5 607.5 c 128,-1,75
 300 615 300 615 300 625 c 2,76,-1
 300 675 l 2,77,78
 300 685 300 685 307.5 692.5 c 128,-1,79
 315 700 315 700 325 700 c 2,64,-1
525 700 m 2,80,-1
 975 700 l 2,81,82
 985 700 985 700 992.5 692.5 c 128,-1,83
 1000 685 1000 685 1000 675 c 2,84,-1
 1000 625 l 2,85,86
 1000 615 1000 615 992.5 607.5 c 128,-1,87
 985 600 985 600 975 600 c 2,88,-1
 525 600 l 2,89,90
 515 600 515 600 507.5 607.5 c 128,-1,91
 500 615 500 615 500 625 c 2,92,-1
 500 675 l 2,93,94
 500 685 500 685 507.5 692.5 c 128,-1,95
 515 700 515 700 525 700 c 2,80,-1
325 500 m 2,96,-1
 375 500 l 2,97,98
 385 500 385 500 392.5 492.5 c 128,-1,99
 400 485 400 485 400 475 c 2,100,-1
 400 425 l 2,101,102
 400 415 400 415 392.5 407.5 c 128,-1,103
 385 400 385 400 375 400 c 2,104,-1
 325 400 l 2,105,106
 315 400 315 400 307.5 407.5 c 128,-1,107
 300 415 300 415 300 425 c 2,108,-1
 300 475 l 2,109,110
 300 485 300 485 307.5 492.5 c 128,-1,111
 315 500 315 500 325 500 c 2,96,-1
525 500 m 2,112,-1
 975 500 l 2,113,114
 985 500 985 500 992.5 492.5 c 128,-1,115
 1000 485 1000 485 1000 475 c 2,116,-1
 1000 425 l 2,117,118
 1000 415 1000 415 992.5 407.5 c 128,-1,119
 985 400 985 400 975 400 c 2,120,-1
 525 400 l 2,121,122
 515 400 515 400 507.5 407.5 c 128,-1,123
 500 415 500 415 500 425 c 2,124,-1
 500 475 l 2,125,126
 500 485 500 485 507.5 492.5 c 128,-1,127
 515 500 515 500 525 500 c 2,112,-1
325 300 m 2,128,-1
 375 300 l 2,129,130
 385 300 385 300 392.5 292.5 c 128,-1,131
 400 285 400 285 400 275 c 2,132,-1
 400 225 l 2,133,134
 400 215 400 215 392.5 207.5 c 128,-1,135
 385 200 385 200 375 200 c 2,136,-1
 325 200 l 2,137,138
 315 200 315 200 307.5 207.5 c 128,-1,139
 300 215 300 215 300 225 c 2,140,-1
 300 275 l 2,141,142
 300 285 300 285 307.5 292.5 c 128,-1,143
 315 300 315 300 325 300 c 2,128,-1
525 300 m 2,144,-1
 975 300 l 2,145,146
 985 300 985 300 992.5 292.5 c 128,-1,147
 1000 285 1000 285 1000 275 c 2,148,-1
 1000 225 l 2,149,150
 1000 215 1000 215 992.5 207.5 c 128,-1,151
 985 200 985 200 975 200 c 2,152,-1
 525 200 l 2,153,154
 515 200 515 200 507.5 207.5 c 128,-1,155
 500 215 500 215 500 225 c 2,156,-1
 500 275 l 2,157,158
 500 285 500 285 507.5 292.5 c 128,-1,159
 515 300 515 300 525 300 c 2,144,-1
EndSplineSet
EndChar

StartChar: uniE033
Encoding: 57395 57395 61
Width: 1200
GlyphClass: 2
Flags: W
LayerCount: 2
Fore
SplineSet
900 800 m 1,0,-1
 900 1000 l 2,1,2
 900 1083 900 1083 841.5 1141.5 c 128,-1,3
 783 1200 783 1200 700 1200 c 2,4,-1
 400 1200 l 2,5,6
 318 1200 318 1200 259 1141 c 128,-1,7
 200 1082 200 1082 200 1000 c 2,8,-1
 200 800 l 1,9,-1
 100 800 l 2,10,11
 59 800 59 800 29.5 770.5 c 128,-1,12
 0 741 0 741 0 700 c 2,13,-1
 0 100 l 2,14,15
 0 59 0 59 29.5 29.5 c 128,-1,16
 59 0 59 0 100 0 c 2,17,-1
 1000 0 l 2,18,19
 1041 0 1041 0 1070.5 29.5 c 128,-1,20
 1100 59 1100 59 1100 100 c 2,21,-1
 1100 700 l 2,22,23
 1100 741 1100 741 1070.5 770.5 c 128,-1,24
 1041 800 1041 800 1000 800 c 2,25,-1
 900 800 l 1,0,-1
400 800 m 1,26,-1
 400 950 l 2,27,28
 400 971 400 971 415 985.5 c 128,-1,29
 430 1000 430 1000 450 1000 c 2,30,-1
 650 1000 l 2,31,32
 670 1000 670 1000 685 985.5 c 128,-1,33
 700 971 700 971 700 950 c 2,34,-1
 700 800 l 1,35,-1
 400 800 l 1,26,-1
EndSplineSet
EndChar

StartChar: uniE034
Encoding: 57396 57396 62
Width: 1200
GlyphClass: 2
Flags: W
LayerCount: 2
Fore
SplineSet
125 1100 m 2,0,-1
 175 1100 l 2,1,2
 185 1100 185 1100 192.5 1092.5 c 128,-1,3
 200 1085 200 1085 200 1075 c 2,4,-1
 200 0 l 1,5,-1
 100 0 l 1,6,-1
 100 1075 l 2,7,8
 100 1085 100 1085 107.5 1092.5 c 128,-1,9
 115 1100 115 1100 125 1100 c 2,0,-1
1075 1052 m 0,10,11
 1079 1052 1079 1052 1084 1050 c 0,12,13
 1100 1044 1100 1044 1100 1027 c 2,14,-1
 1100 606 l 2,15,16
 1100 600 1100 600 1097 594 c 0,17,18
 1064 535 1064 535 1030.5 495 c 128,-1,19
 997 455 997 455 965 437 c 128,-1,20
 933 419 933 419 908.5 412.5 c 128,-1,21
 884 406 884 406 856 406 c 0,22,23
 830 406 830 406 798.5 412.5 c 128,-1,24
 767 419 767 419 746 426 c 128,-1,25
 725 433 725 433 686 447 c 0,26,27
 645 462 645 462 623 469.5 c 128,-1,28
 601 477 601 477 565.5 484.5 c 128,-1,29
 530 492 530 492 500 492 c 0,30,31
 415 492 415 492 340 435 c 0,32,33
 333 430 333 430 325 430 c 0,34,35
 319 430 319 430 314 433 c 0,36,37
 300 440 300 440 300 455 c 2,38,-1
 300 893 l 1,39,40
 322 948 322 948 382 991.5 c 128,-1,41
 442 1035 442 1035 501 1038 c 0,42,43
 524 1040 524 1040 544 1038.5 c 128,-1,44
 564 1037 564 1037 587 1031.5 c 128,-1,45
 610 1026 610 1026 619.5 1023 c 128,-1,46
 629 1020 629 1020 657.5 1010 c 128,-1,47
 686 1000 686 1000 690 999 c 0,48,49
 731 985 731 985 753.5 978 c 128,-1,50
 776 971 776 971 810.5 964 c 128,-1,51
 845 957 845 957 874 957 c 0,52,53
 977 957 977 957 1057 1044 c 0,54,55
 1064 1052 1064 1052 1075 1052 c 0,10,11
EndSplineSet
EndChar

StartChar: uniE035
Encoding: 57397 57397 63
Width: 1200
GlyphClass: 2
Flags: W
LayerCount: 2
Fore
SplineSet
600 1175 m 128,-1,1
 716 1175 716 1175 827 1125.5 c 128,-1,2
 938 1076 938 1076 1019.5 994.5 c 128,-1,3
 1101 913 1101 913 1150.5 802 c 128,-1,4
 1200 691 1200 691 1200 575 c 2,5,-1
 1200 275 l 2,6,7
 1200 265 1200 265 1192.5 257.5 c 128,-1,8
 1185 250 1185 250 1175 250 c 2,9,-1
 1125 250 l 2,10,11
 1115 250 1115 250 1107.5 257.5 c 128,-1,12
 1100 265 1100 265 1100 275 c 2,13,-1
 1100 575 l 2,14,15
 1100 702 1100 702 1029.5 806.5 c 128,-1,16
 959 911 959 911 845 968 c 128,-1,17
 731 1025 731 1025 600 1025 c 128,-1,18
 469 1025 469 1025 355 968 c 128,-1,19
 241 911 241 911 170.5 806.5 c 128,-1,20
 100 702 100 702 100 575 c 2,21,-1
 100 275 l 2,22,23
 100 265 100 265 92.5 257.5 c 128,-1,24
 85 250 85 250 75 250 c 2,25,-1
 25 250 l 2,26,27
 15 250 15 250 7.5 257.5 c 128,-1,28
 0 265 0 265 0 275 c 2,29,-1
 0 575 l 2,30,31
 0 691 0 691 49.5 802 c 128,-1,32
 99 913 99 913 180.5 994.5 c 128,-1,33
 262 1076 262 1076 373 1125.5 c 128,-1,0
 484 1175 484 1175 600 1175 c 128,-1,1
220 500 m 2,34,-1
 380 500 l 2,35,36
 388 500 388 500 394 494 c 128,-1,37
 400 488 400 488 400 480 c 2,38,-1
 400 20 l 2,39,40
 400 12 400 12 394 6 c 128,-1,41
 388 0 388 0 380 0 c 2,42,-1
 220 0 l 2,43,44
 212 0 212 0 206 6 c 128,-1,45
 200 12 200 12 200 20 c 2,46,-1
 200 480 l 2,47,48
 200 488 200 488 206 494 c 128,-1,49
 212 500 212 500 220 500 c 2,34,-1
820 500 m 2,50,-1
 980 500 l 2,51,52
 988 500 988 500 994 494 c 128,-1,53
 1000 488 1000 488 1000 480 c 2,54,-1
 1000 20 l 2,55,56
 1000 12 1000 12 994 6 c 128,-1,57
 988 0 988 0 980 0 c 2,58,-1
 820 0 l 2,59,60
 812 0 812 0 806 6 c 128,-1,61
 800 12 800 12 800 20 c 2,62,-1
 800 480 l 2,63,64
 800 488 800 488 806 494 c 128,-1,65
 812 500 812 500 820 500 c 2,50,-1
EndSplineSet
EndChar

StartChar: uniE036
Encoding: 57398 57398 64
Width: 1200
GlyphClass: 2
Flags: W
LayerCount: 2
Fore
SplineSet
321 814 m 2,0,-1
 579 986 l 2,1,2
 588 992 588 992 594 988.5 c 128,-1,3
 600 985 600 985 600 975 c 2,4,-1
 600 225 l 2,5,6
 600 215 600 215 594 211.5 c 128,-1,7
 588 208 588 208 579 214 c 2,8,-1
 321 386 l 2,9,10
 300 400 300 400 275 400 c 2,11,-1
 25 400 l 2,12,13
 15 400 15 400 7.5 407.5 c 128,-1,14
 0 415 0 415 0 425 c 2,15,-1
 0 775 l 2,16,17
 0 785 0 785 7.5 792.5 c 128,-1,18
 15 800 15 800 25 800 c 2,19,-1
 275 800 l 2,20,21
 300 800 300 800 321 814 c 2,0,-1
900 668 m 1,22,-1
 1020 788 l 2,23,24
 1027 795 1027 795 1037 795 c 128,-1,25
 1047 795 1047 795 1054 788 c 2,26,-1
 1088 754 l 2,27,28
 1095 747 1095 747 1095 737 c 128,-1,29
 1095 727 1095 727 1088 720 c 2,30,-1
 968 600 l 1,31,-1
 1088 480 l 2,32,33
 1095 473 1095 473 1095 463 c 128,-1,34
 1095 453 1095 453 1088 446 c 2,35,-1
 1054 412 l 2,36,37
 1047 405 1047 405 1037 405 c 128,-1,38
 1027 405 1027 405 1020 412 c 2,39,-1
 900 531 l 1,40,-1
 780 412 l 2,41,42
 773 405 773 405 763 405 c 128,-1,43
 753 405 753 405 746 412 c 2,44,-1
 712 446 l 2,45,46
 705 453 705 453 705 463 c 128,-1,47
 705 473 705 473 712 480 c 2,48,-1
 831 600 l 1,49,-1
 712 720 l 2,50,51
 705 727 705 727 705 737 c 128,-1,52
 705 747 705 747 712 754 c 2,53,-1
 746 788 l 2,54,55
 753 796 753 796 763 796 c 128,-1,56
 773 796 773 796 780 788 c 2,57,-1
 900 668 l 1,22,-1
EndSplineSet
EndChar

StartChar: uniE037
Encoding: 57399 57399 65
Width: 1200
GlyphClass: 2
Flags: W
LayerCount: 2
Fore
SplineSet
321 814 m 2,0,-1
 579 986 l 2,1,2
 588 992 588 992 594 988.5 c 128,-1,3
 600 985 600 985 600 975 c 2,4,-1
 600 225 l 2,5,6
 600 215 600 215 594 211.5 c 128,-1,7
 588 208 588 208 579 214 c 2,8,-1
 321 386 l 2,9,10
 300 400 300 400 275 400 c 2,11,-1
 25 400 l 2,12,13
 15 400 15 400 7.5 407.5 c 128,-1,14
 0 415 0 415 0 425 c 2,15,-1
 0 775 l 2,16,17
 0 785 0 785 7.5 792.5 c 128,-1,18
 15 800 15 800 25 800 c 2,19,-1
 275 800 l 2,20,21
 300 800 300 800 321 814 c 2,0,-1
766 900 m 2,22,-1
 770 900 l 2,23,24
 780 899 780 899 786 890 c 0,25,26
 882 761 882 761 882 600 c 0,27,28
 882 446 882 446 792 319 c 0,29,30
 786 310 786 310 775 309 c 2,31,-1
 772 308 l 2,32,33
 763 308 763 308 756 314 c 2,34,-1
 727 337 l 2,35,36
 720 344 720 344 718.5 353.5 c 128,-1,37
 717 363 717 363 723 371 c 0,38,39
 795 474 795 474 795 600 c 0,40,41
 795 732 795 732 717 838 c 0,42,43
 711 846 711 846 712.5 856 c 128,-1,44
 714 866 714 866 722 873 c 2,45,-1
 751 895 l 2,46,47
 758 900 758 900 766 900 c 2,22,-1
EndSplineSet
EndChar

StartChar: uniE038
Encoding: 57400 57400 66
Width: 1200
GlyphClass: 2
Flags: W
LayerCount: 2
Fore
SplineSet
967 1004 m 2,0,-1
 970 1004 l 2,1,2
 981 1003 981 1003 987 994 c 0,3,4
 1122 815 1122 815 1122 598 c 0,5,6
 1122 493 1122 493 1088 391.5 c 128,-1,7
 1054 290 1054 290 990 206 c 0,8,9
 983 197 983 197 973 196 c 2,10,-1
 970 196 l 2,11,12
 961 196 961 196 954 202 c 2,13,-1
 912 236 l 2,14,15
 904 242 904 242 903 252 c 128,-1,16
 902 262 902 262 908 270 c 0,17,18
 1019 420 1019 420 1019 598 c 0,19,20
 1019 688 1019 688 989.5 774 c 128,-1,21
 960 860 960 860 905 931 c 0,22,23
 899 940 899 940 900 950 c 128,-1,24
 901 960 901 960 910 966 c 2,25,-1
 952 999 l 2,26,27
 959 1004 959 1004 967 1004 c 2,0,-1
321 814 m 2,28,-1
 579 986 l 2,29,30
 588 992 588 992 594 988.5 c 128,-1,31
 600 985 600 985 600 975 c 2,32,-1
 600 225 l 2,33,34
 600 215 600 215 594 211.5 c 128,-1,35
 588 208 588 208 579 214 c 2,36,-1
 321 386 l 2,37,38
 300 400 300 400 275 400 c 2,39,-1
 25 400 l 2,40,41
 15 400 15 400 7.5 407.5 c 128,-1,42
 0 415 0 415 0 425 c 2,43,-1
 0 775 l 2,44,45
 0 785 0 785 7.5 792.5 c 128,-1,46
 15 800 15 800 25 800 c 2,47,-1
 275 800 l 2,48,49
 300 800 300 800 321 814 c 2,28,-1
766 900 m 2,50,-1
 770 900 l 2,51,52
 780 899 780 899 786 890 c 0,53,54
 882 761 882 761 882 600 c 0,55,56
 882 446 882 446 792 319 c 0,57,58
 786 310 786 310 775 309 c 2,59,-1
 772 308 l 2,60,61
 763 308 763 308 756 314 c 2,62,-1
 727 337 l 2,63,64
 720 344 720 344 718.5 353.5 c 128,-1,65
 717 363 717 363 723 371 c 0,66,67
 795 474 795 474 795 600 c 0,68,69
 795 732 795 732 717 838 c 0,70,71
 711 846 711 846 712.5 856.5 c 128,-1,72
 714 867 714 867 722 873 c 2,73,-1
 751 895 l 2,74,75
 758 900 758 900 766 900 c 2,50,-1
EndSplineSet
EndChar

StartChar: uniE039
Encoding: 57401 57401 67
Width: 1200
GlyphClass: 2
Flags: W
LayerCount: 2
Fore
SplineSet
500 900 m 1,0,-1
 600 900 l 1,1,-1
 600 800 l 1,2,-1
 500 800 l 1,3,-1
 500 700 l 1,4,-1
 100 700 l 1,5,-1
 100 600 l 1,6,-1
 0 600 l 1,7,-1
 0 1200 l 1,8,-1
 500 1200 l 1,9,-1
 500 900 l 1,0,-1
1200 700 m 1,10,-1
 1000 700 l 1,11,-1
 1000 600 l 1,12,-1
 1200 600 l 1,13,-1
 1200 400 l 1,14,-1
 900 400 l 1,15,-1
 900 700 l 1,16,-1
 700 700 l 1,17,-1
 700 1000 l 1,18,-1
 600 1000 l 1,19,-1
 600 1200 l 1,20,-1
 1200 1200 l 1,21,-1
 1200 700 l 1,10,-1
100 1100 m 1,22,-1
 100 800 l 1,23,-1
 400 800 l 1,24,-1
 400 1100 l 1,25,-1
 100 1100 l 1,22,-1
800 1100 m 1,26,-1
 800 800 l 1,27,-1
 1100 800 l 1,28,-1
 1100 1100 l 1,29,-1
 800 1100 l 1,26,-1
300 900 m 1,30,-1
 200 900 l 1,31,-1
 200 1000 l 1,32,-1
 300 1000 l 1,33,-1
 300 900 l 1,30,-1
1000 900 m 1,34,-1
 900 900 l 1,35,-1
 900 1000 l 1,36,-1
 1000 1000 l 1,37,-1
 1000 900 l 1,34,-1
300 500 m 1,38,-1
 500 500 l 1,39,-1
 500 0 l 1,40,-1
 0 0 l 1,41,-1
 0 500 l 1,42,-1
 200 500 l 1,43,-1
 200 600 l 1,44,-1
 300 600 l 1,45,-1
 300 500 l 1,38,-1
800 300 m 1,46,-1
 1000 300 l 1,47,-1
 1000 200 l 1,48,-1
 900 200 l 1,49,-1
 900 100 l 1,50,-1
 700 100 l 1,51,-1
 700 200 l 1,52,-1
 600 200 l 1,53,-1
 600 300 l 1,54,-1
 700 300 l 1,55,-1
 700 500 l 1,56,-1
 500 500 l 1,57,-1
 500 600 l 1,58,-1
 800 600 l 1,59,-1
 800 300 l 1,46,-1
100 400 m 1,60,-1
 100 100 l 1,61,-1
 400 100 l 1,62,-1
 400 400 l 1,63,-1
 100 400 l 1,60,-1
300 200 m 1,64,-1
 200 200 l 1,65,-1
 200 300 l 1,66,-1
 300 300 l 1,67,-1
 300 200 l 1,64,-1
1200 200 m 1,68,-1
 1100 200 l 1,69,-1
 1100 300 l 1,70,-1
 1200 300 l 1,71,-1
 1200 200 l 1,68,-1
700 0 m 1,72,-1
 600 0 l 1,73,-1
 600 100 l 1,74,-1
 700 100 l 1,75,-1
 700 0 l 1,72,-1
1200 0 m 1,76,-1
 900 0 l 1,77,-1
 900 100 l 1,78,-1
 1200 100 l 1,79,-1
 1200 0 l 1,76,-1
EndSplineSet
EndChar

StartChar: uniE040
Encoding: 57408 57408 68
Width: 1200
GlyphClass: 2
Flags: W
LayerCount: 2
Fore
SplineSet
100 200 m 1,0,-1
 0 200 l 1,1,-1
 0 1200 l 1,2,-1
 100 1200 l 1,3,-1
 100 200 l 1,0,-1
300 200 m 1,4,-1
 200 200 l 1,5,-1
 200 1200 l 1,6,-1
 300 1200 l 1,7,-1
 300 200 l 1,4,-1
700 200 m 1,8,-1
 500 200 l 1,9,-1
 500 1200 l 1,10,-1
 700 1200 l 1,11,-1
 700 200 l 1,8,-1
900 200 m 1,12,-1
 800 200 l 1,13,-1
 800 1200 l 1,14,-1
 900 1200 l 1,15,-1
 900 200 l 1,12,-1
1200 200 m 1,16,-1
 1000 200 l 1,17,-1
 1000 1200 l 1,18,-1
 1200 1200 l 1,19,-1
 1200 200 l 1,16,-1
400 0 m 1,20,-1
 100 0 l 1,21,-1
 100 100 l 1,22,-1
 400 100 l 1,23,-1
 400 0 l 1,20,-1
600 0 m 1,24,-1
 500 0 l 1,25,-1
 500 91 l 1,26,-1
 600 91 l 1,27,-1
 600 0 l 1,24,-1
800 0 m 1,28,-1
 700 0 l 1,29,-1
 700 91 l 1,30,-1
 800 91 l 1,31,-1
 800 0 l 1,28,-1
1100 0 m 1,32,-1
 900 0 l 1,33,-1
 900 91 l 1,34,-1
 1100 91 l 1,35,-1
 1100 0 l 1,32,-1
EndSplineSet
EndChar

StartChar: uniE041
Encoding: 57409 57409 69
Width: 1200
GlyphClass: 2
Flags: W
LayerCount: 2
Fore
SplineSet
500 1200 m 1,0,-1
 1182 518 l 2,1,2
 1190 510 1190 510 1190 500 c 128,-1,3
 1190 490 1190 490 1182 482 c 2,4,-1
 718 18 l 2,5,6
 710 10 710 10 700 10 c 128,-1,7
 690 10 690 10 682 18 c 2,8,-1
 0 700 l 1,9,-1
 1 1175 l 2,10,11
 1 1185 1 1185 8.5 1192.5 c 128,-1,12
 16 1200 16 1200 26 1200 c 2,13,-1
 500 1200 l 1,0,-1
319.5 1024.5 m 128,-1,15
 290 1054 290 1054 248.5 1054 c 128,-1,16
 207 1054 207 1054 177.5 1024.5 c 128,-1,17
 148 995 148 995 148 953 c 128,-1,18
 148 911 148 911 177.5 881.5 c 128,-1,19
 207 852 207 852 248.5 852 c 128,-1,20
 290 852 290 852 319.5 881.5 c 128,-1,21
 349 911 349 911 349 953 c 128,-1,14
 349 995 349 995 319.5 1024.5 c 128,-1,15
EndSplineSet
EndChar

StartChar: uniE042
Encoding: 57410 57410 70
Width: 1200
GlyphClass: 2
Flags: W
LayerCount: 2
Fore
SplineSet
500 1200 m 1,0,-1
 1182 518 l 2,1,2
 1190 510 1190 510 1190 500 c 128,-1,3
 1190 490 1190 490 1182 482 c 2,4,-1
 718 18 l 2,5,6
 710 10 710 10 700 10 c 128,-1,7
 690 10 690 10 682 18 c 2,8,-1
 0 700 l 1,9,-1
 1 1175 l 2,10,11
 1 1185 1 1185 8.5 1192.5 c 128,-1,12
 16 1200 16 1200 26 1200 c 2,13,-1
 500 1200 l 1,0,-1
800 1200 m 1,14,-1
 1482 518 l 2,15,16
 1490 510 1490 510 1490 500 c 128,-1,17
 1490 490 1490 490 1482 482 c 2,18,-1
 1018 18 l 2,19,20
 1010 10 1010 10 1000 10 c 128,-1,21
 990 10 990 10 982 18 c 2,22,-1
 926 74 l 1,23,-1
 1350 500 l 1,24,-1
 650 1200 l 1,25,-1
 800 1200 l 1,14,-1
319.5 1024.5 m 128,-1,27
 290 1054 290 1054 248.5 1054 c 128,-1,28
 207 1054 207 1054 177.5 1024.5 c 128,-1,29
 148 995 148 995 148 953 c 128,-1,30
 148 911 148 911 177.5 881.5 c 128,-1,31
 207 852 207 852 248.5 852 c 128,-1,32
 290 852 290 852 319.5 881.5 c 128,-1,33
 349 911 349 911 349 953 c 128,-1,26
 349 995 349 995 319.5 1024.5 c 128,-1,27
EndSplineSet
EndChar

StartChar: uniE043
Encoding: 57411 57411 71
Width: 1200
GlyphClass: 2
Flags: W
LayerCount: 2
Fore
SplineSet
300 1200 m 2,0,-1
 1125 1200 l 2,1,2
 1200 1200 1200 1200 1200 1125 c 2,3,-1
 1200 225 l 2,4,5
 1200 200 1200 200 1182 182 c 2,6,-1
 1118 118 l 2,7,8
 1110 110 1110 110 1105 112.5 c 128,-1,9
 1100 115 1100 115 1100 125 c 2,10,-1
 1100 1075 l 2,11,12
 1100 1085 1100 1085 1092.5 1092.5 c 128,-1,13
 1085 1100 1085 1100 1075 1100 c 2,14,-1
 375 1100 l 2,15,16
 350 1100 350 1100 332 1082 c 2,17,-1
 268 1018 l 2,18,19
 260 1010 260 1010 262.5 1005 c 128,-1,20
 265 1000 265 1000 275 1000 c 2,21,-1
 975 1000 l 2,22,23
 985 1000 985 1000 992.5 992.5 c 128,-1,24
 1000 985 1000 985 1000 975 c 2,25,-1
 1000 25 l 2,26,27
 1000 15 1000 15 992.5 7.5 c 128,-1,28
 985 0 985 0 975 0 c 2,29,-1
 125 0 l 2,30,31
 115 0 115 0 107.5 7.5 c 128,-1,32
 100 15 100 15 100 25 c 2,33,-1
 100 1000 l 2,34,35
 100 1025 100 1025 118 1043 c 2,36,-1
 257 1182 l 2,37,38
 275 1200 275 1200 300 1200 c 2,0,-1
EndSplineSet
EndChar

StartChar: uniE044
Encoding: 57412 57412 72
Width: 1200
GlyphClass: 2
Flags: W
LayerCount: 2
Fore
SplineSet
250 1200 m 2,0,-1
 1050 1200 l 2,1,2
 1071 1200 1071 1200 1085.5 1185.5 c 128,-1,3
 1100 1171 1100 1171 1100 1150 c 2,4,-1
 1100 0 l 1,5,-1
 650 444 l 1,6,-1
 200 -1 l 1,7,-1
 200 1150 l 2,8,9
 200 1171 200 1171 214.5 1185.5 c 128,-1,10
 229 1200 229 1200 250 1200 c 2,0,-1
EndSplineSet
EndChar

StartChar: uniE045
Encoding: 57413 57413 73
Width: 1200
GlyphClass: 2
Flags: W
LayerCount: 2
Fore
SplineSet
822 1200 m 2,0,-1
 378 1200 l 2,1,2
 367 1200 367 1200 359 1192.5 c 128,-1,3
 351 1185 351 1185 350 1175 c 2,4,-1
 272 874 l 2,5,6
 265 850 265 850 279 829 c 2,7,-1
 336 721 l 2,8,9
 342 712 342 712 353.5 706 c 128,-1,10
 365 700 365 700 375 700 c 2,11,-1
 825 700 l 2,12,13
 835 700 835 700 846.5 706 c 128,-1,14
 858 712 858 712 864 721 c 2,15,-1
 926 829 l 2,16,17
 940 850 940 850 933 874 c 2,18,-1
 850 1175 l 2,19,20
 849 1185 849 1185 841 1192.5 c 128,-1,21
 833 1200 833 1200 822 1200 c 2,0,-1
1175 800 m 2,22,-1
 1025 800 l 2,23,24
 1015 800 1015 800 1004 793.5 c 128,-1,25
 993 787 993 787 989 778 c 2,26,-1
 911 622 l 2,27,28
 907 613 907 613 896 606.5 c 128,-1,29
 885 600 885 600 875 600 c 2,30,-1
 325 600 l 2,31,32
 315 600 315 600 304 606.5 c 128,-1,33
 293 613 293 613 289 622 c 2,34,-1
 211 778 l 2,35,36
 207 787 207 787 196 793.5 c 128,-1,37
 185 800 185 800 175 800 c 2,38,-1
 25 800 l 2,39,40
 15 800 15 800 7.5 792.5 c 128,-1,41
 0 785 0 785 0 775 c 2,42,-1
 0 125 l 2,43,44
 0 115 0 115 7.5 107.5 c 128,-1,45
 15 100 15 100 25 100 c 2,46,-1
 175 100 l 2,47,48
 185 100 185 100 192.5 107.5 c 128,-1,49
 200 115 200 115 200 125 c 2,50,-1
 200 275 l 2,51,52
 200 285 200 285 207.5 292.5 c 128,-1,53
 215 300 215 300 225 300 c 2,54,-1
 975 300 l 2,55,56
 985 300 985 300 992.5 292.5 c 128,-1,57
 1000 285 1000 285 1000 275 c 2,58,-1
 1000 125 l 2,59,60
 1000 115 1000 115 1007.5 107.5 c 128,-1,61
 1015 100 1015 100 1025 100 c 2,62,-1
 1175 100 l 2,63,64
 1185 100 1185 100 1192.5 107.5 c 128,-1,65
 1200 115 1200 115 1200 125 c 2,66,-1
 1200 775 l 2,67,68
 1200 785 1200 785 1192.5 792.5 c 128,-1,69
 1185 800 1185 800 1175 800 c 2,22,-1
850 200 m 2,70,-1
 350 200 l 2,71,72
 340 200 340 200 330.5 193 c 128,-1,73
 321 186 321 186 319 176 c 2,74,-1
 281 24 l 2,75,76
 279 14 279 14 284.5 7 c 128,-1,77
 290 0 290 0 300 0 c 2,78,-1
 900 0 l 2,79,80
 910 0 910 0 915.5 7 c 128,-1,81
 921 14 921 14 919 24 c 2,82,-1
 881 176 l 2,83,84
 879 186 879 186 869.5 193 c 128,-1,85
 860 200 860 200 850 200 c 2,70,-1
EndSplineSet
EndChar

StartChar: uniE046
Encoding: 57414 57414 74
Width: 1200
GlyphClass: 2
Flags: W
LayerCount: 2
Fore
SplineSet
500 1100 m 2,0,-1
 700 1100 l 2,1,2
 756 1100 756 1100 802.5 1079.5 c 128,-1,3
 849 1059 849 1059 875 1029.5 c 128,-1,4
 901 1000 901 1000 919 970.5 c 128,-1,5
 937 941 937 941 944 920 c 2,6,-1
 950 900 l 1,7,-1
 1100 900 l 2,8,9
 1141 900 1141 900 1170.5 870.5 c 128,-1,10
 1200 841 1200 841 1200 800 c 2,11,-1
 1200 200 l 2,12,13
 1200 159 1200 159 1170.5 129.5 c 128,-1,14
 1141 100 1141 100 1100 100 c 2,15,-1
 100 100 l 2,16,17
 59 100 59 100 29.5 129.5 c 128,-1,18
 0 159 0 159 0 200 c 2,19,-1
 0 800 l 2,20,21
 0 841 0 841 29.5 870.5 c 128,-1,22
 59 900 59 900 100 900 c 2,23,-1
 250 900 l 1,24,25
 252 908 252 908 256.5 921.5 c 128,-1,26
 261 935 261 935 280.5 969.5 c 128,-1,27
 300 1004 300 1004 325.5 1030.5 c 128,-1,28
 351 1057 351 1057 397.5 1078.5 c 128,-1,29
 444 1100 444 1100 500 1100 c 2,0,-1
900 800 m 1,30,-1
 900 700 l 1,31,-1
 1000 700 l 1,32,-1
 1000 800 l 1,33,-1
 900 800 l 1,30,-1
600 730 m 128,-1,35
 505 730 505 730 437.5 662.5 c 128,-1,36
 370 595 370 595 370 500 c 128,-1,37
 370 405 370 405 437.5 337.5 c 128,-1,38
 505 270 505 270 600 270 c 128,-1,39
 695 270 695 270 762.5 337.5 c 128,-1,40
 830 405 830 405 830 500 c 128,-1,41
 830 595 830 595 762.5 662.5 c 128,-1,34
 695 730 695 730 600 730 c 128,-1,35
600 603 m 128,-1,43
 643 603 643 603 673 573 c 128,-1,44
 703 543 703 543 703 500 c 128,-1,45
 703 457 703 457 673 427 c 128,-1,46
 643 397 643 397 600 397 c 128,-1,47
 557 397 557 397 527 427 c 128,-1,48
 497 457 497 457 497 500 c 128,-1,49
 497 543 497 543 527 573 c 128,-1,42
 557 603 557 603 600 603 c 128,-1,43
EndSplineSet
EndChar

StartChar: uniE047
Encoding: 57415 57415 75
Width: 1200
GlyphClass: 2
Flags: W
LayerCount: 2
Fore
SplineSet
681 1199 m 1,0,-1
 1066 201 l 2,1,2
 1086 151 1086 151 1126 109 c 0,3,4
 1144 90 1144 90 1162.5 79.5 c 128,-1,5
 1181 69 1181 69 1190 68 c 2,6,-1
 1200 66 l 1,7,-1
 1200 0 l 1,8,-1
 783 0 l 1,9,-1
 783 66 l 1,10,11
 836 66 836 66 858 109.5 c 128,-1,12
 880 153 880 153 863 198 c 2,13,-1
 781 420 l 1,14,-1
 390 420 l 1,15,16
 332 275 332 275 298 186 c 0,17,18
 287 152 287 152 291.5 129 c 128,-1,19
 296 106 296 106 317 92 c 128,-1,20
 338 78 338 78 363 72 c 128,-1,21
 388 66 388 66 418 66 c 1,22,-1
 418 0 l 1,23,-1
 53 0 l 1,24,-1
 53 66 l 1,25,26
 109 90 109 90 137 118 c 0,27,28
 149 130 149 130 162 148.5 c 128,-1,29
 175 167 175 167 182 180 c 2,30,-1
 189 193 l 1,31,-1
 588 1199 l 1,32,-1
 681 1199 l 1,0,-1
416 521 m 1,33,-1
 756 521 l 1,34,-1
 594 978 l 1,35,-1
 416 521 l 1,33,-1
EndSplineSet
EndChar

StartChar: uniE048
Encoding: 57416 57416 76
Width: 1200
GlyphClass: 2
Flags: W
LayerCount: 2
Fore
SplineSet
753 641 m 2,0,1
 758 640 758 640 767.5 636.5 c 128,-1,2
 777 633 777 633 803.5 621 c 128,-1,3
 830 609 830 609 854 594.5 c 128,-1,4
 878 580 878 580 907.5 554.5 c 128,-1,5
 937 529 937 529 958 500 c 128,-1,6
 979 471 979 471 993.5 430 c 128,-1,7
 1008 389 1008 389 1008 343 c 0,8,9
 1008 276 1008 276 980.5 217.5 c 128,-1,10
 953 159 953 159 909 120 c 128,-1,11
 865 81 865 81 810.5 53.5 c 128,-1,12
 756 26 756 26 702 13 c 128,-1,13
 648 0 648 0 600 0 c 2,14,-1
 100 0 l 1,15,-1
 100 89 l 1,16,17
 141 96 141 96 170.5 121.5 c 128,-1,18
 200 147 200 147 200 187 c 2,19,-1
 200 1014 l 2,20,21
 200 1038 200 1038 199.5 1048 c 128,-1,22
 199 1058 199 1058 196 1072 c 128,-1,23
 193 1086 193 1086 187.5 1091.5 c 128,-1,24
 182 1097 182 1097 170.5 1105 c 128,-1,25
 159 1113 159 1113 142.5 1117.5 c 128,-1,26
 126 1122 126 1122 100 1129 c 1,27,-1
 100 1200 l 1,28,-1
 571 1199 l 2,29,30
 628 1199 628 1199 686.5 1178.5 c 128,-1,31
 745 1158 745 1158 794.5 1121.5 c 128,-1,32
 844 1085 844 1085 875 1027.5 c 128,-1,33
 906 970 906 970 906 903 c 0,34,35
 906 852 906 852 890.5 806.5 c 128,-1,36
 875 761 875 761 852.5 732 c 128,-1,37
 830 703 830 703 807.5 681.5 c 128,-1,38
 785 660 785 660 769 651 c 2,39,-1
 753 641 l 2,0,1
400 700 m 1,40,-1
 539 700 l 2,41,42
 617 700 617 700 669.5 748.5 c 128,-1,43
 722 797 722 797 722 871 c 0,44,45
 722 912 722 912 713.5 941.5 c 128,-1,46
 705 971 705 971 684 997 c 128,-1,47
 663 1023 663 1023 621.5 1036.5 c 128,-1,48
 580 1050 580 1050 518 1050 c 2,49,-1
 400 1050 l 1,50,-1
 400 700 l 1,40,-1
400 200 m 1,51,-1
 616 200 l 2,52,53
 696 200 696 200 737 250.5 c 128,-1,54
 778 301 778 301 778 381 c 0,55,56
 778 471 778 471 715.5 535.5 c 128,-1,57
 653 600 653 600 559 600 c 2,58,-1
 400 600 l 1,59,-1
 400 200 l 1,51,-1
EndSplineSet
EndChar

StartChar: uniE049
Encoding: 57417 57417 77
Width: 1200
GlyphClass: 2
Flags: W
LayerCount: 2
Fore
SplineSet
877 1200 m 1,0,-1
 879 1143 l 1,1,2
 796 1124 796 1124 763 1097.5 c 128,-1,3
 730 1071 730 1071 723 1031 c 2,4,-1
 591 192 l 2,5,6
 582 143 582 143 604 123 c 128,-1,7
 626 103 626 103 700 97 c 1,8,-1
 700 0 l 1,9,-1
 200 0 l 1,10,-1
 200 97 l 1,11,12
 386 113 386 113 400 195 c 2,13,-1
 573 1027 l 2,14,15
 576 1044 576 1044 576 1057 c 128,-1,16
 576 1070 576 1070 574.5 1079.5 c 128,-1,17
 573 1089 573 1089 565.5 1097 c 128,-1,18
 558 1105 558 1105 552 1109.5 c 128,-1,19
 546 1114 546 1114 530.5 1119.5 c 128,-1,20
 515 1125 515 1125 504.5 1128 c 128,-1,21
 494 1131 494 1131 471 1138 c 0,22,23
 458 1141 458 1141 452 1143 c 1,24,-1
 452 1200 l 1,25,-1
 877 1200 l 1,0,-1
EndSplineSet
EndChar

StartChar: uniE050
Encoding: 57424 57424 78
Width: 1200
GlyphClass: 2
Flags: W
LayerCount: 2
Fore
SplineSet
1300 900 m 1,0,-1
 1250 900 l 1,1,2
 1250 921 1250 921 1246 937 c 128,-1,3
 1242 953 1242 953 1236.5 963.5 c 128,-1,4
 1231 974 1231 974 1218.5 981 c 128,-1,5
 1206 988 1206 988 1196.5 992 c 128,-1,6
 1187 996 1187 996 1168 997.5 c 128,-1,7
 1149 999 1149 999 1137 999.5 c 128,-1,8
 1125 1000 1125 1000 1100 1000 c 2,9,-1
 900 1000 l 1,10,-1
 900 150 l 2,11,12
 900 128 900 128 925 115.5 c 128,-1,13
 950 103 950 103 975 102 c 2,14,-1
 1000 100 l 1,15,-1
 1000 0 l 1,16,-1
 600 0 l 1,17,-1
 600 100 l 1,18,19
 604 100 604 100 611 100.5 c 128,-1,20
 618 101 618 101 635 103.5 c 128,-1,21
 652 106 652 106 665 110.5 c 128,-1,22
 678 115 678 115 689 125.5 c 128,-1,23
 700 136 700 136 700 150 c 2,24,-1
 700 1000 l 1,25,-1
 500 1000 l 2,26,27
 475 1000 475 1000 463 999.5 c 128,-1,28
 451 999 451 999 432 997.5 c 128,-1,29
 413 996 413 996 403.5 992 c 128,-1,30
 394 988 394 988 381.5 981 c 128,-1,31
 369 974 369 974 363.5 963.5 c 128,-1,32
 358 953 358 953 354 937 c 128,-1,33
 350 921 350 921 350 900 c 1,34,-1
 300 900 l 1,35,-1
 300 1200 l 1,36,-1
 1300 1200 l 1,37,-1
 1300 900 l 1,0,-1
175 1000 m 1,38,-1
 100 1000 l 1,39,-1
 100 200 l 1,40,-1
 175 200 l 1,41,-1
 50 33 l 1,42,-1
 -75 200 l 1,43,-1
 0 200 l 1,44,-1
 0 1000 l 1,45,-1
 -75 1000 l 1,46,-1
 50 1167 l 1,47,-1
 175 1000 l 1,38,-1
EndSplineSet
EndChar

StartChar: uniE051
Encoding: 57425 57425 79
Width: 1200
GlyphClass: 2
Flags: W
LayerCount: 2
Fore
SplineSet
1100 900 m 1,0,-1
 1050 900 l 1,1,2
 1050 921 1050 921 1046 937 c 128,-1,3
 1042 953 1042 953 1036.5 963.5 c 128,-1,4
 1031 974 1031 974 1018.5 981 c 128,-1,5
 1006 988 1006 988 996.5 992 c 128,-1,6
 987 996 987 996 968 997.5 c 128,-1,7
 949 999 949 999 937 999.5 c 128,-1,8
 925 1000 925 1000 900 1000 c 2,9,-1
 700 1000 l 1,10,-1
 700 350 l 2,11,12
 700 328 700 328 725 315.5 c 128,-1,13
 750 303 750 303 775 302 c 2,14,-1
 800 300 l 1,15,-1
 800 200 l 1,16,-1
 400 200 l 1,17,-1
 400 300 l 1,18,19
 404 300 404 300 411 300.5 c 128,-1,20
 418 301 418 301 435 303.5 c 128,-1,21
 452 306 452 306 465 310.5 c 128,-1,22
 478 315 478 315 489 325.5 c 128,-1,23
 500 336 500 336 500 350 c 2,24,-1
 500 1000 l 1,25,-1
 300 1000 l 2,26,27
 275 1000 275 1000 263 999.5 c 128,-1,28
 251 999 251 999 232 997.5 c 128,-1,29
 213 996 213 996 203.5 992 c 128,-1,30
 194 988 194 988 181.5 981 c 128,-1,31
 169 974 169 974 163.5 963.5 c 128,-1,32
 158 953 158 953 154 937 c 128,-1,33
 150 921 150 921 150 900 c 1,34,-1
 100 900 l 1,35,-1
 100 1200 l 1,36,-1
 1100 1200 l 1,37,-1
 1100 900 l 1,0,-1
1167 50 m 1,38,-1
 1000 -75 l 1,39,-1
 1000 0 l 1,40,-1
 200 0 l 1,41,-1
 200 -75 l 1,42,-1
 33 50 l 1,43,-1
 200 175 l 1,44,-1
 200 100 l 1,45,-1
 1000 100 l 1,46,-1
 1000 175 l 1,47,-1
 1167 50 l 1,38,-1
EndSplineSet
EndChar

StartChar: uniE052
Encoding: 57426 57426 80
Width: 1200
GlyphClass: 2
Flags: W
LayerCount: 2
Fore
SplineSet
50 1100 m 2,0,-1
 650 1100 l 2,1,2
 671 1100 671 1100 685.5 1085.5 c 128,-1,3
 700 1071 700 1071 700 1050 c 2,4,-1
 700 950 l 2,5,6
 700 929 700 929 685.5 914.5 c 128,-1,7
 671 900 671 900 650 900 c 2,8,-1
 50 900 l 2,9,10
 29 900 29 900 14.5 914.5 c 128,-1,11
 0 929 0 929 0 950 c 2,12,-1
 0 1050 l 2,13,14
 0 1071 0 1071 14.5 1085.5 c 128,-1,15
 29 1100 29 1100 50 1100 c 2,0,-1
50 800 m 2,16,-1
 1050 800 l 2,17,18
 1071 800 1071 800 1085.5 785.5 c 128,-1,19
 1100 771 1100 771 1100 750 c 2,20,-1
 1100 650 l 2,21,22
 1100 629 1100 629 1085.5 614.5 c 128,-1,23
 1071 600 1071 600 1050 600 c 2,24,-1
 50 600 l 2,25,26
 29 600 29 600 14.5 614.5 c 128,-1,27
 0 629 0 629 0 650 c 2,28,-1
 0 750 l 2,29,30
 0 771 0 771 14.5 785.5 c 128,-1,31
 29 800 29 800 50 800 c 2,16,-1
50 500 m 2,32,-1
 850 500 l 2,33,34
 871 500 871 500 885.5 485.5 c 128,-1,35
 900 471 900 471 900 450 c 2,36,-1
 900 350 l 2,37,38
 900 329 900 329 885.5 314.5 c 128,-1,39
 871 300 871 300 850 300 c 2,40,-1
 50 300 l 2,41,42
 29 300 29 300 14.5 314.5 c 128,-1,43
 0 329 0 329 0 350 c 2,44,-1
 0 450 l 2,45,46
 0 471 0 471 14.5 485.5 c 128,-1,47
 29 500 29 500 50 500 c 2,32,-1
50 200 m 2,48,-1
 1150 200 l 2,49,50
 1171 200 1171 200 1185.5 185.5 c 128,-1,51
 1200 171 1200 171 1200 150 c 2,52,-1
 1200 50 l 2,53,54
 1200 29 1200 29 1185.5 14.5 c 128,-1,55
 1171 0 1171 0 1150 0 c 2,56,-1
 50 0 l 2,57,58
 29 0 29 0 14.5 14.5 c 128,-1,59
 0 29 0 29 0 50 c 2,60,-1
 0 150 l 2,61,62
 0 171 0 171 14.5 185.5 c 128,-1,63
 29 200 29 200 50 200 c 2,48,-1
EndSplineSet
EndChar

StartChar: uniE053
Encoding: 57427 57427 81
Width: 1200
GlyphClass: 2
Flags: W
LayerCount: 2
Fore
SplineSet
250 1100 m 2,0,-1
 950 1100 l 2,1,2
 971 1100 971 1100 985.5 1085.5 c 128,-1,3
 1000 1071 1000 1071 1000 1050 c 2,4,-1
 1000 950 l 2,5,6
 1000 929 1000 929 985.5 914.5 c 128,-1,7
 971 900 971 900 950 900 c 2,8,-1
 250 900 l 2,9,10
 229 900 229 900 214.5 914.5 c 128,-1,11
 200 929 200 929 200 950 c 2,12,-1
 200 1050 l 2,13,14
 200 1071 200 1071 214.5 1085.5 c 128,-1,15
 229 1100 229 1100 250 1100 c 2,0,-1
50 800 m 2,16,-1
 1150 800 l 2,17,18
 1171 800 1171 800 1185.5 785.5 c 128,-1,19
 1200 771 1200 771 1200 750 c 2,20,-1
 1200 650 l 2,21,22
 1200 629 1200 629 1185.5 614.5 c 128,-1,23
 1171 600 1171 600 1150 600 c 2,24,-1
 50 600 l 2,25,26
 29 600 29 600 14.5 614.5 c 128,-1,27
 0 629 0 629 0 650 c 2,28,-1
 0 750 l 2,29,30
 0 771 0 771 14.5 785.5 c 128,-1,31
 29 800 29 800 50 800 c 2,16,-1
250 500 m 2,32,-1
 950 500 l 2,33,34
 971 500 971 500 985.5 485.5 c 128,-1,35
 1000 471 1000 471 1000 450 c 2,36,-1
 1000 350 l 2,37,38
 1000 329 1000 329 985.5 314.5 c 128,-1,39
 971 300 971 300 950 300 c 2,40,-1
 250 300 l 2,41,42
 229 300 229 300 214.5 314.5 c 128,-1,43
 200 329 200 329 200 350 c 2,44,-1
 200 450 l 2,45,46
 200 471 200 471 214.5 485.5 c 128,-1,47
 229 500 229 500 250 500 c 2,32,-1
50 200 m 2,48,-1
 1150 200 l 2,49,50
 1171 200 1171 200 1185.5 185.5 c 128,-1,51
 1200 171 1200 171 1200 150 c 2,52,-1
 1200 50 l 2,53,54
 1200 29 1200 29 1185.5 14.5 c 128,-1,55
 1171 0 1171 0 1150 0 c 2,56,-1
 50 0 l 2,57,58
 29 0 29 0 14.5 14.5 c 128,-1,59
 0 29 0 29 0 50 c 2,60,-1
 0 150 l 2,61,62
 0 171 0 171 14.5 185.5 c 128,-1,63
 29 200 29 200 50 200 c 2,48,-1
EndSplineSet
EndChar

StartChar: uniE054
Encoding: 57428 57428 82
Width: 1200
GlyphClass: 2
Flags: W
LayerCount: 2
Fore
SplineSet
500 950 m 2,0,-1
 500 1050 l 2,1,2
 500 1071 500 1071 514.5 1085.5 c 128,-1,3
 529 1100 529 1100 550 1100 c 2,4,-1
 1150 1100 l 2,5,6
 1171 1100 1171 1100 1185.5 1085.5 c 128,-1,7
 1200 1071 1200 1071 1200 1050 c 2,8,-1
 1200 950 l 2,9,10
 1200 929 1200 929 1185.5 914.5 c 128,-1,11
 1171 900 1171 900 1150 900 c 2,12,-1
 550 900 l 2,13,14
 529 900 529 900 514.5 914.5 c 128,-1,15
 500 929 500 929 500 950 c 2,0,-1
100 650 m 2,16,-1
 100 750 l 2,17,18
 100 771 100 771 114.5 785.5 c 128,-1,19
 129 800 129 800 150 800 c 2,20,-1
 1150 800 l 2,21,22
 1171 800 1171 800 1185.5 785.5 c 128,-1,23
 1200 771 1200 771 1200 750 c 2,24,-1
 1200 650 l 2,25,26
 1200 629 1200 629 1185.5 614.5 c 128,-1,27
 1171 600 1171 600 1150 600 c 2,28,-1
 150 600 l 2,29,30
 129 600 129 600 114.5 614.5 c 128,-1,31
 100 629 100 629 100 650 c 2,16,-1
300 350 m 2,32,-1
 300 450 l 2,33,34
 300 471 300 471 314.5 485.5 c 128,-1,35
 329 500 329 500 350 500 c 2,36,-1
 1150 500 l 2,37,38
 1171 500 1171 500 1185.5 485.5 c 128,-1,39
 1200 471 1200 471 1200 450 c 2,40,-1
 1200 350 l 2,41,42
 1200 329 1200 329 1185.5 314.5 c 128,-1,43
 1171 300 1171 300 1150 300 c 2,44,-1
 350 300 l 2,45,46
 329 300 329 300 314.5 314.5 c 128,-1,47
 300 329 300 329 300 350 c 2,32,-1
0 50 m 2,48,-1
 0 150 l 2,49,50
 0 171 0 171 14.5 185.5 c 128,-1,51
 29 200 29 200 50 200 c 2,52,-1
 1150 200 l 2,53,54
 1171 200 1171 200 1185.5 185.5 c 128,-1,55
 1200 171 1200 171 1200 150 c 2,56,-1
 1200 50 l 2,57,58
 1200 29 1200 29 1185.5 14.5 c 128,-1,59
 1171 0 1171 0 1150 0 c 2,60,-1
 50 0 l 2,61,62
 29 0 29 0 14.5 14.5 c 128,-1,63
 0 29 0 29 0 50 c 2,48,-1
EndSplineSet
EndChar

StartChar: uniE055
Encoding: 57429 57429 83
Width: 1200
GlyphClass: 2
Flags: W
LayerCount: 2
Fore
SplineSet
50 1100 m 2,0,-1
 1150 1100 l 2,1,2
 1171 1100 1171 1100 1185.5 1085.5 c 128,-1,3
 1200 1071 1200 1071 1200 1050 c 2,4,-1
 1200 950 l 2,5,6
 1200 929 1200 929 1185.5 914.5 c 128,-1,7
 1171 900 1171 900 1150 900 c 2,8,-1
 50 900 l 2,9,10
 29 900 29 900 14.5 914.5 c 128,-1,11
 0 929 0 929 0 950 c 2,12,-1
 0 1050 l 2,13,14
 0 1071 0 1071 14.5 1085.5 c 128,-1,15
 29 1100 29 1100 50 1100 c 2,0,-1
50 800 m 2,16,-1
 1150 800 l 2,17,18
 1171 800 1171 800 1185.5 785.5 c 128,-1,19
 1200 771 1200 771 1200 750 c 2,20,-1
 1200 650 l 2,21,22
 1200 629 1200 629 1185.5 614.5 c 128,-1,23
 1171 600 1171 600 1150 600 c 2,24,-1
 50 600 l 2,25,26
 29 600 29 600 14.5 614.5 c 128,-1,27
 0 629 0 629 0 650 c 2,28,-1
 0 750 l 2,29,30
 0 771 0 771 14.5 785.5 c 128,-1,31
 29 800 29 800 50 800 c 2,16,-1
50 500 m 2,32,-1
 1150 500 l 2,33,34
 1171 500 1171 500 1185.5 485.5 c 128,-1,35
 1200 471 1200 471 1200 450 c 2,36,-1
 1200 350 l 2,37,38
 1200 329 1200 329 1185.5 314.5 c 128,-1,39
 1171 300 1171 300 1150 300 c 2,40,-1
 50 300 l 2,41,42
 29 300 29 300 14.5 314.5 c 128,-1,43
 0 329 0 329 0 350 c 2,44,-1
 0 450 l 2,45,46
 0 471 0 471 14.5 485.5 c 128,-1,47
 29 500 29 500 50 500 c 2,32,-1
50 200 m 2,48,-1
 1150 200 l 2,49,50
 1171 200 1171 200 1185.5 185.5 c 128,-1,51
 1200 171 1200 171 1200 150 c 2,52,-1
 1200 50 l 2,53,54
 1200 29 1200 29 1185.5 14.5 c 128,-1,55
 1171 0 1171 0 1150 0 c 2,56,-1
 50 0 l 2,57,58
 29 0 29 0 14.5 14.5 c 128,-1,59
 0 29 0 29 0 50 c 2,60,-1
 0 150 l 2,61,62
 0 171 0 171 14.5 185.5 c 128,-1,63
 29 200 29 200 50 200 c 2,48,-1
EndSplineSet
EndChar

StartChar: uniE056
Encoding: 57430 57430 84
Width: 1200
GlyphClass: 2
Flags: W
LayerCount: 2
Fore
SplineSet
50 1100 m 2,0,-1
 150 1100 l 2,1,2
 171 1100 171 1100 185.5 1085.5 c 128,-1,3
 200 1071 200 1071 200 1050 c 2,4,-1
 200 950 l 2,5,6
 200 929 200 929 185.5 914.5 c 128,-1,7
 171 900 171 900 150 900 c 2,8,-1
 50 900 l 2,9,10
 29 900 29 900 14.5 914.5 c 128,-1,11
 0 929 0 929 0 950 c 2,12,-1
 0 1050 l 2,13,14
 0 1071 0 1071 14.5 1085.5 c 128,-1,15
 29 1100 29 1100 50 1100 c 2,0,-1
350 1100 m 2,16,-1
 1150 1100 l 2,17,18
 1171 1100 1171 1100 1185.5 1085.5 c 128,-1,19
 1200 1071 1200 1071 1200 1050 c 2,20,-1
 1200 950 l 2,21,22
 1200 929 1200 929 1185.5 914.5 c 128,-1,23
 1171 900 1171 900 1150 900 c 2,24,-1
 350 900 l 2,25,26
 329 900 329 900 314.5 914.5 c 128,-1,27
 300 929 300 929 300 950 c 2,28,-1
 300 1050 l 2,29,30
 300 1071 300 1071 314.5 1085.5 c 128,-1,31
 329 1100 329 1100 350 1100 c 2,16,-1
50 800 m 2,32,-1
 150 800 l 2,33,34
 171 800 171 800 185.5 785.5 c 128,-1,35
 200 771 200 771 200 750 c 2,36,-1
 200 650 l 2,37,38
 200 629 200 629 185.5 614.5 c 128,-1,39
 171 600 171 600 150 600 c 2,40,-1
 50 600 l 2,41,42
 29 600 29 600 14.5 614.5 c 128,-1,43
 0 629 0 629 0 650 c 2,44,-1
 0 750 l 2,45,46
 0 771 0 771 14.5 785.5 c 128,-1,47
 29 800 29 800 50 800 c 2,32,-1
350 800 m 2,48,-1
 1150 800 l 2,49,50
 1171 800 1171 800 1185.5 785.5 c 128,-1,51
 1200 771 1200 771 1200 750 c 2,52,-1
 1200 650 l 2,53,54
 1200 629 1200 629 1185.5 614.5 c 128,-1,55
 1171 600 1171 600 1150 600 c 2,56,-1
 350 600 l 2,57,58
 329 600 329 600 314.5 614.5 c 128,-1,59
 300 629 300 629 300 650 c 2,60,-1
 300 750 l 2,61,62
 300 771 300 771 314.5 785.5 c 128,-1,63
 329 800 329 800 350 800 c 2,48,-1
50 500 m 2,64,-1
 150 500 l 2,65,66
 171 500 171 500 185.5 485.5 c 128,-1,67
 200 471 200 471 200 450 c 2,68,-1
 200 350 l 2,69,70
 200 329 200 329 185.5 314.5 c 128,-1,71
 171 300 171 300 150 300 c 2,72,-1
 50 300 l 2,73,74
 29 300 29 300 14.5 314.5 c 128,-1,75
 0 329 0 329 0 350 c 2,76,-1
 0 450 l 2,77,78
 0 471 0 471 14.5 485.5 c 128,-1,79
 29 500 29 500 50 500 c 2,64,-1
350 500 m 2,80,-1
 1150 500 l 2,81,82
 1171 500 1171 500 1185.5 485.5 c 128,-1,83
 1200 471 1200 471 1200 450 c 2,84,-1
 1200 350 l 2,85,86
 1200 329 1200 329 1185.5 314.5 c 128,-1,87
 1171 300 1171 300 1150 300 c 2,88,-1
 350 300 l 2,89,90
 329 300 329 300 314.5 314.5 c 128,-1,91
 300 329 300 329 300 350 c 2,92,-1
 300 450 l 2,93,94
 300 471 300 471 314.5 485.5 c 128,-1,95
 329 500 329 500 350 500 c 2,80,-1
50 200 m 2,96,-1
 150 200 l 2,97,98
 171 200 171 200 185.5 185.5 c 128,-1,99
 200 171 200 171 200 150 c 2,100,-1
 200 50 l 2,101,102
 200 29 200 29 185.5 14.5 c 128,-1,103
 171 0 171 0 150 0 c 2,104,-1
 50 0 l 2,105,106
 29 0 29 0 14.5 14.5 c 128,-1,107
 0 29 0 29 0 50 c 2,108,-1
 0 150 l 2,109,110
 0 171 0 171 14.5 185.5 c 128,-1,111
 29 200 29 200 50 200 c 2,96,-1
350 200 m 2,112,-1
 1150 200 l 2,113,114
 1171 200 1171 200 1185.5 185.5 c 128,-1,115
 1200 171 1200 171 1200 150 c 2,116,-1
 1200 50 l 2,117,118
 1200 29 1200 29 1185.5 14.5 c 128,-1,119
 1171 0 1171 0 1150 0 c 2,120,-1
 350 0 l 2,121,122
 329 0 329 0 314.5 14.5 c 128,-1,123
 300 29 300 29 300 50 c 2,124,-1
 300 150 l 2,125,126
 300 171 300 171 314.5 185.5 c 128,-1,127
 329 200 329 200 350 200 c 2,112,-1
EndSplineSet
EndChar

StartChar: uniE057
Encoding: 57431 57431 85
Width: 1200
GlyphClass: 2
Flags: W
LayerCount: 2
Fore
SplineSet
400 0 m 1,0,-1
 300 0 l 1,1,-1
 300 1100 l 1,2,-1
 400 1100 l 1,3,-1
 400 0 l 1,0,-1
550 1100 m 2,4,-1
 650 1100 l 2,5,6
 671 1100 671 1100 685.5 1085.5 c 128,-1,7
 700 1071 700 1071 700 1050 c 2,8,-1
 700 950 l 2,9,10
 700 929 700 929 685.5 914.5 c 128,-1,11
 671 900 671 900 650 900 c 2,12,-1
 550 900 l 2,13,14
 529 900 529 900 514.5 914.5 c 128,-1,15
 500 929 500 929 500 950 c 2,16,-1
 500 1050 l 2,17,18
 500 1071 500 1071 514.5 1085.5 c 128,-1,19
 529 1100 529 1100 550 1100 c 2,4,-1
550 800 m 2,20,-1
 1050 800 l 2,21,22
 1071 800 1071 800 1085.5 785.5 c 128,-1,23
 1100 771 1100 771 1100 750 c 2,24,-1
 1100 650 l 2,25,26
 1100 629 1100 629 1085.5 614.5 c 128,-1,27
 1071 600 1071 600 1050 600 c 2,28,-1
 550 600 l 2,29,30
 529 600 529 600 514.5 614.5 c 128,-1,31
 500 629 500 629 500 650 c 2,32,-1
 500 750 l 2,33,34
 500 771 500 771 514.5 785.5 c 128,-1,35
 529 800 529 800 550 800 c 2,20,-1
267 550 m 1,36,-1
 100 425 l 1,37,-1
 100 500 l 1,38,-1
 -100 500 l 1,39,-1
 -100 600 l 1,40,-1
 100 600 l 1,41,-1
 100 675 l 1,42,-1
 267 550 l 1,36,-1
550 500 m 2,43,-1
 850 500 l 2,44,45
 871 500 871 500 885.5 485.5 c 128,-1,46
 900 471 900 471 900 450 c 2,47,-1
 900 350 l 2,48,49
 900 329 900 329 885.5 314.5 c 128,-1,50
 871 300 871 300 850 300 c 2,51,-1
 550 300 l 2,52,53
 529 300 529 300 514.5 314.5 c 128,-1,54
 500 329 500 329 500 350 c 2,55,-1
 500 450 l 2,56,57
 500 471 500 471 514.5 485.5 c 128,-1,58
 529 500 529 500 550 500 c 2,43,-1
550 200 m 2,59,-1
 1150 200 l 2,60,61
 1171 200 1171 200 1185.5 185.5 c 128,-1,62
 1200 171 1200 171 1200 150 c 2,63,-1
 1200 50 l 2,64,65
 1200 29 1200 29 1185.5 14.5 c 128,-1,66
 1171 0 1171 0 1150 0 c 2,67,-1
 550 0 l 2,68,69
 529 0 529 0 514.5 14.5 c 128,-1,70
 500 29 500 29 500 50 c 2,71,-1
 500 150 l 2,72,73
 500 171 500 171 514.5 185.5 c 128,-1,74
 529 200 529 200 550 200 c 2,59,-1
EndSplineSet
EndChar

StartChar: uniE058
Encoding: 57432 57432 86
Width: 1200
GlyphClass: 2
Flags: W
LayerCount: 2
Fore
SplineSet
50 1100 m 2,0,-1
 150 1100 l 2,1,2
 171 1100 171 1100 185.5 1085.5 c 128,-1,3
 200 1071 200 1071 200 1050 c 2,4,-1
 200 950 l 2,5,6
 200 929 200 929 185.5 914.5 c 128,-1,7
 171 900 171 900 150 900 c 2,8,-1
 50 900 l 2,9,10
 29 900 29 900 14.5 914.5 c 128,-1,11
 0 929 0 929 0 950 c 2,12,-1
 0 1050 l 2,13,14
 0 1071 0 1071 14.5 1085.5 c 128,-1,15
 29 1100 29 1100 50 1100 c 2,0,-1
900 0 m 1,16,-1
 800 0 l 1,17,-1
 800 1100 l 1,18,-1
 900 1100 l 1,19,-1
 900 0 l 1,16,-1
50 800 m 2,20,-1
 550 800 l 2,21,22
 571 800 571 800 585.5 785.5 c 128,-1,23
 600 771 600 771 600 750 c 2,24,-1
 600 650 l 2,25,26
 600 629 600 629 585.5 614.5 c 128,-1,27
 571 600 571 600 550 600 c 2,28,-1
 50 600 l 2,29,30
 29 600 29 600 14.5 614.5 c 128,-1,31
 0 629 0 629 0 650 c 2,32,-1
 0 750 l 2,33,34
 0 771 0 771 14.5 785.5 c 128,-1,35
 29 800 29 800 50 800 c 2,20,-1
1100 600 m 1,36,-1
 1300 600 l 1,37,-1
 1300 500 l 1,38,-1
 1100 500 l 1,39,-1
 1100 425 l 1,40,-1
 933 550 l 1,41,-1
 1100 675 l 1,42,-1
 1100 600 l 1,36,-1
50 500 m 2,43,-1
 350 500 l 2,44,45
 371 500 371 500 385.5 485.5 c 128,-1,46
 400 471 400 471 400 450 c 2,47,-1
 400 350 l 2,48,49
 400 329 400 329 385.5 314.5 c 128,-1,50
 371 300 371 300 350 300 c 2,51,-1
 50 300 l 2,52,53
 29 300 29 300 14.5 314.5 c 128,-1,54
 0 329 0 329 0 350 c 2,55,-1
 0 450 l 2,56,57
 0 471 0 471 14.5 485.5 c 128,-1,58
 29 500 29 500 50 500 c 2,43,-1
50 200 m 2,59,-1
 650 200 l 2,60,61
 671 200 671 200 685.5 185.5 c 128,-1,62
 700 171 700 171 700 150 c 2,63,-1
 700 50 l 2,64,65
 700 29 700 29 685.5 14.5 c 128,-1,66
 671 0 671 0 650 0 c 2,67,-1
 50 0 l 2,68,69
 29 0 29 0 14.5 14.5 c 128,-1,70
 0 29 0 29 0 50 c 2,71,-1
 0 150 l 2,72,73
 0 171 0 171 14.5 185.5 c 128,-1,74
 29 200 29 200 50 200 c 2,59,-1
EndSplineSet
EndChar

StartChar: uniE059
Encoding: 57433 57433 87
Width: 1200
GlyphClass: 2
Flags: W
LayerCount: 2
Fore
SplineSet
75 1000 m 2,0,-1
 825 1000 l 2,1,2
 856 1000 856 1000 878 978 c 128,-1,3
 900 956 900 956 900 925 c 2,4,-1
 900 275 l 2,5,6
 900 244 900 244 878 222 c 128,-1,7
 856 200 856 200 825 200 c 2,8,-1
 75 200 l 2,9,10
 44 200 44 200 22 222 c 128,-1,11
 0 244 0 244 0 275 c 2,12,-1
 0 925 l 2,13,14
 0 956 0 956 22 978 c 128,-1,15
 44 1000 44 1000 75 1000 c 2,0,-1
1200 300 m 1,16,-1
 900 600 l 1,17,-1
 1200 900 l 1,18,-1
 1200 300 l 1,16,-1
EndSplineSet
EndChar

StartChar: uniE060
Encoding: 57440 57440 88
Width: 1200
GlyphClass: 2
Flags: W
LayerCount: 2
Fore
SplineSet
44 1100 m 2,0,-1
 1156 1100 l 2,1,2
 1174 1100 1174 1100 1187 1087 c 128,-1,3
 1200 1074 1200 1074 1200 1056 c 2,4,-1
 1200 44 l 2,5,6
 1200 26 1200 26 1187 13 c 128,-1,7
 1174 0 1174 0 1156 0 c 2,8,-1
 44 0 l 2,9,10
 26 0 26 0 13 13 c 128,-1,11
 0 26 0 26 0 44 c 2,12,-1
 0 1056 l 2,13,14
 0 1074 0 1074 13 1087 c 128,-1,15
 26 1100 26 1100 44 1100 c 2,0,-1
100 1000 m 1,16,-1
 100 263 l 1,17,-1
 347 445 l 1,18,-1
 645 314 l 1,19,-1
 571 470 l 1,20,-1
 864 788 l 1,21,-1
 1100 500 l 1,22,-1
 1100 1000 l 1,23,-1
 100 1000 l 1,16,-1
342 884 m 128,-1,25
 398 884 398 884 437 845 c 128,-1,26
 476 806 476 806 476 750.5 c 128,-1,27
 476 695 476 695 437 655.5 c 128,-1,28
 398 616 398 616 342 616 c 128,-1,29
 286 616 286 616 247 655.5 c 128,-1,30
 208 695 208 695 208 750.5 c 128,-1,31
 208 806 208 806 247 845 c 128,-1,24
 286 884 286 884 342 884 c 128,-1,25
EndSplineSet
EndChar

StartChar: uniE062
Encoding: 57442 57442 89
Width: 1200
GlyphClass: 2
Flags: W
LayerCount: 2
Fore
SplineSet
648 1169 m 0,0,1
 765 1169 765 1169 864 1109 c 128,-1,2
 963 1049 963 1049 1020.5 948 c 128,-1,3
 1078 847 1078 847 1078 730 c 0,4,5
 1078 615 1078 615 1008 472 c 1,6,7
 939 363 939 363 850 246.5 c 128,-1,8
 761 130 761 130 707 67 c 2,9,-1
 653 5 l 1,10,11
 644 13 644 13 627.5 29.5 c 128,-1,12
 611 46 611 46 564 97 c 128,-1,13
 517 148 517 148 473 200 c 128,-1,14
 429 252 429 252 374.5 328 c 128,-1,15
 320 404 320 404 279 476 c 1,16,17
 219 608 219 608 219 725 c 0,18,19
 219 813 219 813 253 894.5 c 128,-1,20
 287 976 287 976 344.5 1036.5 c 128,-1,21
 402 1097 402 1097 481.5 1133 c 128,-1,22
 561 1169 561 1169 648 1169 c 0,0,1
652.5 974 m 128,-1,24
 561 974 561 974 496 909 c 128,-1,25
 431 844 431 844 431 752 c 128,-1,26
 431 660 431 660 496 595.5 c 128,-1,27
 561 531 561 531 652.5 531 c 128,-1,28
 744 531 744 531 809 595.5 c 128,-1,29
 874 660 874 660 874 752 c 128,-1,30
 874 844 874 844 809 909 c 128,-1,23
 744 974 744 974 652.5 974 c 128,-1,24
EndSplineSet
EndChar

StartChar: uniE063
Encoding: 57443 57443 90
Width: 1200
GlyphClass: 2
Flags: W
LayerCount: 2
Fore
SplineSet
600 1177 m 128,-1,1
 717 1177 717 1177 824 1131.5 c 128,-1,2
 931 1086 931 1086 1008.5 1008.5 c 128,-1,3
 1086 931 1086 931 1131.5 824 c 128,-1,4
 1177 717 1177 717 1177 600 c 128,-1,5
 1177 483 1177 483 1131.5 376 c 128,-1,6
 1086 269 1086 269 1008.5 191.5 c 128,-1,7
 931 114 931 114 824 68.5 c 128,-1,8
 717 23 717 23 600 23 c 128,-1,9
 483 23 483 23 376 68.5 c 128,-1,10
 269 114 269 114 191.5 191.5 c 128,-1,11
 114 269 114 269 68.5 376 c 128,-1,12
 23 483 23 483 23 600 c 128,-1,13
 23 717 23 717 68.5 824 c 128,-1,14
 114 931 114 931 191.5 1008.5 c 128,-1,15
 269 1086 269 1086 376 1131.5 c 128,-1,0
 483 1177 483 1177 600 1177 c 128,-1,1
600 173 m 1,16,-1
 600 1027 l 1,17,18
 484 1027 484 1027 385.5 970 c 128,-1,19
 287 913 287 913 230 814.5 c 128,-1,20
 173 716 173 716 173 600 c 128,-1,21
 173 484 173 484 230 385.5 c 128,-1,22
 287 287 287 287 385.5 230 c 128,-1,23
 484 173 484 173 600 173 c 1,16,-1
EndSplineSet
EndChar

StartChar: uniE064
Encoding: 57444 57444 91
Width: 1200
GlyphClass: 2
Flags: W
LayerCount: 2
Fore
SplineSet
554 1295 m 1,0,1
 575 1223 575 1223 611.5 1151.5 c 128,-1,2
 648 1080 648 1080 687.5 1021.5 c 128,-1,3
 727 963 727 963 770.5 903.5 c 128,-1,4
 814 844 814 844 853 786.5 c 128,-1,5
 892 729 892 729 923 670.5 c 128,-1,6
 954 612 954 612 972.5 544.5 c 128,-1,7
 991 477 991 477 991 408 c 0,8,9
 991 337 991 337 965.5 273 c 128,-1,10
 940 209 940 209 897 162 c 128,-1,11
 854 115 854 115 798 80 c 128,-1,12
 742 45 742 45 679.5 26 c 128,-1,13
 617 7 617 7 554 3 c 1,14,15
 470 8 470 8 392.5 37 c 128,-1,16
 315 66 315 66 253 115.5 c 128,-1,17
 191 165 191 165 154 240.5 c 128,-1,18
 117 316 117 316 117 405 c 0,19,20
 117 474 117 474 135 541.5 c 128,-1,21
 153 609 153 609 184.5 668 c 128,-1,22
 216 727 216 727 254 784.5 c 128,-1,23
 292 842 292 842 335.5 902 c 128,-1,24
 379 962 379 962 419 1021 c 128,-1,25
 459 1080 459 1080 495.5 1152 c 128,-1,26
 532 1224 532 1224 554 1295 c 1,0,1
344 710 m 0,27,28
 321 677 321 677 300.5 639.5 c 128,-1,29
 280 602 280 602 260 537 c 128,-1,30
 240 472 240 472 243 414 c 0,31,32
 244 377 244 377 257.5 344.5 c 128,-1,33
 271 312 271 312 287.5 292.5 c 128,-1,34
 304 273 304 273 328.5 255.5 c 128,-1,35
 353 238 353 238 367 231 c 128,-1,36
 381 224 381 224 400 216 c 0,37,38
 421 209 421 209 432 215 c 128,-1,39
 443 221 443 221 445 237 c 2,40,-1
 451 271 l 2,41,42
 453 281 453 281 448.5 293 c 128,-1,43
 444 305 444 305 435 312 c 0,44,45
 430 316 430 316 421 324 c 128,-1,46
 412 332 412 332 391.5 364.5 c 128,-1,47
 371 397 371 397 359 438 c 0,48,49
 333 527 333 527 365 709 c 0,50,51
 367 720 367 720 359 720 c 0,52,53
 351 721 351 721 344 710 c 0,27,28
EndSplineSet
EndChar

StartChar: uniE065
Encoding: 57445 57445 92
Width: 1200
GlyphClass: 2
Flags: W
LayerCount: 2
Fore
SplineSet
1000 1013 m 1,0,-1
 1108 1128 l 2,1,2
 1110 1129 1110 1129 1113 1130 c 128,-1,3
 1116 1131 1116 1131 1126 1132 c 128,-1,4
 1136 1133 1136 1133 1146.5 1131 c 128,-1,5
 1157 1129 1157 1129 1171.5 1121.5 c 128,-1,6
 1186 1114 1186 1114 1200 1100 c 0,7,8
 1222 1078 1222 1078 1227 1057 c 128,-1,9
 1232 1036 1232 1036 1227 1025 c 2,10,-1
 1221 1015 l 1,11,-1
 1113 900 l 1,12,-1
 1000 1013 l 1,0,-1
350 1100 m 2,13,-1
 750 1100 l 2,14,15
 800 1100 800 1100 855 1087 c 1,16,-1
 668 900 l 1,17,-1
 300 900 l 2,18,19
 259 900 259 900 229.5 870.5 c 128,-1,20
 200 841 200 841 200 800 c 2,21,-1
 200 300 l 2,22,23
 200 259 200 259 229.5 229.5 c 128,-1,24
 259 200 259 200 300 200 c 2,25,-1
 800 200 l 2,26,27
 841 200 841 200 870.5 229.5 c 128,-1,28
 900 259 900 259 900 300 c 2,29,-1
 900 482 l 1,30,-1
 1100 682 l 1,31,-1
 1100 350 l 2,32,33
 1100 185 1100 185 1006.5 92.5 c 128,-1,34
 913 0 913 0 750 0 c 2,35,-1
 350 0 l 2,36,37
 185 0 185 0 92.5 92.5 c 128,-1,38
 0 185 0 185 0 350 c 2,39,-1
 0 750 l 2,40,41
 0 915 0 915 92.5 1007.5 c 128,-1,42
 185 1100 185 1100 350 1100 c 2,13,-1
1009 803 m 1,43,-1
 647 441 l 1,44,-1
 486 391 l 1,45,-1
 541 561 l 1,46,-1
 896 916 l 1,47,-1
 1009 803 l 1,43,-1
EndSplineSet
EndChar

StartChar: uniE066
Encoding: 57446 57446 93
Width: 1200
GlyphClass: 2
Flags: W
LayerCount: 2
Fore
SplineSet
350 1100 m 2,0,-1
 711 1100 l 1,1,2
 547 954 547 954 495 900 c 1,3,-1
 300 900 l 2,4,5
 259 900 259 900 229.5 870.5 c 128,-1,6
 200 841 200 841 200 800 c 2,7,-1
 200 300 l 2,8,9
 200 259 200 259 229.5 229.5 c 128,-1,10
 259 200 259 200 300 200 c 2,11,-1
 800 200 l 2,12,13
 841 200 841 200 870.5 229.5 c 128,-1,14
 900 259 900 259 900 300 c 1,15,-1
 1100 453 l 1,16,-1
 1100 350 l 2,17,18
 1100 185 1100 185 1007.5 92.5 c 128,-1,19
 915 0 915 0 750 0 c 2,20,-1
 350 0 l 2,21,22
 185 0 185 0 92.5 92.5 c 128,-1,23
 0 185 0 185 0 350 c 2,24,-1
 0 750 l 2,25,26
 0 915 0 915 92.5 1007.5 c 128,-1,27
 185 1100 185 1100 350 1100 c 2,0,-1
824 1073 m 2,28,-1
 1163 772 l 2,29,30
 1171 765 1171 765 1171 754.5 c 128,-1,31
 1171 744 1171 744 1163 737 c 2,32,-1
 823 431 l 2,33,34
 816 425 816 425 810.5 427 c 128,-1,35
 805 429 805 429 804 438 c 2,36,-1
 804 641 l 1,37,38
 778 642 778 642 749.5 641 c 128,-1,39
 721 640 721 640 671 633.5 c 128,-1,40
 621 627 621 627 579 616 c 128,-1,41
 537 605 537 605 493 581 c 128,-1,42
 449 557 449 557 423 524 c 1,43,44
 433 583 433 583 456 632 c 128,-1,45
 479 681 479 681 507.5 713.5 c 128,-1,46
 536 746 536 746 572.5 772 c 128,-1,47
 609 798 609 798 641 812.5 c 128,-1,48
 673 827 673 827 708 837 c 128,-1,49
 743 847 743 847 764 850.5 c 128,-1,50
 785 854 785 854 804 855 c 1,51,-1
 804 1065 l 2,52,53
 805 1075 805 1075 810.5 1077.5 c 128,-1,54
 816 1080 816 1080 824 1073 c 2,28,-1
EndSplineSet
EndChar

StartChar: uniE067
Encoding: 57447 57447 94
Width: 1200
GlyphClass: 2
Flags: W
LayerCount: 2
Fore
SplineSet
350 1100 m 2,0,-1
 700 1100 l 2,1,2
 760 1100 760 1100 827 1077 c 1,3,-1
 649 900 l 1,4,-1
 300 900 l 2,5,6
 259 900 259 900 229.5 870.5 c 128,-1,7
 200 841 200 841 200 800 c 2,8,-1
 200 300 l 2,9,10
 200 259 200 259 229.5 229.5 c 128,-1,11
 259 200 259 200 300 200 c 2,12,-1
 800 200 l 2,13,14
 841 200 841 200 870.5 229.5 c 128,-1,15
 900 259 900 259 900 300 c 2,16,-1
 900 369 l 1,17,-1
 1100 569 l 1,18,-1
 1100 350 l 2,19,20
 1100 185 1100 185 1007.5 92.5 c 128,-1,21
 915 0 915 0 750 0 c 2,22,-1
 350 0 l 2,23,24
 185 0 185 0 92.5 92.5 c 128,-1,25
 0 185 0 185 0 350 c 2,26,-1
 0 750 l 2,27,28
 0 915 0 915 92.5 1007.5 c 128,-1,29
 185 1100 185 1100 350 1100 c 2,0,-1
643 639 m 2,30,-1
 1038 1034 l 2,31,32
 1045 1041 1045 1041 1055.5 1041 c 128,-1,33
 1066 1041 1066 1041 1073 1034 c 2,34,-1
 1174 933 l 2,35,36
 1181 926 1181 926 1181 915.5 c 128,-1,37
 1181 905 1181 905 1174 898 c 2,38,-1
 643 366 l 2,39,40
 636 359 636 359 625.5 359 c 128,-1,41
 615 359 615 359 608 366 c 2,42,-1
 360 614 l 2,43,44
 353 621 353 621 353 631.5 c 128,-1,45
 353 642 353 642 360 649 c 2,46,-1
 461 750 l 2,47,48
 468 757 468 757 478.5 757 c 128,-1,49
 489 757 489 757 496 750 c 2,50,-1
 607 639 l 2,51,52
 615 632 615 632 625 632 c 128,-1,53
 635 632 635 632 643 639 c 2,30,-1
EndSplineSet
EndChar

StartChar: uniE068
Encoding: 57448 57448 95
Width: 1200
GlyphClass: 2
Flags: W
LayerCount: 2
Fore
SplineSet
318 918 m 2,0,-1
 582 1182 l 2,1,2
 590 1190 590 1190 600 1190 c 128,-1,3
 610 1190 610 1190 618 1182 c 2,4,-1
 878 918 l 2,5,6
 885 910 885 910 882.5 905 c 128,-1,7
 880 900 880 900 870 900 c 2,8,-1
 700 900 l 1,9,-1
 700 700 l 1,10,-1
 900 700 l 1,11,-1
 900 873 l 2,12,13
 900 883 900 883 905 885 c 128,-1,14
 910 887 910 887 918 880 c 2,15,-1
 1182 620 l 2,16,17
 1190 613 1190 613 1190 602.5 c 128,-1,18
 1190 592 1190 592 1182 585 c 2,19,-1
 918 320 l 2,20,21
 910 313 910 313 905 315 c 128,-1,22
 900 317 900 317 900 327 c 2,23,-1
 900 500 l 1,24,-1
 700 500 l 1,25,-1
 700 300 l 1,26,-1
 870 300 l 2,27,28
 880 300 880 300 882.5 295 c 128,-1,29
 885 290 885 290 878 282 c 2,30,-1
 618 18 l 2,31,32
 610 10 610 10 600 10 c 128,-1,33
 590 10 590 10 582 18 c 2,34,-1
 318 282 l 2,35,36
 310 290 310 290 312.5 295 c 128,-1,37
 315 300 315 300 325 300 c 2,38,-1
 500 300 l 1,39,-1
 500 500 l 1,40,-1
 300 500 l 1,41,-1
 300 327 l 2,42,43
 300 317 300 317 295 315 c 128,-1,44
 290 313 290 313 282 320 c 2,45,-1
 18 585 l 2,46,47
 10 592 10 592 10 602.5 c 128,-1,48
 10 613 10 613 18 620 c 2,49,-1
 282 880 l 2,50,51
 290 887 290 887 295 885 c 128,-1,52
 300 883 300 883 300 873 c 2,53,-1
 300 700 l 1,54,-1
 500 700 l 1,55,-1
 500 900 l 1,56,-1
 325 900 l 2,57,58
 315 900 315 900 312.5 905 c 128,-1,59
 310 910 310 910 318 918 c 2,0,-1
EndSplineSet
EndChar

StartChar: uniE069
Encoding: 57449 57449 96
Width: 1200
GlyphClass: 2
Flags: W
LayerCount: 2
Fore
SplineSet
250 1100 m 2,0,-1
 350 1100 l 2,1,2
 371 1100 371 1100 385.5 1085.5 c 128,-1,3
 400 1071 400 1071 400 1050 c 2,4,-1
 400 612 l 1,5,-1
 864 1065 l 2,6,7
 879 1079 879 1079 889.5 1075 c 128,-1,8
 900 1071 900 1071 900 1050 c 2,9,-1
 900 50 l 2,10,11
 900 29 900 29 889.5 25 c 128,-1,12
 879 21 879 21 864 35 c 2,13,-1
 400 488 l 1,14,-1
 400 50 l 2,15,16
 400 29 400 29 385.5 14.5 c 128,-1,17
 371 0 371 0 350 0 c 2,18,-1
 250 0 l 2,19,20
 229 0 229 0 214.5 14.5 c 128,-1,21
 200 29 200 29 200 50 c 2,22,-1
 200 1050 l 2,23,24
 200 1071 200 1071 214.5 1085.5 c 128,-1,25
 229 1100 229 1100 250 1100 c 2,0,-1
EndSplineSet
EndChar

StartChar: uniE070
Encoding: 57456 57456 97
Width: 1200
GlyphClass: 2
Flags: W
LayerCount: 2
Fore
SplineSet
50 1100 m 2,0,-1
 150 1100 l 2,1,2
 171 1100 171 1100 185.5 1085.5 c 128,-1,3
 200 1071 200 1071 200 1050 c 2,4,-1
 200 612 l 1,5,-1
 664 1065 l 2,6,7
 679 1079 679 1079 689.5 1075 c 128,-1,8
 700 1071 700 1071 700 1050 c 2,9,-1
 700 612 l 1,10,-1
 1164 1065 l 2,11,12
 1179 1079 1179 1079 1189.5 1075 c 128,-1,13
 1200 1071 1200 1071 1200 1050 c 2,14,-1
 1200 50 l 2,15,16
 1200 29 1200 29 1189.5 25 c 128,-1,17
 1179 21 1179 21 1164 35 c 2,18,-1
 700 488 l 1,19,-1
 700 50 l 2,20,21
 700 29 700 29 689.5 25 c 128,-1,22
 679 21 679 21 664 35 c 2,23,-1
 200 488 l 1,24,-1
 200 50 l 2,25,26
 200 29 200 29 185.5 14.5 c 128,-1,27
 171 0 171 0 150 0 c 2,28,-1
 50 0 l 2,29,30
 29 0 29 0 14.5 14.5 c 128,-1,31
 0 29 0 29 0 50 c 2,32,-1
 0 1050 l 2,33,34
 0 1071 0 1071 14.5 1085.5 c 128,-1,35
 29 1100 29 1100 50 1100 c 2,0,-1
EndSplineSet
EndChar

StartChar: uniE071
Encoding: 57457 57457 98
Width: 1200
GlyphClass: 2
Flags: W
LayerCount: 2
Fore
SplineSet
1200 1050 m 2,0,-1
 1200 50 l 2,1,2
 1200 29 1200 29 1189.5 25 c 128,-1,3
 1179 21 1179 21 1164 35 c 2,4,-1
 700 488 l 1,5,-1
 700 50 l 2,6,7
 700 29 700 29 689.5 25 c 128,-1,8
 679 21 679 21 664 35 c 2,9,-1
 172 515 l 2,10,11
 157 529 157 529 157 550 c 128,-1,12
 157 571 157 571 172 585 c 2,13,-1
 664 1065 l 2,14,15
 679 1079 679 1079 689.5 1075 c 128,-1,16
 700 1071 700 1071 700 1050 c 2,17,-1
 700 612 l 1,18,-1
 1164 1065 l 2,19,20
 1179 1079 1179 1079 1189.5 1075 c 128,-1,21
 1200 1071 1200 1071 1200 1050 c 2,0,-1
EndSplineSet
EndChar

StartChar: uniE072
Encoding: 57458 57458 99
Width: 1200
GlyphClass: 2
Flags: W
LayerCount: 2
Fore
SplineSet
243 1074 m 2,0,-1
 1057 576 l 2,1,2
 1075 565 1075 565 1075 550 c 128,-1,3
 1075 535 1075 535 1057 524 c 2,4,-1
 243 26 l 2,5,6
 225 15 225 15 212.5 22 c 128,-1,7
 200 29 200 29 200 50 c 2,8,-1
 200 1050 l 2,9,10
 200 1071 200 1071 212.5 1078 c 128,-1,11
 225 1085 225 1085 243 1074 c 2,0,-1
EndSplineSet
EndChar

StartChar: uniE073
Encoding: 57459 57459 100
Width: 1200
GlyphClass: 2
Flags: W
LayerCount: 2
Fore
SplineSet
250 1000 m 2,0,-1
 450 1000 l 2,1,2
 471 1000 471 1000 485.5 985.5 c 128,-1,3
 500 971 500 971 500 950 c 2,4,-1
 500 150 l 2,5,6
 500 129 500 129 485.5 114.5 c 128,-1,7
 471 100 471 100 450 100 c 2,8,-1
 250 100 l 2,9,10
 229 100 229 100 214.5 114.5 c 128,-1,11
 200 129 200 129 200 150 c 2,12,-1
 200 950 l 2,13,14
 200 971 200 971 214.5 985.5 c 128,-1,15
 229 1000 229 1000 250 1000 c 2,0,-1
650 1000 m 2,16,-1
 850 1000 l 2,17,18
 871 1000 871 1000 885.5 985.5 c 128,-1,19
 900 971 900 971 900 950 c 2,20,-1
 900 150 l 2,21,22
 900 129 900 129 885.5 114.5 c 128,-1,23
 871 100 871 100 850 100 c 2,24,-1
 650 100 l 2,25,26
 629 100 629 100 614.5 114.5 c 128,-1,27
 600 129 600 129 600 150 c 2,28,-1
 600 950 l 2,29,30
 600 971 600 971 614.5 985.5 c 128,-1,31
 629 1000 629 1000 650 1000 c 2,16,-1
EndSplineSet
EndChar

StartChar: uniE074
Encoding: 57460 57460 101
Width: 1200
GlyphClass: 2
Flags: W
LayerCount: 2
Fore
SplineSet
1100 950 m 2,0,-1
 1100 150 l 2,1,2
 1100 129 1100 129 1085.5 114.5 c 128,-1,3
 1071 100 1071 100 1050 100 c 2,4,-1
 250 100 l 2,5,6
 229 100 229 100 214.5 114.5 c 128,-1,7
 200 129 200 129 200 150 c 2,8,-1
 200 950 l 2,9,10
 200 971 200 971 214.5 985.5 c 128,-1,11
 229 1000 229 1000 250 1000 c 2,12,-1
 1050 1000 l 2,13,14
 1071 1000 1071 1000 1085.5 985.5 c 128,-1,15
 1100 971 1100 971 1100 950 c 2,0,-1
EndSplineSet
EndChar

StartChar: uniE075
Encoding: 57461 57461 102
Width: 1200
GlyphClass: 2
Flags: W
LayerCount: 2
Fore
SplineSet
500 612 m 1,0,-1
 500 1050 l 2,1,2
 500 1071 500 1071 510.5 1075 c 128,-1,3
 521 1079 521 1079 536 1065 c 2,4,-1
 1028 585 l 2,5,6
 1043 571 1043 571 1043 550 c 128,-1,7
 1043 529 1043 529 1028 515 c 2,8,-1
 536 35 l 2,9,10
 521 21 521 21 510.5 25 c 128,-1,11
 500 29 500 29 500 50 c 2,12,-1
 500 488 l 1,13,-1
 36 35 l 2,14,15
 21 21 21 21 10.5 25 c 128,-1,16
 0 29 0 29 0 50 c 2,17,-1
 0 1050 l 2,18,19
 0 1071 0 1071 10.5 1075 c 128,-1,20
 21 1079 21 1079 36 1065 c 2,21,-1
 500 612 l 1,0,-1
EndSplineSet
EndChar

StartChar: uniE076
Encoding: 57462 57462 103
Width: 1200
GlyphClass: 2
Flags: W
LayerCount: 2
Fore
SplineSet
1048 1102 m 2,0,-1
 1148 1103 l 2,1,2
 1168 1103 1168 1103 1183 1088.5 c 128,-1,3
 1198 1074 1198 1074 1198 1053 c 2,4,-1
 1203 53 l 2,5,6
 1203 32 1203 32 1188.5 17.5 c 128,-1,7
 1174 3 1174 3 1153 3 c 2,8,-1
 1053 2 l 2,9,10
 1032 2 1032 2 1017.5 16.5 c 128,-1,11
 1003 31 1003 31 1003 52 c 2,12,-1
 1001 489 l 1,13,-1
 538 35 l 2,14,15
 524 20 524 20 513.5 24.5 c 128,-1,16
 503 29 503 29 503 50 c 2,17,-1
 501 487 l 1,18,-1
 39 32 l 2,19,20
 24 18 24 18 13.5 22.5 c 128,-1,21
 3 27 3 27 3 47 c 2,22,-1
 -2 1047 l 2,23,24
 -2 1068 -2 1068 8.5 1072.5 c 128,-1,25
 19 1077 19 1077 34 1062 c 2,26,-1
 500 612 l 1,27,-1
 498 1050 l 2,28,29
 498 1070 498 1070 508.5 1074.5 c 128,-1,30
 519 1079 519 1079 534 1065 c 2,31,-1
 1000 614 l 1,32,-1
 998 1052 l 2,33,34
 998 1073 998 1073 1012.5 1087.5 c 128,-1,35
 1027 1102 1027 1102 1048 1102 c 2,0,-1
EndSplineSet
EndChar

StartChar: uniE077
Encoding: 57463 57463 104
Width: 1200
GlyphClass: 2
Flags: W
LayerCount: 2
Fore
SplineSet
850 1100 m 2,0,-1
 950 1100 l 2,1,2
 971 1100 971 1100 985.5 1085.5 c 128,-1,3
 1000 1071 1000 1071 1000 1050 c 2,4,-1
 1000 50 l 2,5,6
 1000 29 1000 29 985.5 14.5 c 128,-1,7
 971 0 971 0 950 0 c 2,8,-1
 850 0 l 2,9,10
 829 0 829 0 814.5 14.5 c 128,-1,11
 800 29 800 29 800 50 c 2,12,-1
 800 488 l 1,13,-1
 336 35 l 2,14,15
 321 21 321 21 310.5 25 c 128,-1,16
 300 29 300 29 300 50 c 2,17,-1
 300 1050 l 2,18,19
 300 1071 300 1071 310.5 1075 c 128,-1,20
 321 1079 321 1079 336 1065 c 2,21,-1
 800 612 l 1,22,-1
 800 1050 l 2,23,24
 800 1071 800 1071 814.5 1085.5 c 128,-1,25
 829 1100 829 1100 850 1100 c 2,0,-1
EndSplineSet
EndChar

StartChar: uniE078
Encoding: 57464 57464 105
Width: 1200
GlyphClass: 2
Flags: W
LayerCount: 2
Fore
SplineSet
686 1081 m 2,0,-1
 1187 541 l 2,1,2
 1202 526 1202 526 1197.5 515 c 128,-1,3
 1193 504 1193 504 1171 504 c 2,4,-1
 129 504 l 2,5,6
 107 504 107 504 102.5 515 c 128,-1,7
 98 526 98 526 113 541 c 2,8,-1
 614 1081 l 2,9,10
 629 1096 629 1096 650 1096 c 128,-1,11
 671 1096 671 1096 686 1081 c 2,0,-1
150 400 m 2,12,-1
 1150 400 l 2,13,14
 1171 400 1171 400 1185.5 385.5 c 128,-1,15
 1200 371 1200 371 1200 350 c 2,16,-1
 1200 250 l 2,17,18
 1200 229 1200 229 1185.5 214.5 c 128,-1,19
 1171 200 1171 200 1150 200 c 2,20,-1
 150 200 l 2,21,22
 129 200 129 200 114.5 214.5 c 128,-1,23
 100 229 100 229 100 250 c 2,24,-1
 100 350 l 2,25,26
 100 371 100 371 114.5 385.5 c 128,-1,27
 129 400 129 400 150 400 c 2,12,-1
EndSplineSet
EndChar

StartChar: uniE079
Encoding: 57465 57465 106
Width: 1200
GlyphClass: 2
Flags: W
LayerCount: 2
Fore
SplineSet
885 900 m 1,0,-1
 533 547 l 1,1,-1
 885 194 l 1,2,-1
 688 -4 l 1,3,-1
 136 548 l 1,4,-1
 688 1098 l 1,5,-1
 885 900 l 1,0,-1
EndSplineSet
EndChar

StartChar: uniE080
Encoding: 57472 57472 107
Width: 1200
GlyphClass: 2
Flags: W
LayerCount: 2
Fore
SplineSet
1064 547 m 1,0,-1
 513 -4 l 1,1,-1
 315 194 l 1,2,-1
 668 547 l 1,3,-1
 315 900 l 1,4,-1
 513 1098 l 1,5,-1
 1064 547 l 1,0,-1
EndSplineSet
EndChar

StartChar: uniE081
Encoding: 57473 57473 108
Width: 1200
GlyphClass: 2
Flags: W
LayerCount: 2
Fore
SplineSet
600 1177 m 128,-1,1
 717 1177 717 1177 824 1131.5 c 128,-1,2
 931 1086 931 1086 1008.5 1008.5 c 128,-1,3
 1086 931 1086 931 1131.5 824 c 128,-1,4
 1177 717 1177 717 1177 600 c 128,-1,5
 1177 483 1177 483 1131.5 376 c 128,-1,6
 1086 269 1086 269 1008.5 191.5 c 128,-1,7
 931 114 931 114 824 68.5 c 128,-1,8
 717 23 717 23 600 23 c 128,-1,9
 483 23 483 23 376 68.5 c 128,-1,10
 269 114 269 114 191.5 191.5 c 128,-1,11
 114 269 114 269 68.5 376 c 128,-1,12
 23 483 23 483 23 600 c 128,-1,13
 23 717 23 717 68.5 824 c 128,-1,14
 114 931 114 931 191.5 1008.5 c 128,-1,15
 269 1086 269 1086 376 1131.5 c 128,-1,0
 483 1177 483 1177 600 1177 c 128,-1,1
650 900 m 2,16,-1
 550 900 l 2,17,18
 529 900 529 900 514.5 885.5 c 128,-1,19
 500 871 500 871 500 850 c 2,20,-1
 500 700 l 1,21,-1
 350 700 l 2,22,23
 329 700 329 700 314.5 685.5 c 128,-1,24
 300 671 300 671 300 650 c 2,25,-1
 300 550 l 2,26,27
 300 529 300 529 314.5 514.5 c 128,-1,28
 329 500 329 500 350 500 c 2,29,-1
 500 500 l 1,30,-1
 500 350 l 2,31,32
 500 329 500 329 514.5 314.5 c 128,-1,33
 529 300 529 300 550 300 c 2,34,-1
 650 300 l 2,35,36
 671 300 671 300 685.5 314.5 c 128,-1,37
 700 329 700 329 700 350 c 2,38,-1
 700 500 l 1,39,-1
 850 500 l 2,40,41
 871 500 871 500 885.5 514.5 c 128,-1,42
 900 529 900 529 900 550 c 2,43,-1
 900 650 l 2,44,45
 900 671 900 671 885.5 685.5 c 128,-1,46
 871 700 871 700 850 700 c 2,47,-1
 700 700 l 1,48,-1
 700 850 l 2,49,50
 700 871 700 871 685.5 885.5 c 128,-1,51
 671 900 671 900 650 900 c 2,16,-1
EndSplineSet
EndChar

StartChar: uniE082
Encoding: 57474 57474 109
Width: 1200
GlyphClass: 2
Flags: W
LayerCount: 2
Fore
SplineSet
600 1177 m 128,-1,1
 717 1177 717 1177 824 1131.5 c 128,-1,2
 931 1086 931 1086 1008.5 1008.5 c 128,-1,3
 1086 931 1086 931 1131.5 824 c 128,-1,4
 1177 717 1177 717 1177 600 c 128,-1,5
 1177 483 1177 483 1131.5 376 c 128,-1,6
 1086 269 1086 269 1008.5 191.5 c 128,-1,7
 931 114 931 114 824 68.5 c 128,-1,8
 717 23 717 23 600 23 c 128,-1,9
 483 23 483 23 376 68.5 c 128,-1,10
 269 114 269 114 191.5 191.5 c 128,-1,11
 114 269 114 269 68.5 376 c 128,-1,12
 23 483 23 483 23 600 c 128,-1,13
 23 717 23 717 68.5 824 c 128,-1,14
 114 931 114 931 191.5 1008.5 c 128,-1,15
 269 1086 269 1086 376 1131.5 c 128,-1,0
 483 1177 483 1177 600 1177 c 128,-1,1
850 700 m 2,16,-1
 350 700 l 2,17,18
 329 700 329 700 314.5 685.5 c 128,-1,19
 300 671 300 671 300 650 c 2,20,-1
 300 550 l 2,21,22
 300 529 300 529 314.5 514.5 c 128,-1,23
 329 500 329 500 350 500 c 2,24,-1
 850 500 l 2,25,26
 871 500 871 500 885.5 514.5 c 128,-1,27
 900 529 900 529 900 550 c 2,28,-1
 900 650 l 2,29,30
 900 671 900 671 885.5 685.5 c 128,-1,31
 871 700 871 700 850 700 c 2,16,-1
EndSplineSet
EndChar

StartChar: uniE083
Encoding: 57475 57475 110
Width: 1200
GlyphClass: 2
Flags: W
LayerCount: 2
Fore
SplineSet
600 1177 m 128,-1,1
 717 1177 717 1177 824 1131.5 c 128,-1,2
 931 1086 931 1086 1008.5 1008.5 c 128,-1,3
 1086 931 1086 931 1131.5 824 c 128,-1,4
 1177 717 1177 717 1177 600 c 128,-1,5
 1177 483 1177 483 1131.5 376 c 128,-1,6
 1086 269 1086 269 1008.5 191.5 c 128,-1,7
 931 114 931 114 824 68.5 c 128,-1,8
 717 23 717 23 600 23 c 128,-1,9
 483 23 483 23 376 68.5 c 128,-1,10
 269 114 269 114 191.5 191.5 c 128,-1,11
 114 269 114 269 68.5 376 c 128,-1,12
 23 483 23 483 23 600 c 128,-1,13
 23 717 23 717 68.5 824 c 128,-1,14
 114 931 114 931 191.5 1008.5 c 128,-1,15
 269 1086 269 1086 376 1131.5 c 128,-1,0
 483 1177 483 1177 600 1177 c 128,-1,1
741.5 913 m 128,-1,17
 729 913 729 913 720 904 c 2,18,-1
 600 784 l 1,19,-1
 480 904 l 2,20,21
 471 913 471 913 458.5 913 c 128,-1,22
 446 913 446 913 437 904 c 2,23,-1
 296 763 l 2,24,25
 287 754 287 754 287 741.5 c 128,-1,26
 287 729 287 729 296 720 c 2,27,-1
 416 600 l 1,28,-1
 296 480 l 2,29,30
 287 471 287 471 287 458.5 c 128,-1,31
 287 446 287 446 296 437 c 2,32,-1
 437 296 l 2,33,34
 446 287 446 287 458.5 287 c 128,-1,35
 471 287 471 287 480 296 c 2,36,-1
 600 416 l 1,37,-1
 720 296 l 2,38,39
 729 287 729 287 741.5 287 c 128,-1,40
 754 287 754 287 763 296 c 2,41,-1
 904 437 l 2,42,43
 913 446 913 446 913 458.5 c 128,-1,44
 913 471 913 471 904 480 c 2,45,-1
 784 600 l 1,46,-1
 904 720 l 2,47,48
 913 729 913 729 913 741.5 c 128,-1,49
 913 754 913 754 904 763 c 2,50,-1
 763 904 l 2,51,16
 754 913 754 913 741.5 913 c 128,-1,17
EndSplineSet
EndChar

StartChar: uniE084
Encoding: 57476 57476 111
Width: 1200
GlyphClass: 2
Flags: W
LayerCount: 2
Fore
SplineSet
600 1177 m 128,-1,1
 717 1177 717 1177 824 1131.5 c 128,-1,2
 931 1086 931 1086 1008.5 1008.5 c 128,-1,3
 1086 931 1086 931 1131.5 824 c 128,-1,4
 1177 717 1177 717 1177 600 c 128,-1,5
 1177 483 1177 483 1131.5 376 c 128,-1,6
 1086 269 1086 269 1008.5 191.5 c 128,-1,7
 931 114 931 114 824 68.5 c 128,-1,8
 717 23 717 23 600 23 c 128,-1,9
 483 23 483 23 376 68.5 c 128,-1,10
 269 114 269 114 191.5 191.5 c 128,-1,11
 114 269 114 269 68.5 376 c 128,-1,12
 23 483 23 483 23 600 c 128,-1,13
 23 717 23 717 68.5 824 c 128,-1,14
 114 931 114 931 191.5 1008.5 c 128,-1,15
 269 1086 269 1086 376 1131.5 c 128,-1,0
 483 1177 483 1177 600 1177 c 128,-1,1
546 623 m 1,16,-1
 462 708 l 2,17,18
 455 715 455 715 444.5 715 c 128,-1,19
 434 715 434 715 426 708 c 2,20,-1
 287 569 l 2,21,22
 280 561 280 561 280 551 c 128,-1,23
 280 541 280 541 287 533 c 2,24,-1
 529 292 l 2,25,26
 536 284 536 284 546.5 284 c 128,-1,27
 557 284 557 284 564 292 c 2,28,-1
 939 667 l 2,29,30
 946 674 946 674 946 684.5 c 128,-1,31
 946 695 946 695 939 703 c 2,32,-1
 800 842 l 2,33,34
 793 849 793 849 782.5 849 c 128,-1,35
 772 849 772 849 765 842 c 2,36,-1
 546 623 l 1,16,-1
EndSplineSet
EndChar

StartChar: uniE085
Encoding: 57477 57477 112
Width: 1200
GlyphClass: 2
Flags: W
LayerCount: 2
Fore
SplineSet
600 1177 m 128,-1,1
 717 1177 717 1177 824 1131.5 c 128,-1,2
 931 1086 931 1086 1008.5 1008.5 c 128,-1,3
 1086 931 1086 931 1131.5 824 c 128,-1,4
 1177 717 1177 717 1177 600 c 128,-1,5
 1177 483 1177 483 1131.5 376 c 128,-1,6
 1086 269 1086 269 1008.5 191.5 c 128,-1,7
 931 114 931 114 824 68.5 c 128,-1,8
 717 23 717 23 600 23 c 128,-1,9
 483 23 483 23 376 68.5 c 128,-1,10
 269 114 269 114 191.5 191.5 c 128,-1,11
 114 269 114 269 68.5 376 c 128,-1,12
 23 483 23 483 23 600 c 128,-1,13
 23 717 23 717 68.5 824 c 128,-1,14
 114 931 114 931 191.5 1008.5 c 128,-1,15
 269 1086 269 1086 376 1131.5 c 128,-1,0
 483 1177 483 1177 600 1177 c 128,-1,1
588 941 m 256,16,17
 559 941 559 941 529 935.5 c 128,-1,18
 499 930 499 930 466 915 c 128,-1,19
 433 900 433 900 408 876.5 c 128,-1,20
 383 853 383 853 366.5 813.5 c 128,-1,21
 350 774 350 774 350 724 c 0,22,23
 350 699 350 699 370 699 c 2,24,-1
 501 699 l 1,25,26
 531 694 531 694 536 710 c 0,27,28
 542 730 542 730 556.5 738 c 128,-1,29
 571 746 571 746 602 746 c 0,30,31
 622 746 622 746 633.5 735.5 c 128,-1,32
 645 725 645 725 645 707 c 0,33,34
 645 684 645 684 638 673 c 128,-1,35
 631 662 631 662 612 655 c 0,36,37
 611 655 611 655 598.5 651 c 128,-1,38
 586 647 586 647 579 643.5 c 128,-1,39
 572 640 572 640 559 633 c 128,-1,40
 546 626 546 626 537 616 c 128,-1,41
 528 606 528 606 518.5 592 c 128,-1,42
 509 578 509 578 503 557 c 128,-1,43
 497 536 497 536 495 511 c 0,44,45
 494 503 494 503 500.5 494.5 c 128,-1,46
 507 486 507 486 521 486 c 2,47,-1
 694 486 l 2,48,49
 701 486 701 486 716 494 c 128,-1,50
 731 502 731 502 751 522 c 128,-1,51
 771 542 771 542 788.5 570 c 128,-1,52
 806 598 806 598 818 644 c 128,-1,53
 830 690 830 690 830 744 c 0,54,55
 830 791 830 791 813 827 c 128,-1,56
 796 863 796 863 770.5 884 c 128,-1,57
 745 905 745 905 711 918.5 c 128,-1,58
 677 932 677 932 647 936.5 c 128,-1,59
 617 941 617 941 588 941 c 256,16,17
675 400 m 2,60,-1
 525 400 l 2,61,62
 515 400 515 400 507.5 392.5 c 128,-1,63
 500 385 500 385 500 375 c 2,64,-1
 500 225 l 2,65,66
 500 215 500 215 507.5 207.5 c 128,-1,67
 515 200 515 200 525 200 c 2,68,-1
 675 200 l 2,69,70
 685 200 685 200 692.5 207.5 c 128,-1,71
 700 215 700 215 700 225 c 2,72,-1
 700 375 l 2,73,74
 700 385 700 385 692.5 392.5 c 128,-1,75
 685 400 685 400 675 400 c 2,60,-1
EndSplineSet
EndChar

StartChar: uniE086
Encoding: 57478 57478 113
Width: 1200
GlyphClass: 2
Flags: W
LayerCount: 2
Fore
SplineSet
600 1177 m 128,-1,1
 717 1177 717 1177 824 1131.5 c 128,-1,2
 931 1086 931 1086 1008.5 1008.5 c 128,-1,3
 1086 931 1086 931 1131.5 824 c 128,-1,4
 1177 717 1177 717 1177 600 c 128,-1,5
 1177 483 1177 483 1131.5 376 c 128,-1,6
 1086 269 1086 269 1008.5 191.5 c 128,-1,7
 931 114 931 114 824 68.5 c 128,-1,8
 717 23 717 23 600 23 c 128,-1,9
 483 23 483 23 376 68.5 c 128,-1,10
 269 114 269 114 191.5 191.5 c 128,-1,11
 114 269 114 269 68.5 376 c 128,-1,12
 23 483 23 483 23 600 c 128,-1,13
 23 717 23 717 68.5 824 c 128,-1,14
 114 931 114 931 191.5 1008.5 c 128,-1,15
 269 1086 269 1086 376 1131.5 c 128,-1,0
 483 1177 483 1177 600 1177 c 128,-1,1
675 1000 m 2,16,-1
 525 1000 l 2,17,18
 515 1000 515 1000 507.5 992.5 c 128,-1,19
 500 985 500 985 500 975 c 2,20,-1
 500 825 l 2,21,22
 500 815 500 815 507.5 807.5 c 128,-1,23
 515 800 515 800 525 800 c 2,24,-1
 675 800 l 2,25,26
 685 800 685 800 692.5 807.5 c 128,-1,27
 700 815 700 815 700 825 c 2,28,-1
 700 975 l 2,29,30
 700 985 700 985 692.5 992.5 c 128,-1,31
 685 1000 685 1000 675 1000 c 2,16,-1
675 700 m 2,32,-1
 425 700 l 2,33,34
 415 700 415 700 407.5 692.5 c 128,-1,35
 400 685 400 685 400 675 c 2,36,-1
 400 625 l 2,37,38
 400 615 400 615 407.5 607.5 c 128,-1,39
 415 600 415 600 425 600 c 2,40,-1
 500 600 l 1,41,-1
 500 400 l 1,42,-1
 425 400 l 2,43,44
 415 400 415 400 407.5 392.5 c 128,-1,45
 400 385 400 385 400 375 c 2,46,-1
 400 325 l 2,47,48
 400 315 400 315 407.5 307.5 c 128,-1,49
 415 300 415 300 425 300 c 2,50,-1
 775 300 l 2,51,52
 785 300 785 300 792.5 307.5 c 128,-1,53
 800 315 800 315 800 325 c 2,54,-1
 800 375 l 2,55,56
 800 385 800 385 792.5 392.5 c 128,-1,57
 785 400 785 400 775 400 c 2,58,-1
 700 400 l 1,59,-1
 700 675 l 2,60,61
 700 685 700 685 692.5 692.5 c 128,-1,62
 685 700 685 700 675 700 c 2,32,-1
EndSplineSet
EndChar

StartChar: uniE087
Encoding: 57479 57479 114
Width: 1200
GlyphClass: 2
Flags: W
LayerCount: 2
Fore
SplineSet
525 1200 m 2,0,-1
 675 1200 l 2,1,2
 685 1200 685 1200 692.5 1192.5 c 128,-1,3
 700 1185 700 1185 700 1175 c 2,4,-1
 700 981 l 1,5,6
 803 954 803 954 878.5 878.5 c 128,-1,7
 954 803 954 803 981 700 c 1,8,-1
 1175 700 l 2,9,10
 1185 700 1185 700 1192.5 692.5 c 128,-1,11
 1200 685 1200 685 1200 675 c 2,12,-1
 1200 525 l 2,13,14
 1200 515 1200 515 1192.5 507.5 c 128,-1,15
 1185 500 1185 500 1175 500 c 2,16,-1
 981 500 l 1,17,18
 954 397 954 397 878.5 321.5 c 128,-1,19
 803 246 803 246 700 219 c 1,20,-1
 700 25 l 2,21,22
 700 15 700 15 692.5 7.5 c 128,-1,23
 685 0 685 0 675 0 c 2,24,-1
 525 0 l 2,25,26
 515 0 515 0 507.5 7.5 c 128,-1,27
 500 15 500 15 500 25 c 2,28,-1
 500 219 l 1,29,30
 397 246 397 246 321.5 321.5 c 128,-1,31
 246 397 246 397 219 500 c 1,32,-1
 25 500 l 2,33,34
 15 500 15 500 7.5 507.5 c 128,-1,35
 0 515 0 515 0 525 c 2,36,-1
 0 675 l 2,37,38
 0 685 0 685 7.5 692.5 c 128,-1,39
 15 700 15 700 25 700 c 2,40,-1
 219 700 l 1,41,42
 246 803 246 803 321.5 878.5 c 128,-1,43
 397 954 397 954 500 981 c 1,44,-1
 500 1175 l 2,45,46
 500 1185 500 1185 507.5 1192.5 c 128,-1,47
 515 1200 515 1200 525 1200 c 2,0,-1
700 893 m 1,48,-1
 700 725 l 2,49,50
 700 715 700 715 692.5 707.5 c 128,-1,51
 685 700 685 700 675 700 c 2,52,-1
 525 700 l 2,53,54
 515 700 515 700 507.5 707.5 c 128,-1,55
 500 715 500 715 500 725 c 2,56,-1
 500 893 l 1,57,58
 432 870 432 870 381 819 c 128,-1,59
 330 768 330 768 307 700 c 1,60,-1
 475 700 l 2,61,62
 485 700 485 700 492.5 692.5 c 128,-1,63
 500 685 500 685 500 675 c 2,64,-1
 500 525 l 2,65,66
 500 515 500 515 492.5 507.5 c 128,-1,67
 485 500 485 500 475 500 c 2,68,-1
 307 500 l 1,69,70
 330 432 330 432 381 381 c 128,-1,71
 432 330 432 330 500 307 c 1,72,-1
 500 475 l 2,73,74
 500 485 500 485 507.5 492.5 c 128,-1,75
 515 500 515 500 525 500 c 2,76,-1
 675 500 l 2,77,78
 685 500 685 500 692.5 492.5 c 128,-1,79
 700 485 700 485 700 475 c 2,80,-1
 700 307 l 1,81,82
 768 330 768 330 819 381 c 128,-1,83
 870 432 870 432 893 500 c 1,84,-1
 725 500 l 2,85,86
 715 500 715 500 707.5 507.5 c 128,-1,87
 700 515 700 515 700 525 c 2,88,-1
 700 675 l 2,89,90
 700 685 700 685 707.5 692.5 c 128,-1,91
 715 700 715 700 725 700 c 2,92,-1
 893 700 l 1,93,94
 870 768 870 768 819 819 c 128,-1,95
 768 870 768 870 700 893 c 1,48,-1
EndSplineSet
EndChar

StartChar: uniE088
Encoding: 57480 57480 115
Width: 1200
GlyphClass: 2
Flags: W
LayerCount: 2
Fore
SplineSet
600 1177 m 128,-1,1
 717 1177 717 1177 824 1131.5 c 128,-1,2
 931 1086 931 1086 1008.5 1008.5 c 128,-1,3
 1086 931 1086 931 1131.5 824 c 128,-1,4
 1177 717 1177 717 1177 600 c 128,-1,5
 1177 483 1177 483 1131.5 376 c 128,-1,6
 1086 269 1086 269 1008.5 191.5 c 128,-1,7
 931 114 931 114 824 68.5 c 128,-1,8
 717 23 717 23 600 23 c 128,-1,9
 483 23 483 23 376 68.5 c 128,-1,10
 269 114 269 114 191.5 191.5 c 128,-1,11
 114 269 114 269 68.5 376 c 128,-1,12
 23 483 23 483 23 600 c 128,-1,13
 23 717 23 717 68.5 824 c 128,-1,14
 114 931 114 931 191.5 1008.5 c 128,-1,15
 269 1086 269 1086 376 1131.5 c 128,-1,0
 483 1177 483 1177 600 1177 c 128,-1,1
600 1027 m 128,-1,17
 484 1027 484 1027 385.5 970 c 128,-1,18
 287 913 287 913 230 814.5 c 128,-1,19
 173 716 173 716 173 600 c 128,-1,20
 173 484 173 484 230 385.5 c 128,-1,21
 287 287 287 287 385.5 230 c 128,-1,22
 484 173 484 173 600 173 c 128,-1,23
 716 173 716 173 814.5 230 c 128,-1,24
 913 287 913 287 970 385.5 c 128,-1,25
 1027 484 1027 484 1027 600 c 128,-1,26
 1027 716 1027 716 970 814.5 c 128,-1,27
 913 913 913 913 814.5 970 c 128,-1,16
 716 1027 716 1027 600 1027 c 128,-1,17
759 823 m 2,28,-1
 823 759 l 2,29,30
 830 752 830 752 830 741.5 c 128,-1,31
 830 731 830 731 823 724 c 2,32,-1
 699 600 l 1,33,-1
 823 476 l 2,34,35
 830 469 830 469 830 458.5 c 128,-1,36
 830 448 830 448 823 441 c 2,37,-1
 759 377 l 2,38,39
 752 370 752 370 741.5 370 c 128,-1,40
 731 370 731 370 724 377 c 2,41,-1
 600 501 l 1,42,-1
 476 377 l 2,43,44
 469 370 469 370 458.5 370 c 128,-1,45
 448 370 448 370 441 377 c 2,46,-1
 377 441 l 2,47,48
 370 448 370 448 370 458.5 c 128,-1,49
 370 469 370 469 377 476 c 2,50,-1
 501 600 l 1,51,-1
 377 724 l 2,52,53
 370 731 370 731 370 741.5 c 128,-1,54
 370 752 370 752 377 759 c 2,55,-1
 441 823 l 2,56,57
 448 830 448 830 458.5 830 c 128,-1,58
 469 830 469 830 476 823 c 2,59,-1
 600 699 l 1,60,-1
 724 823 l 2,61,62
 731 830 731 830 741.5 830 c 128,-1,63
 752 830 752 830 759 823 c 2,28,-1
EndSplineSet
EndChar

StartChar: uniE089
Encoding: 57481 57481 116
Width: 1200
GlyphClass: 2
Flags: W
LayerCount: 2
Fore
SplineSet
600 1177 m 128,-1,1
 717 1177 717 1177 824 1131.5 c 128,-1,2
 931 1086 931 1086 1008.5 1008.5 c 128,-1,3
 1086 931 1086 931 1131.5 824 c 128,-1,4
 1177 717 1177 717 1177 600 c 128,-1,5
 1177 483 1177 483 1131.5 376 c 128,-1,6
 1086 269 1086 269 1008.5 191.5 c 128,-1,7
 931 114 931 114 824 68.5 c 128,-1,8
 717 23 717 23 600 23 c 128,-1,9
 483 23 483 23 376 68.5 c 128,-1,10
 269 114 269 114 191.5 191.5 c 128,-1,11
 114 269 114 269 68.5 376 c 128,-1,12
 23 483 23 483 23 600 c 128,-1,13
 23 717 23 717 68.5 824 c 128,-1,14
 114 931 114 931 191.5 1008.5 c 128,-1,15
 269 1086 269 1086 376 1131.5 c 128,-1,0
 483 1177 483 1177 600 1177 c 128,-1,1
600 1027 m 128,-1,17
 484 1027 484 1027 385.5 970 c 128,-1,18
 287 913 287 913 230 814.5 c 128,-1,19
 173 716 173 716 173 600 c 128,-1,20
 173 484 173 484 230 385.5 c 128,-1,21
 287 287 287 287 385.5 230 c 128,-1,22
 484 173 484 173 600 173 c 128,-1,23
 716 173 716 173 814.5 230 c 128,-1,24
 913 287 913 287 970 385.5 c 128,-1,25
 1027 484 1027 484 1027 600 c 128,-1,26
 1027 716 1027 716 970 814.5 c 128,-1,27
 913 913 913 913 814.5 970 c 128,-1,16
 716 1027 716 1027 600 1027 c 128,-1,17
782 788 m 2,28,-1
 888 682 l 2,29,30
 895 675 895 675 895 664.5 c 128,-1,31
 895 654 895 654 888 647 c 2,32,-1
 568 326 l 2,33,34
 560 319 560 319 550 319 c 128,-1,35
 540 319 540 319 532 326 c 2,36,-1
 330 529 l 2,37,38
 322 536 322 536 322 546.5 c 128,-1,39
 322 557 322 557 330 564 c 2,40,-1
 436 670 l 2,41,42
 443 678 443 678 453.5 678 c 128,-1,43
 464 678 464 678 471 670 c 2,44,-1
 550 591 l 1,45,-1
 747 788 l 2,46,47
 754 795 754 795 764.5 795 c 128,-1,48
 775 795 775 795 782 788 c 2,28,-1
EndSplineSet
EndChar

StartChar: uniE090
Encoding: 57488 57488 117
Width: 1200
GlyphClass: 2
Flags: W
LayerCount: 2
Fore
SplineSet
600 1177 m 128,-1,1
 717 1177 717 1177 824 1131.5 c 128,-1,2
 931 1086 931 1086 1008.5 1008.5 c 128,-1,3
 1086 931 1086 931 1131.5 824 c 128,-1,4
 1177 717 1177 717 1177 600 c 128,-1,5
 1177 483 1177 483 1131.5 376 c 128,-1,6
 1086 269 1086 269 1008.5 191.5 c 128,-1,7
 931 114 931 114 824 68.5 c 128,-1,8
 717 23 717 23 600 23 c 128,-1,9
 483 23 483 23 376 68.5 c 128,-1,10
 269 114 269 114 191.5 191.5 c 128,-1,11
 114 269 114 269 68.5 376 c 128,-1,12
 23 483 23 483 23 600 c 128,-1,13
 23 717 23 717 68.5 824 c 128,-1,14
 114 931 114 931 191.5 1008.5 c 128,-1,15
 269 1086 269 1086 376 1131.5 c 128,-1,0
 483 1177 483 1177 600 1177 c 128,-1,1
600 1027 m 0,16,17
 484 1027 484 1027 385.5 970 c 128,-1,18
 287 913 287 913 230 814.5 c 128,-1,19
 173 716 173 716 173 600 c 0,20,21
 173 480 173 480 238 375 c 1,22,-1
 825 962 l 1,23,24
 720 1027 720 1027 600 1027 c 0,16,17
965 819 m 1,25,-1
 381 235 l 1,26,27
 485 173 485 173 600 173 c 0,28,29
 716 173 716 173 814.5 230 c 128,-1,30
 913 287 913 287 970 385.5 c 128,-1,31
 1027 484 1027 484 1027 600 c 0,32,33
 1027 715 1027 715 965 819 c 1,25,-1
EndSplineSet
EndChar

StartChar: uniE091
Encoding: 57489 57489 118
Width: 1200
GlyphClass: 2
Flags: W
LayerCount: 2
Fore
SplineSet
39 582 m 2,0,-1
 561 1009 l 2,1,2
 577 1022 577 1022 588.5 1017 c 128,-1,3
 600 1012 600 1012 600 991 c 2,4,-1
 600 700 l 1,5,-1
 1150 700 l 2,6,7
 1171 700 1171 700 1185.5 685.5 c 128,-1,8
 1200 671 1200 671 1200 650 c 2,9,-1
 1200 450 l 2,10,11
 1200 429 1200 429 1185.5 414.5 c 128,-1,12
 1171 400 1171 400 1150 400 c 2,13,-1
 600 400 l 1,14,-1
 600 109 l 2,15,16
 600 88 600 88 588.5 83 c 128,-1,17
 577 78 577 78 561 91 c 2,18,-1
 39 518 l 2,19,20
 23 531 23 531 23 550 c 128,-1,21
 23 569 23 569 39 582 c 2,0,-1
EndSplineSet
EndChar

StartChar: uniE092
Encoding: 57490 57490 119
Width: 1200
GlyphClass: 2
Flags: W
LayerCount: 2
Fore
SplineSet
639 1009 m 2,0,-1
 1161 582 l 2,1,2
 1177 569 1177 569 1177 550 c 128,-1,3
 1177 531 1177 531 1161 518 c 2,4,-1
 639 91 l 2,5,6
 623 78 623 78 611.5 83 c 128,-1,7
 600 88 600 88 600 109 c 2,8,-1
 600 400 l 1,9,-1
 50 400 l 2,10,11
 29 400 29 400 14.5 414.5 c 128,-1,12
 0 429 0 429 0 450 c 2,13,-1
 0 650 l 2,14,15
 0 671 0 671 14.5 685.5 c 128,-1,16
 29 700 29 700 50 700 c 2,17,-1
 600 700 l 1,18,-1
 600 991 l 2,19,20
 600 1012 600 1012 611.5 1017 c 128,-1,21
 623 1022 623 1022 639 1009 c 2,0,-1
EndSplineSet
EndChar

StartChar: uniE093
Encoding: 57491 57491 120
Width: 1200
GlyphClass: 2
Flags: W
LayerCount: 2
Fore
SplineSet
682 1161 m 2,0,-1
 1109 639 l 2,1,2
 1122 623 1122 623 1117 611.5 c 128,-1,3
 1112 600 1112 600 1091 600 c 2,4,-1
 800 600 l 1,5,-1
 800 50 l 2,6,7
 800 29 800 29 785.5 14.5 c 128,-1,8
 771 0 771 0 750 0 c 2,9,-1
 550 0 l 2,10,11
 529 0 529 0 514.5 14.5 c 128,-1,12
 500 29 500 29 500 50 c 2,13,-1
 500 600 l 1,14,-1
 209 600 l 2,15,16
 188 600 188 600 183 611.5 c 128,-1,17
 178 623 178 623 191 639 c 2,18,-1
 618 1161 l 2,19,20
 631 1177 631 1177 650 1177 c 128,-1,21
 669 1177 669 1177 682 1161 c 2,0,-1
EndSplineSet
EndChar

StartChar: uniE094
Encoding: 57492 57492 121
Width: 1200
GlyphClass: 2
Flags: W
LayerCount: 2
Fore
SplineSet
550 1200 m 2,0,-1
 750 1200 l 2,1,2
 771 1200 771 1200 785.5 1185.5 c 128,-1,3
 800 1171 800 1171 800 1150 c 2,4,-1
 800 600 l 1,5,-1
 1091 600 l 2,6,7
 1112 600 1112 600 1117 588.5 c 128,-1,8
 1122 577 1122 577 1109 561 c 2,9,-1
 682 39 l 2,10,11
 669 23 669 23 650 23 c 128,-1,12
 631 23 631 23 618 39 c 2,13,-1
 191 561 l 2,14,15
 178 577 178 577 183 588.5 c 128,-1,16
 188 600 188 600 209 600 c 2,17,-1
 500 600 l 1,18,-1
 500 1150 l 2,19,20
 500 1171 500 1171 514.5 1185.5 c 128,-1,21
 529 1200 529 1200 550 1200 c 2,0,-1
EndSplineSet
EndChar

StartChar: uniE095
Encoding: 57493 57493 122
Width: 1200
GlyphClass: 2
Flags: W
LayerCount: 2
Fore
SplineSet
639 1109 m 2,0,-1
 1161 682 l 2,1,2
 1177 669 1177 669 1177 650 c 128,-1,3
 1177 631 1177 631 1161 618 c 2,4,-1
 639 191 l 2,5,6
 623 178 623 178 611.5 183 c 128,-1,7
 600 188 600 188 600 209 c 2,8,-1
 600 500 l 1,9,10
 506 498 506 498 418 480 c 128,-1,11
 330 462 330 462 247.5 428 c 128,-1,12
 165 394 165 394 100.5 335.5 c 128,-1,13
 36 277 36 277 0 200 c 1,14,15
 5 305 5 305 27 393.5 c 128,-1,16
 49 482 49 482 94.5 560.5 c 128,-1,17
 140 639 140 639 207.5 695.5 c 128,-1,18
 275 752 275 752 374.5 787 c 128,-1,19
 474 822 474 822 600 829 c 1,20,-1
 600 1091 l 2,21,22
 600 1112 600 1112 611.5 1117 c 128,-1,23
 623 1122 623 1122 639 1109 c 2,0,-1
EndSplineSet
EndChar

StartChar: uniE096
Encoding: 57494 57494 123
Width: 1200
GlyphClass: 2
Flags: W
LayerCount: 2
Fore
SplineSet
850 1200 m 2,0,-1
 1150 1200 l 2,1,2
 1171 1200 1171 1200 1185.5 1185.5 c 128,-1,3
 1200 1171 1200 1171 1200 1150 c 2,4,-1
 1200 850 l 2,5,6
 1200 829 1200 829 1189.5 825 c 128,-1,7
 1179 821 1179 821 1165 835 c 2,8,-1
 1071 929 l 1,9,-1
 822 680 l 2,10,11
 814 673 814 673 804 673 c 128,-1,12
 794 673 794 673 786 680 c 2,13,-1
 680 786 l 2,14,15
 673 794 673 794 673 804 c 128,-1,16
 673 814 673 814 680 822 c 2,17,-1
 929 1071 l 1,18,-1
 835 1165 l 2,19,20
 821 1179 821 1179 825 1189.5 c 128,-1,21
 829 1200 829 1200 850 1200 c 2,0,-1
350 0 m 2,22,-1
 50 0 l 2,23,24
 29 0 29 0 14.5 14.5 c 128,-1,25
 0 29 0 29 0 50 c 2,26,-1
 0 350 l 2,27,28
 0 371 0 371 10.5 375 c 128,-1,29
 21 379 21 379 35 365 c 2,30,-1
 129 271 l 1,31,-1
 378 520 l 2,32,33
 386 527 386 527 396 527 c 128,-1,34
 406 527 406 527 414 520 c 2,35,-1
 520 414 l 2,36,37
 527 406 527 406 527 396 c 128,-1,38
 527 386 527 386 520 378 c 2,39,-1
 271 129 l 1,40,-1
 365 35 l 2,41,42
 379 21 379 21 375 10.5 c 128,-1,43
 371 0 371 0 350 0 c 2,22,-1
EndSplineSet
EndChar

StartChar: uniE097
Encoding: 57495 57495 124
Width: 1200
GlyphClass: 2
Flags: W
LayerCount: 2
Fore
SplineSet
1014 1120 m 2,0,-1
 1120 1014 l 2,1,2
 1127 1006 1127 1006 1127 996 c 128,-1,3
 1127 986 1127 986 1120 978 c 2,4,-1
 871 729 l 1,5,-1
 965 635 l 2,6,7
 979 621 979 621 975 610.5 c 128,-1,8
 971 600 971 600 950 600 c 2,9,-1
 650 600 l 2,10,11
 629 600 629 600 614.5 614.5 c 128,-1,12
 600 629 600 629 600 650 c 2,13,-1
 600 950 l 2,14,15
 600 971 600 971 610.5 975 c 128,-1,16
 621 979 621 979 635 965 c 2,17,-1
 729 871 l 1,18,-1
 978 1120 l 2,19,20
 986 1127 986 1127 996 1127 c 128,-1,21
 1006 1127 1006 1127 1014 1120 c 2,0,-1
250 600 m 2,22,-1
 550 600 l 2,23,24
 571 600 571 600 585.5 585.5 c 128,-1,25
 600 571 600 571 600 550 c 2,26,-1
 600 250 l 2,27,28
 600 229 600 229 589.5 225 c 128,-1,29
 579 221 579 221 565 235 c 2,30,-1
 471 329 l 1,31,-1
 222 80 l 2,32,33
 214 73 214 73 204 73 c 128,-1,34
 194 73 194 73 186 80 c 2,35,-1
 80 186 l 2,36,37
 73 194 73 194 73 204 c 128,-1,38
 73 214 73 214 80 222 c 2,39,-1
 329 471 l 1,40,-1
 235 565 l 2,41,42
 221 579 221 579 225 589.5 c 128,-1,43
 229 600 229 600 250 600 c 2,22,-1
EndSplineSet
EndChar

StartChar: uniE101
Encoding: 57601 57601 125
Width: 1200
GlyphClass: 2
Flags: W
LayerCount: 2
Fore
SplineSet
600 1177 m 128,-1,1
 717 1177 717 1177 824 1131.5 c 128,-1,2
 931 1086 931 1086 1008.5 1008.5 c 128,-1,3
 1086 931 1086 931 1131.5 824 c 128,-1,4
 1177 717 1177 717 1177 600 c 128,-1,5
 1177 483 1177 483 1131.5 376 c 128,-1,6
 1086 269 1086 269 1008.5 191.5 c 128,-1,7
 931 114 931 114 824 68.5 c 128,-1,8
 717 23 717 23 600 23 c 128,-1,9
 483 23 483 23 376 68.5 c 128,-1,10
 269 114 269 114 191.5 191.5 c 128,-1,11
 114 269 114 269 68.5 376 c 128,-1,12
 23 483 23 483 23 600 c 128,-1,13
 23 717 23 717 68.5 824 c 128,-1,14
 114 931 114 931 191.5 1008.5 c 128,-1,15
 269 1086 269 1086 376 1131.5 c 128,-1,0
 483 1177 483 1177 600 1177 c 128,-1,1
704 900 m 2,16,-1
 496 900 l 2,17,18
 476 900 476 900 464 885.5 c 128,-1,19
 452 871 452 871 456 851 c 2,20,-1
 514 549 l 2,21,22
 518 529 518 529 535.5 514.5 c 128,-1,23
 553 500 553 500 573 500 c 2,24,-1
 627 500 l 2,25,26
 647 500 647 500 664.5 514.5 c 128,-1,27
 682 529 682 529 686 549 c 2,28,-1
 744 851 l 2,29,30
 748 871 748 871 736 885.5 c 128,-1,31
 724 900 724 900 704 900 c 2,16,-1
675 400 m 2,32,-1
 525 400 l 2,33,34
 515 400 515 400 507.5 392.5 c 128,-1,35
 500 385 500 385 500 375 c 2,36,-1
 500 225 l 2,37,38
 500 215 500 215 507.5 207.5 c 128,-1,39
 515 200 515 200 525 200 c 2,40,-1
 675 200 l 2,41,42
 685 200 685 200 692.5 207.5 c 128,-1,43
 700 215 700 215 700 225 c 2,44,-1
 700 375 l 2,45,46
 700 385 700 385 692.5 392.5 c 128,-1,47
 685 400 685 400 675 400 c 2,32,-1
EndSplineSet
EndChar

StartChar: uniE102
Encoding: 57602 57602 126
Width: 1200
GlyphClass: 2
Flags: W
LayerCount: 2
Fore
SplineSet
260 1200 m 0,0,1
 269 1200 269 1200 279 1198 c 128,-1,2
 289 1196 289 1196 294 1194 c 2,3,-1
 299 1192 l 2,4,5
 321 1182 321 1182 343 1169 c 2,6,-1
 539 1051 l 2,7,8
 560 1038 560 1038 575 1027 c 0,9,10
 604 1006 604 1006 612 1015 c 0,11,12
 623 1028 623 1028 661 1050 c 2,13,-1
 857 1168 l 2,14,15
 879 1181 879 1181 902 1191 c 0,16,17
 919 1198 919 1198 940 1198 c 0,18,19
 963 1198 963 1198 987 1181.5 c 128,-1,20
 1011 1165 1011 1165 1024 1148 c 2,21,-1
 1037 1132 l 2,22,23
 1051 1111 1051 1111 1055 1087 c 2,24,-1
 1080 964 l 1,25,-1
 1088 920 l 2,26,27
 1089 911 1089 911 1096.5 905.5 c 128,-1,28
 1104 900 1104 900 1114 900 c 2,29,-1
 1175 900 l 2,30,31
 1185 900 1185 900 1192.5 892.5 c 128,-1,32
 1200 885 1200 885 1200 875 c 2,33,-1
 1200 825 l 2,34,35
 1200 815 1200 815 1192.5 807.5 c 128,-1,36
 1185 800 1185 800 1175 800 c 2,37,-1
 1125 800 l 2,38,39
 1115 800 1115 800 1107.5 792.5 c 128,-1,40
 1100 785 1100 785 1100 775 c 2,41,-1
 1100 600 l 1,42,-1
 700 600 l 1,43,-1
 700 900 l 1,44,-1
 500 900 l 1,45,-1
 500 600 l 1,46,-1
 100 600 l 1,47,-1
 100 775 l 2,48,49
 100 785 100 785 92.5 792.5 c 128,-1,50
 85 800 85 800 75 800 c 2,51,-1
 25 800 l 2,52,53
 15 800 15 800 7.5 807.5 c 128,-1,54
 0 815 0 815 0 825 c 2,55,-1
 0 875 l 2,56,57
 0 885 0 885 7.5 892.5 c 128,-1,58
 15 900 15 900 25 900 c 2,59,-1
 86 900 l 2,60,61
 97 900 97 900 104 903 c 128,-1,62
 111 906 111 906 111 911 c 0,63,64
 111 915 111 915 120 963 c 2,65,-1
 145 1091 l 2,66,67
 150 1116 150 1116 164 1136 c 0,68,69
 166 1139 166 1139 169 1143 c 128,-1,70
 172 1147 172 1147 182.5 1158 c 128,-1,71
 193 1169 193 1169 204 1177.5 c 128,-1,72
 215 1186 215 1186 230.5 1193 c 128,-1,73
 246 1200 246 1200 260 1200 c 0,0,1
915 1079 m 2,74,-1
 749 917 l 2,75,76
 742 910 742 910 744 905 c 128,-1,77
 746 900 746 900 756 900 c 2,78,-1
 975 900 l 2,79,80
 985 900 985 900 990 907 c 128,-1,81
 995 914 995 914 992 924 c 2,82,-1
 941 1073 l 2,83,84
 938 1083 938 1083 930 1085 c 128,-1,85
 922 1087 922 1087 915 1079 c 2,74,-1
463 917 m 2,86,-1
 286 1074 l 2,87,88
 278 1081 278 1081 270 1079 c 128,-1,89
 262 1077 262 1077 259 1067 c 2,90,-1
 208 924 l 2,91,92
 205 914 205 914 210 907 c 128,-1,93
 215 900 215 900 225 900 c 2,94,-1
 456 900 l 2,95,96
 467 900 467 900 468.5 905 c 128,-1,97
 470 910 470 910 463 917 c 2,86,-1
500 0 m 1,98,-1
 125 0 l 2,99,100
 115 0 115 0 107.5 7.5 c 128,-1,101
 100 15 100 15 100 25 c 2,102,-1
 100 400 l 1,103,-1
 500 400 l 1,104,-1
 500 0 l 1,98,-1
1100 400 m 1,105,-1
 1100 25 l 2,106,107
 1100 15 1100 15 1092.5 7.5 c 128,-1,108
 1085 0 1085 0 1075 0 c 2,109,-1
 700 0 l 1,110,-1
 700 400 l 1,111,-1
 1100 400 l 1,105,-1
EndSplineSet
EndChar

StartChar: uniE103
Encoding: 57603 57603 127
Width: 1200
GlyphClass: 2
Flags: W
LayerCount: 2
Fore
SplineSet
1165 1190 m 0,0,1
 1173 1193 1173 1193 1186 1183.5 c 128,-1,2
 1199 1174 1199 1174 1199 1166 c 0,3,4
 1197 988 1197 988 1174.5 842.5 c 128,-1,5
 1152 697 1152 697 1119 597 c 128,-1,6
 1086 497 1086 497 1032 422.5 c 128,-1,7
 978 348 978 348 929.5 304 c 128,-1,8
 881 260 881 260 811.5 235.5 c 128,-1,9
 742 211 742 211 693 202.5 c 128,-1,10
 644 194 644 194 573 198 c 128,-1,11
 502 202 502 202 468 207.5 c 128,-1,12
 434 213 434 213 378 224 c 0,13,14
 317 236 317 236 300 235 c 0,15,16
 296 236 296 236 287.5 235 c 128,-1,17
 279 234 279 234 253.5 220.5 c 128,-1,18
 228 207 228 207 201 180 c 2,19,-1
 48 27 l 2,20,21
 22 3 22 3 11 12.5 c 128,-1,22
 0 22 0 22 0 56 c 0,23,24
 0 120 0 120 42 158 c 0,25,26
 50 166 50 166 92.5 203 c 128,-1,27
 135 240 135 240 159 261 c 0,28,29
 178 278 178 278 194 308 c 128,-1,30
 210 338 210 338 207 369 c 0,31,32
 198 424 198 424 197 471.5 c 128,-1,33
 196 519 196 519 204 582.5 c 128,-1,34
 212 646 212 646 241 712.5 c 128,-1,35
 270 779 270 779 319 842 c 0,36,37
 358 893 358 893 399 930 c 128,-1,38
 440 967 440 967 488.5 993.5 c 128,-1,39
 537 1020 537 1020 583 1038.5 c 128,-1,40
 629 1057 629 1057 696.5 1074.5 c 128,-1,41
 764 1092 764 1092 825.5 1105.5 c 128,-1,42
 887 1119 887 1119 983 1142.5 c 128,-1,43
 1079 1166 1079 1166 1165 1190 c 0,0,1
1116 1098 m 256,44,45
 1108 1107 1108 1107 1093.5 1095 c 128,-1,46
 1079 1083 1079 1083 1048 1045 c 0,47,48
 1010 998 1010 998 929 941.5 c 128,-1,49
 848 885 848 885 787 852 c 2,50,-1
 725 819 l 2,51,52
 669 789 669 789 623 762 c 128,-1,53
 577 735 577 735 519 694 c 128,-1,54
 461 653 461 653 416.5 613.5 c 128,-1,55
 372 574 372 574 331 522.5 c 128,-1,56
 290 471 290 471 267 418 c 0,57,58
 243 362 243 362 236 332 c 128,-1,59
 229 302 229 302 238 300 c 128,-1,60
 247 298 247 298 269.5 317.5 c 128,-1,61
 292 337 292 337 325 377 c 0,62,63
 350 407 350 407 419 452.5 c 128,-1,64
 488 498 488 498 544.5 530 c 128,-1,65
 601 562 601 562 692 611 c 0,66,67
 762 648 762 648 810.5 680 c 128,-1,68
 859 712 859 712 912.5 759.5 c 128,-1,69
 966 807 966 807 1011.5 870.5 c 128,-1,70
 1057 934 1057 934 1098 1019 c 0,71,72
 1120 1069 1120 1069 1122 1079 c 128,-1,73
 1124 1089 1124 1089 1116 1098 c 256,44,45
EndSplineSet
EndChar

StartChar: uniE104
Encoding: 57604 57604 128
Width: 1200
GlyphClass: 2
Flags: W
LayerCount: 2
Fore
SplineSet
653 1231 m 1,0,1
 614 1164 614 1164 598.5 1100 c 128,-1,2
 583 1036 583 1036 588 985.5 c 128,-1,3
 593 935 593 935 612.5 889 c 128,-1,4
 632 843 632 843 660 809 c 128,-1,5
 688 775 688 775 723.5 746.5 c 128,-1,6
 759 718 759 718 792 700 c 128,-1,7
 825 682 825 682 857 670 c 1,8,9
 853 677 853 677 839.5 705 c 128,-1,10
 826 733 826 733 821 744.5 c 128,-1,11
 816 756 816 756 804 784 c 128,-1,12
 792 812 792 812 787 827 c 128,-1,13
 782 842 782 842 774 869 c 128,-1,14
 766 896 766 896 764.5 913.5 c 128,-1,15
 763 931 763 931 762.5 955.5 c 128,-1,16
 762 980 762 980 766.5 998.5 c 128,-1,17
 771 1017 771 1017 780 1037.5 c 128,-1,18
 789 1058 789 1058 803 1076 c 1,19,20
 899 1034 899 1034 968 968.5 c 128,-1,21
 1037 903 1037 903 1073 830.5 c 128,-1,22
 1109 758 1109 758 1125 674.5 c 128,-1,23
 1141 591 1141 591 1138 515.5 c 128,-1,24
 1135 440 1135 440 1119 366 c 0,25,26
 1106 311 1106 311 1075 259.5 c 128,-1,27
 1044 208 1044 208 1007 172.5 c 128,-1,28
 970 137 970 137 928.5 108 c 128,-1,29
 887 79 887 79 856 63 c 128,-1,30
 825 47 825 47 803 41 c 0,31,32
 731 19 731 19 676 30 c 0,33,34
 645 36 645 36 663 49 c 0,35,36
 669 52 669 52 680 56 c 0,37,38
 693 61 693 61 712.5 77 c 128,-1,39
 732 93 732 93 753.5 121 c 128,-1,40
 775 149 775 149 792 184.5 c 128,-1,41
 809 220 809 220 813.5 266 c 128,-1,42
 818 312 818 312 807 360.5 c 128,-1,43
 796 409 796 409 757 467.5 c 128,-1,44
 718 526 718 526 653 583 c 1,45,46
 663 479 663 479 652.5 394 c 128,-1,47
 642 309 642 309 615.5 253.5 c 128,-1,48
 589 198 589 198 550.5 160.5 c 128,-1,49
 512 123 512 123 466.5 108.5 c 128,-1,50
 421 94 421 94 373 97.5 c 128,-1,51
 325 101 325 101 278 122 c 0,52,53
 198 158 198 158 146.5 236 c 128,-1,54
 95 314 95 314 93 407 c 0,55,56
 91 430 91 430 93 456.5 c 128,-1,57
 95 483 95 483 97.5 509 c 128,-1,58
 100 535 100 535 111 565 c 128,-1,59
 122 595 122 595 138.5 625 c 128,-1,60
 155 655 155 655 184.5 689.5 c 128,-1,61
 214 724 214 724 254 758 c 1,62,63
 246 705 246 705 249 655.5 c 128,-1,64
 252 606 252 606 266.5 565.5 c 128,-1,65
 281 525 281 525 300.5 497 c 128,-1,66
 320 469 320 469 345 458 c 128,-1,67
 370 447 370 447 394 456 c 0,68,69
 425 469 425 469 432.5 492 c 128,-1,70
 440 515 440 515 428 547 c 128,-1,71
 416 579 416 579 399 611.5 c 128,-1,72
 382 644 382 644 363 686.5 c 128,-1,73
 344 729 344 729 337 762 c 0,74,75
 322 847 322 847 339 923.5 c 128,-1,76
 356 1000 356 1000 392.5 1052 c 128,-1,77
 429 1104 429 1104 478 1144.5 c 128,-1,78
 527 1185 527 1185 571.5 1205.5 c 128,-1,79
 616 1226 616 1226 653 1231 c 1,0,1
EndSplineSet
EndChar

StartChar: uniE105
Encoding: 57605 57605 129
Width: 1200
GlyphClass: 2
Flags: W
LayerCount: 2
Fore
SplineSet
600 1094 m 128,-1,1
 682 1094 682 1094 760.5 1071.5 c 128,-1,2
 839 1049 839 1049 900.5 1012.5 c 128,-1,3
 962 976 962 976 1017 930 c 128,-1,4
 1072 884 1072 884 1111.5 835 c 128,-1,5
 1151 786 1151 786 1179.5 740 c 128,-1,6
 1208 694 1208 694 1222 657.5 c 128,-1,7
 1236 621 1236 621 1236 600 c 128,-1,8
 1236 579 1236 579 1222 542.5 c 128,-1,9
 1208 506 1208 506 1179 460 c 128,-1,10
 1150 414 1150 414 1110.5 365 c 128,-1,11
 1071 316 1071 316 1016 270 c 128,-1,12
 961 224 961 224 899.5 187.5 c 128,-1,13
 838 151 838 151 759.5 128.5 c 128,-1,14
 681 106 681 106 600 106 c 128,-1,15
 519 106 519 106 440.5 128.5 c 128,-1,16
 362 151 362 151 300.5 187.5 c 128,-1,17
 239 224 239 224 184 270 c 128,-1,18
 129 316 129 316 89.5 365 c 128,-1,19
 50 414 50 414 21 460 c 128,-1,20
 -8 506 -8 506 -22 542.5 c 128,-1,21
 -36 579 -36 579 -36 600 c 128,-1,22
 -36 621 -36 621 -22 657.5 c 128,-1,23
 -8 694 -8 694 20.5 740 c 128,-1,24
 49 786 49 786 88.5 835 c 128,-1,25
 128 884 128 884 183 930 c 128,-1,26
 238 976 238 976 299.5 1012.5 c 128,-1,27
 361 1049 361 1049 439.5 1071.5 c 128,-1,0
 518 1094 518 1094 600 1094 c 128,-1,1
888 829 m 0,28,29
 873 844 873 844 870 841 c 128,-1,30
 867 838 867 838 875 819 c 0,31,32
 900 762 900 762 900 700 c 0,33,34
 900 576 900 576 812 488 c 128,-1,35
 724 400 724 400 600 400 c 128,-1,36
 476 400 476 400 388 488 c 128,-1,37
 300 576 300 576 300 700 c 0,38,39
 300 759 300 759 323 814 c 0,40,41
 331 833 331 833 327.5 836 c 128,-1,42
 324 839 324 839 310 824 c 0,43,44
 240 755 240 755 150 640 c 0,45,46
 137 624 137 624 135 599.5 c 128,-1,47
 133 575 133 575 144 557 c 0,48,49
 166 521 166 521 191 486 c 128,-1,50
 216 451 216 451 261 404 c 128,-1,51
 306 357 306 357 353.5 323 c 128,-1,52
 401 289 401 289 466.5 264.5 c 128,-1,53
 532 240 532 240 600 240 c 128,-1,54
 668 240 668 240 733.5 264 c 128,-1,55
 799 288 799 288 846.5 322.5 c 128,-1,56
 894 357 894 357 939 404 c 128,-1,57
 984 451 984 451 1009 485.5 c 128,-1,58
 1034 520 1034 520 1056 556 c 0,59,60
 1067 574 1067 574 1065 598.5 c 128,-1,61
 1063 623 1063 623 1051 640 c 0,62,63
 961 757 961 757 888 829 c 0,28,29
448 727 m 2,64,-1
 413 691 l 2,65,66
 398 676 398 676 393.5 652.5 c 128,-1,67
 389 629 389 629 398 611 c 0,68,69
 435 543 435 543 491 495 c 0,70,71
 507 482 507 482 529.5 484 c 128,-1,72
 552 486 552 486 566 501 c 2,73,-1
 601 535 l 2,74,75
 615 550 615 550 613.5 568.5 c 128,-1,76
 612 587 612 587 597 602 c 0,77,78
 553 646 553 646 508 719 c 0,79,80
 497 737 497 737 480 739 c 128,-1,81
 463 741 463 741 448 727 c 2,64,-1
EndSplineSet
EndChar

StartChar: uniE106
Encoding: 57606 57606 130
Width: 1200
GlyphClass: 2
Flags: W
LayerCount: 2
Fore
SplineSet
592 0 m 1,0,-1
 444 0 l 1,1,-1
 475 120 l 1,2,3
 384 140 384 140 299.5 188.5 c 128,-1,4
 215 237 215 237 156 295 c 128,-1,5
 97 353 97 353 52.5 414 c 128,-1,6
 8 475 8 475 -14 524 c 128,-1,7
 -36 573 -36 573 -36 600 c 0,8,9
 -36 621 -36 621 -22 657.5 c 128,-1,10
 -8 694 -8 694 20.5 740 c 128,-1,11
 49 786 49 786 88.5 835 c 128,-1,12
 128 884 128 884 183 930 c 128,-1,13
 238 976 238 976 299.5 1012.5 c 128,-1,14
 361 1049 361 1049 439.5 1071.5 c 128,-1,15
 518 1094 518 1094 600 1094 c 0,16,17
 661 1094 661 1094 726 1079 c 1,18,-1
 758 1200 l 1,19,-1
 906 1200 l 1,20,-1
 592 0 l 1,0,-1
944 770 m 1,21,-1
 991 951 l 1,22,23
 1099 866 1099 866 1167.5 759 c 128,-1,24
 1236 652 1236 652 1236 600 c 0,25,26
 1236 574 1236 574 1216.5 529 c 128,-1,27
 1197 484 1197 484 1157 427 c 128,-1,28
 1117 370 1117 370 1064 315 c 128,-1,29
 1011 260 1011 260 935 210.5 c 128,-1,30
 859 161 859 161 777 135 c 1,31,-1
 823 308 l 1,32,33
 900 357 900 357 959 425 c 128,-1,34
 1018 493 1018 493 1056 556 c 0,35,36
 1067 574 1067 574 1065 598.5 c 128,-1,37
 1063 623 1063 623 1051 640 c 0,38,39
 997 710 997 710 944 770 c 1,21,-1
310 824 m 0,40,41
 240 755 240 755 150 640 c 0,42,43
 137 624 137 624 135 599.5 c 128,-1,44
 133 575 133 575 144 557 c 0,45,46
 162 527 162 527 183 497 c 128,-1,47
 204 467 204 467 240 426.5 c 128,-1,48
 276 386 276 386 314 353.5 c 128,-1,49
 352 321 352 321 404 292.5 c 128,-1,50
 456 264 456 264 509 251 c 1,51,-1
 550 405 l 1,52,53
 443 423 443 423 371.5 506.5 c 128,-1,54
 300 590 300 590 300 700 c 0,55,56
 300 759 300 759 323 814 c 0,57,58
 331 833 331 833 327.5 836 c 128,-1,59
 324 839 324 839 310 824 c 0,40,41
448 727 m 2,60,-1
 413 691 l 2,61,62
 398 676 398 676 393.5 652.5 c 128,-1,63
 389 629 389 629 398 611 c 0,64,65
 435 543 435 543 491 495 c 0,66,67
 507 482 507 482 529.5 484 c 128,-1,68
 552 486 552 486 566 501 c 2,69,-1
 578 512 l 1,70,-1
 600 598 l 1,71,-1
 597 602 l 1,72,73
 553 646 553 646 508 719 c 0,74,75
 497 737 497 737 480 739 c 128,-1,76
 463 741 463 741 448 727 c 2,60,-1
EndSplineSet
EndChar

StartChar: uniE107
Encoding: 57607 57607 131
Width: 1200
GlyphClass: 2
Flags: W
LayerCount: 2
Fore
SplineSet
-90 100 m 2,0,-1
 552 1166 l 2,1,2
 572 1197 572 1197 600 1194.5 c 128,-1,3
 628 1192 628 1192 648 1159 c 2,4,-1
 1290 103 l 2,5,6
 1311 71 1311 71 1297.5 35.5 c 128,-1,7
 1284 0 1284 0 1247 0 c 2,8,-1
 -47 0 l 2,9,10
 -84 0 -84 0 -97.5 34 c 128,-1,11
 -111 68 -111 68 -90 100 c 2,0,-1
155 200 m 1,12,-1
 500 200 l 1,13,-1
 500 275 l 2,14,15
 500 285 500 285 507.5 292.5 c 128,-1,16
 515 300 515 300 525 300 c 2,17,-1
 675 300 l 2,18,19
 685 300 685 300 692.5 292.5 c 128,-1,20
 700 285 700 285 700 275 c 2,21,-1
 700 200 l 1,22,-1
 1045 200 l 1,23,-1
 600 923 l 1,24,-1
 155 200 l 1,12,-1
496 700 m 2,25,-1
 704 700 l 2,26,27
 724 700 724 700 736 685.5 c 128,-1,28
 748 671 748 671 744 651 c 2,29,-1
 686 399 l 2,30,31
 682 379 682 379 664.5 364.5 c 128,-1,32
 647 350 647 350 627 350 c 2,33,-1
 573 350 l 2,34,35
 553 350 553 350 535.5 364.5 c 128,-1,36
 518 379 518 379 514 399 c 2,37,-1
 456 651 l 2,38,39
 452 671 452 671 464 685.5 c 128,-1,40
 476 700 476 700 496 700 c 2,25,-1
EndSplineSet
EndChar

StartChar: uniE108
Encoding: 57608 57608 132
Width: 1200
GlyphClass: 2
Flags: W
LayerCount: 2
Fore
SplineSet
650 1200 m 128,-1,1
 712 1200 712 1200 756 1156 c 128,-1,2
 800 1112 800 1112 800 1050 c 2,3,-1
 800 711 l 1,4,-1
 1163 386 l 2,5,6
 1178 372 1178 372 1189 347.5 c 128,-1,7
 1200 323 1200 323 1200 303 c 2,8,-1
 1200 262 l 2,9,10
 1200 242 1200 242 1188 235.5 c 128,-1,11
 1176 229 1176 229 1159 241 c 2,12,-1
 800 490 l 1,13,-1
 800 227 l 1,14,15
 900 134 900 134 900 114 c 2,16,-1
 900 50 l 2,17,18
 900 29 900 29 887 21 c 128,-1,19
 874 13 874 13 855 22 c 2,20,-1
 650 150 l 1,21,-1
 445 22 l 2,22,23
 426 13 426 13 413 21 c 128,-1,24
 400 29 400 29 400 50 c 2,25,-1
 400 114 l 2,26,27
 400 134 400 134 500 227 c 1,28,-1
 500 490 l 1,29,-1
 141 241 l 2,30,31
 124 229 124 229 112 235.5 c 128,-1,32
 100 242 100 242 100 262 c 2,33,-1
 100 303 l 2,34,35
 100 323 100 323 111 347.5 c 128,-1,36
 122 372 122 372 137 386 c 2,37,-1
 500 711 l 1,38,-1
 500 1050 l 2,39,40
 500 1112 500 1112 544 1156 c 128,-1,0
 588 1200 588 1200 650 1200 c 128,-1,1
EndSplineSet
EndChar

StartChar: uniE109
Encoding: 57609 57609 133
Width: 1200
GlyphClass: 2
Flags: W
LayerCount: 2
Fore
SplineSet
850 1200 m 2,0,-1
 950 1200 l 2,1,2
 971 1200 971 1200 985.5 1185.5 c 128,-1,3
 1000 1171 1000 1171 1000 1150 c 2,4,-1
 1000 1100 l 1,5,-1
 1050 1100 l 2,6,7
 1071 1100 1071 1100 1085.5 1085.5 c 128,-1,8
 1100 1071 1100 1071 1100 1050 c 2,9,-1
 1100 900 l 1,10,-1
 0 900 l 1,11,-1
 0 1050 l 2,12,13
 0 1071 0 1071 14.5 1085.5 c 128,-1,14
 29 1100 29 1100 50 1100 c 2,15,-1
 100 1100 l 1,16,-1
 100 1150 l 2,17,18
 100 1171 100 1171 114.5 1185.5 c 128,-1,19
 129 1200 129 1200 150 1200 c 2,20,-1
 250 1200 l 2,21,22
 271 1200 271 1200 285.5 1185.5 c 128,-1,23
 300 1171 300 1171 300 1150 c 2,24,-1
 300 1100 l 1,25,-1
 800 1100 l 1,26,-1
 800 1150 l 2,27,28
 800 1171 800 1171 814.5 1185.5 c 128,-1,29
 829 1200 829 1200 850 1200 c 2,0,-1
1100 800 m 1,30,-1
 1100 50 l 2,31,32
 1100 29 1100 29 1085.5 14.5 c 128,-1,33
 1071 0 1071 0 1050 0 c 2,34,-1
 50 0 l 2,35,36
 29 0 29 0 14.5 14.5 c 128,-1,37
 0 29 0 29 0 50 c 2,38,-1
 0 800 l 1,39,-1
 1100 800 l 1,30,-1
100 600 m 1,40,-1
 100 500 l 1,41,-1
 200 500 l 1,42,-1
 200 600 l 1,43,-1
 100 600 l 1,40,-1
300 600 m 1,44,-1
 300 500 l 1,45,-1
 400 500 l 1,46,-1
 400 600 l 1,47,-1
 300 600 l 1,44,-1
500 600 m 1,48,-1
 500 500 l 1,49,-1
 600 500 l 1,50,-1
 600 600 l 1,51,-1
 500 600 l 1,48,-1
700 600 m 1,52,-1
 700 500 l 1,53,-1
 800 500 l 1,54,-1
 800 600 l 1,55,-1
 700 600 l 1,52,-1
900 600 m 1,56,-1
 900 500 l 1,57,-1
 1000 500 l 1,58,-1
 1000 600 l 1,59,-1
 900 600 l 1,56,-1
100 400 m 1,60,-1
 100 300 l 1,61,-1
 200 300 l 1,62,-1
 200 400 l 1,63,-1
 100 400 l 1,60,-1
300 400 m 1,64,-1
 300 300 l 1,65,-1
 400 300 l 1,66,-1
 400 400 l 1,67,-1
 300 400 l 1,64,-1
500 400 m 1,68,-1
 500 300 l 1,69,-1
 600 300 l 1,70,-1
 600 400 l 1,71,-1
 500 400 l 1,68,-1
700 400 m 1,72,-1
 700 300 l 1,73,-1
 800 300 l 1,74,-1
 800 400 l 1,75,-1
 700 400 l 1,72,-1
900 400 m 1,76,-1
 900 300 l 1,77,-1
 1000 300 l 1,78,-1
 1000 400 l 1,79,-1
 900 400 l 1,76,-1
100 200 m 1,80,-1
 100 100 l 1,81,-1
 200 100 l 1,82,-1
 200 200 l 1,83,-1
 100 200 l 1,80,-1
300 200 m 1,84,-1
 300 100 l 1,85,-1
 400 100 l 1,86,-1
 400 200 l 1,87,-1
 300 200 l 1,84,-1
500 200 m 1,88,-1
 500 100 l 1,89,-1
 600 100 l 1,90,-1
 600 200 l 1,91,-1
 500 200 l 1,88,-1
700 200 m 1,92,-1
 700 100 l 1,93,-1
 800 100 l 1,94,-1
 800 200 l 1,95,-1
 700 200 l 1,92,-1
900 200 m 1,96,-1
 900 100 l 1,97,-1
 1000 100 l 1,98,-1
 1000 200 l 1,99,-1
 900 200 l 1,96,-1
EndSplineSet
EndChar

StartChar: uniE110
Encoding: 57616 57616 134
Width: 1200
GlyphClass: 2
Flags: W
LayerCount: 2
Fore
SplineSet
1135 1165 m 2,0,-1
 1384 935 l 2,1,2
 1399 921 1399 921 1399 900 c 128,-1,3
 1399 879 1399 879 1384 865 c 2,4,-1
 1135 635 l 2,5,6
 1121 621 1121 621 1110.5 625 c 128,-1,7
 1100 629 1100 629 1100 650 c 2,8,-1
 1100 800 l 1,9,-1
 941 800 l 1,10,-1
 341 200 l 1,11,-1
 50 200 l 2,12,13
 29 200 29 200 14.5 214.5 c 128,-1,14
 0 229 0 229 0 250 c 2,15,-1
 0 350 l 2,16,17
 0 371 0 371 14.5 385.5 c 128,-1,18
 29 400 29 400 50 400 c 2,19,-1
 259 400 l 1,20,-1
 859 1000 l 1,21,-1
 1100 1000 l 1,22,-1
 1100 1150 l 2,23,24
 1100 1171 1100 1171 1110.5 1175 c 128,-1,25
 1121 1179 1121 1179 1135 1165 c 2,0,-1
522 819 m 1,26,-1
 381 678 l 1,27,-1
 259 800 l 1,28,-1
 50 800 l 2,29,30
 29 800 29 800 14.5 814.5 c 128,-1,31
 0 829 0 829 0 850 c 2,32,-1
 0 950 l 2,33,34
 0 971 0 971 14.5 985.5 c 128,-1,35
 29 1000 29 1000 50 1000 c 2,36,-1
 341 1000 l 1,37,-1
 522 819 l 1,26,-1
1135 565 m 2,38,-1
 1384 335 l 2,39,40
 1399 321 1399 321 1399 300 c 128,-1,41
 1399 279 1399 279 1384 265 c 2,42,-1
 1135 35 l 2,43,44
 1121 21 1121 21 1110.5 25 c 128,-1,45
 1100 29 1100 29 1100 50 c 2,46,-1
 1100 200 l 1,47,-1
 859 200 l 1,48,-1
 678 381 l 1,49,-1
 819 522 l 1,50,-1
 941 400 l 1,51,-1
 1100 400 l 1,52,-1
 1100 550 l 2,53,54
 1100 571 1100 571 1110.5 575 c 128,-1,55
 1121 579 1121 579 1135 565 c 2,38,-1
EndSplineSet
EndChar

StartChar: uniE111
Encoding: 57617 57617 135
Width: 1200
GlyphClass: 2
Flags: W
LayerCount: 2
Fore
SplineSet
100 1100 m 2,0,-1
 1100 1100 l 2,1,2
 1141 1100 1141 1100 1170.5 1070.5 c 128,-1,3
 1200 1041 1200 1041 1200 1000 c 2,4,-1
 1200 400 l 2,5,6
 1200 359 1200 359 1170.5 329.5 c 128,-1,7
 1141 300 1141 300 1100 300 c 2,8,-1
 504 300 l 1,9,-1
 200 0 l 1,10,-1
 200 300 l 1,11,-1
 100 300 l 2,12,13
 59 300 59 300 29.5 329.5 c 128,-1,14
 0 359 0 359 0 400 c 2,15,-1
 0 1000 l 2,16,17
 0 1041 0 1041 29.5 1070.5 c 128,-1,18
 59 1100 59 1100 100 1100 c 2,0,-1
EndSplineSet
EndChar

StartChar: uniE112
Encoding: 57618 57618 136
Width: 1200
GlyphClass: 2
Flags: W
LayerCount: 2
Fore
SplineSet
150 1200 m 2,0,-1
 350 1200 l 2,1,2
 371 1200 371 1200 385.5 1185.5 c 128,-1,3
 400 1171 400 1171 400 1150 c 2,4,-1
 400 900 l 1,5,-1
 100 900 l 1,6,-1
 100 1150 l 2,7,8
 100 1171 100 1171 114.5 1185.5 c 128,-1,9
 129 1200 129 1200 150 1200 c 2,0,-1
850 1200 m 2,10,-1
 1050 1200 l 2,11,12
 1071 1200 1071 1200 1085.5 1185.5 c 128,-1,13
 1100 1171 1100 1171 1100 1150 c 2,14,-1
 1100 900 l 1,15,-1
 800 900 l 1,16,-1
 800 1150 l 2,17,18
 800 1171 800 1171 814.5 1185.5 c 128,-1,19
 829 1200 829 1200 850 1200 c 2,10,-1
1100 800 m 1,20,-1
 1100 500 l 2,21,22
 1100 459 1100 459 1097 422.5 c 128,-1,23
 1094 386 1094 386 1082 333 c 128,-1,24
 1070 280 1070 280 1050 237 c 128,-1,25
 1030 194 1030 194 992 148 c 128,-1,26
 954 102 954 102 903 71 c 128,-1,27
 852 40 852 40 774 20 c 128,-1,28
 696 0 696 0 600 0 c 128,-1,29
 504 0 504 0 426 20 c 128,-1,30
 348 40 348 40 297 71 c 128,-1,31
 246 102 246 102 208 148 c 128,-1,32
 170 194 170 194 150 237 c 128,-1,33
 130 280 130 280 118 333 c 128,-1,34
 106 386 106 386 103 422.5 c 128,-1,35
 100 459 100 459 100 500 c 2,36,-1
 100 800 l 1,37,-1
 400 800 l 1,38,-1
 400 550 l 2,39,40
 400 541 400 541 400 523 c 0,41,42
 400 502 400 502 400 480.5 c 128,-1,43
 400 459 400 459 401.5 439.5 c 128,-1,44
 403 420 403 420 406.5 401.5 c 128,-1,45
 410 383 410 383 416.5 366.5 c 128,-1,46
 423 350 423 350 433 336.5 c 128,-1,47
 443 323 443 323 458.5 312 c 128,-1,48
 474 301 474 301 493.5 293 c 128,-1,49
 513 285 513 285 540 281 c 128,-1,50
 567 277 567 277 600 277 c 128,-1,51
 633 277 633 277 660 281.5 c 128,-1,52
 687 286 687 286 706.5 294 c 128,-1,53
 726 302 726 302 741.5 313.5 c 128,-1,54
 757 325 757 325 766.5 339 c 128,-1,55
 776 353 776 353 783.5 369.5 c 128,-1,56
 791 386 791 386 793.5 404.5 c 128,-1,57
 796 423 796 423 798.5 442.5 c 128,-1,58
 801 462 801 462 800.5 483 c 128,-1,59
 800 504 800 504 800 525 c 0,60,61
 800 542 800 542 800 550 c 2,62,-1
 800 800 l 1,63,-1
 1100 800 l 1,20,-1
EndSplineSet
EndChar

StartChar: uniE113
Encoding: 57619 57619 137
Width: 1200
GlyphClass: 2
Flags: W
LayerCount: 2
Fore
SplineSet
1100 411 m 1,0,-1
 902 212 l 1,1,-1
 549 565 l 1,2,-1
 196 212 l 1,3,-1
 -1 411 l 1,4,-1
 550 962 l 1,5,-1
 1100 411 l 1,0,-1
EndSplineSet
EndChar

StartChar: uniE114
Encoding: 57620 57620 138
Width: 1200
GlyphClass: 2
Flags: W
LayerCount: 2
Fore
SplineSet
1101 789 m 1,0,-1
 551 238 l 1,1,-1
 0 789 l 1,2,-1
 198 988 l 1,3,-1
 551 635 l 1,4,-1
 904 988 l 1,5,-1
 1101 789 l 1,0,-1
EndSplineSet
EndChar

StartChar: uniE115
Encoding: 57621 57621 139
Width: 1200
GlyphClass: 2
Flags: W
LayerCount: 2
Fore
SplineSet
404 1000 m 1,0,-1
 1150 1000 l 2,1,2
 1171 1000 1171 1000 1185.5 985.5 c 128,-1,3
 1200 971 1200 971 1200 950 c 2,4,-1
 1200 399 l 1,5,-1
 1350 399 l 2,6,7
 1371 399 1371 399 1375 388.5 c 128,-1,8
 1379 378 1379 378 1365 364 c 2,9,-1
 1135 115 l 2,10,11
 1121 100 1121 100 1100 100 c 128,-1,12
 1079 100 1079 100 1065 115 c 2,13,-1
 835 364 l 2,14,15
 821 378 821 378 825 388.5 c 128,-1,16
 829 399 829 399 850 399 c 2,17,-1
 1000 399 l 1,18,-1
 1000 800 l 1,19,-1
 619 800 l 1,20,-1
 404 1000 l 1,0,-1
135 984 m 2,21,-1
 365 735 l 2,22,23
 379 721 379 721 375 710.5 c 128,-1,24
 371 700 371 700 350 700 c 2,25,-1
 200 700 l 1,26,-1
 200 300 l 1,27,-1
 585 300 l 1,28,-1
 800 100 l 1,29,-1
 50 100 l 2,30,31
 29 100 29 100 14.5 114.5 c 128,-1,32
 0 129 0 129 0 150 c 2,33,-1
 0 700 l 1,34,-1
 -150 700 l 2,35,36
 -171 700 -171 700 -175 710.5 c 128,-1,37
 -179 721 -179 721 -165 735 c 2,38,-1
 65 984 l 2,39,40
 79 999 79 999 100 999 c 128,-1,41
 121 999 121 999 135 984 c 2,21,-1
EndSplineSet
EndChar

StartChar: uniE116
Encoding: 57622 57622 140
Width: 1200
GlyphClass: 2
Flags: W
LayerCount: 2
Fore
SplineSet
56 1200 m 2,0,-1
 150 1200 l 2,1,2
 167 1200 167 1200 181 1189 c 128,-1,3
 195 1178 195 1178 199 1162 c 2,4,-1
 237 1000 l 1,5,-1
 1133 1000 l 2,6,7
 1157 1000 1157 1000 1172 981.5 c 128,-1,8
 1187 963 1187 963 1182 939 c 2,9,-1
 1082 464 l 2,10,11
 1077 443 1077 443 1055 421.5 c 128,-1,12
 1033 400 1033 400 1000 400 c 2,13,-1
 367 400 l 1,14,-1
 415 200 l 1,15,-1
 950 200 l 2,16,17
 971 200 971 200 985.5 185.5 c 128,-1,18
 1000 171 1000 171 1000 150 c 128,-1,19
 1000 129 1000 129 985.5 114.5 c 128,-1,20
 971 100 971 100 950 100 c 2,21,-1
 900 100 l 1,22,-1
 900 50 l 2,23,24
 900 29 900 29 885.5 14.5 c 128,-1,25
 871 0 871 0 850 0 c 128,-1,26
 829 0 829 0 814.5 14.5 c 128,-1,27
 800 29 800 29 800 50 c 2,28,-1
 800 100 l 1,29,-1
 500 100 l 1,30,-1
 500 50 l 2,31,32
 500 29 500 29 485.5 14.5 c 128,-1,33
 471 0 471 0 450 0 c 128,-1,34
 429 0 429 0 414.5 14.5 c 128,-1,35
 400 29 400 29 400 50 c 2,36,-1
 400 100 l 1,37,-1
 369 100 l 2,38,39
 351 100 351 100 336.5 110 c 128,-1,40
 322 120 322 120 316 129 c 2,41,-1
 311 139 l 1,42,-1
 110 1100 l 1,43,-1
 56 1100 l 2,44,45
 36 1100 36 1100 21 1114.5 c 128,-1,46
 6 1129 6 1129 6 1150 c 128,-1,47
 6 1171 6 1171 21 1185.5 c 128,-1,48
 36 1200 36 1200 56 1200 c 2,0,-1
EndSplineSet
EndChar

StartChar: uniE117
Encoding: 57623 57623 141
Width: 1200
GlyphClass: 2
Flags: W
LayerCount: 2
Fore
SplineSet
1200 1000 m 1,0,-1
 1200 900 l 1,1,-1
 0 900 l 1,2,-1
 0 1000 l 1,3,-1
 200 1000 l 1,4,5
 200 1041 200 1041 229.5 1070.5 c 128,-1,6
 259 1100 259 1100 300 1100 c 2,7,-1
 600 1100 l 2,8,9
 641 1100 641 1100 670.5 1070.5 c 128,-1,10
 700 1041 700 1041 700 1000 c 1,11,-1
 1200 1000 l 1,0,-1
0 800 m 1,12,-1
 1200 800 l 1,13,-1
 1200 0 l 1,14,-1
 0 0 l 1,15,-1
 0 800 l 1,12,-1
EndSplineSet
EndChar

StartChar: uniE118
Encoding: 57624 57624 142
Width: 1200
GlyphClass: 2
Flags: W
LayerCount: 2
Fore
SplineSet
200 800 m 1,0,-1
 0 400 l 1,1,-1
 0 1000 l 1,2,-1
 200 1000 l 1,3,4
 200 1041 200 1041 229.5 1070.5 c 128,-1,5
 259 1100 259 1100 300 1100 c 2,6,-1
 600 1100 l 2,7,8
 642 1100 642 1100 671 1070.5 c 128,-1,9
 700 1041 700 1041 700 1000 c 1,10,-1
 1200 1000 l 1,11,-1
 1200 800 l 1,12,-1
 200 800 l 1,0,-1
1500 700 m 1,13,-1
 1200 0 l 1,14,-1
 0 0 l 1,15,-1
 300 700 l 1,16,-1
 1500 700 l 1,13,-1
EndSplineSet
EndChar

StartChar: uniE119
Encoding: 57625 57625 143
Width: 1200
GlyphClass: 2
Flags: W
LayerCount: 2
Fore
SplineSet
635 1184 m 2,0,-1
 865 935 l 2,1,2
 879 921 879 921 875 910.5 c 128,-1,3
 871 900 871 900 850 900 c 2,4,-1
 700 900 l 1,5,-1
 700 299 l 1,6,-1
 850 299 l 2,7,8
 871 299 871 299 875 288.5 c 128,-1,9
 879 278 879 278 865 264 c 2,10,-1
 635 15 l 2,11,12
 621 0 621 0 600 0 c 128,-1,13
 579 0 579 0 565 15 c 2,14,-1
 335 264 l 2,15,16
 321 278 321 278 325 288.5 c 128,-1,17
 329 299 329 299 350 299 c 2,18,-1
 500 299 l 1,19,-1
 500 900 l 1,20,-1
 350 900 l 2,21,22
 329 900 329 900 325 910.5 c 128,-1,23
 321 921 321 921 335 935 c 2,24,-1
 565 1184 l 2,25,26
 579 1199 579 1199 600 1199 c 128,-1,27
 621 1199 621 1199 635 1184 c 2,0,-1
EndSplineSet
EndChar

StartChar: uniE120
Encoding: 57632 57632 144
Width: 1200
GlyphClass: 2
Flags: W
LayerCount: 2
Fore
SplineSet
936 864 m 2,0,-1
 1185 635 l 2,1,2
 1199 620 1199 620 1199 599.5 c 128,-1,3
 1199 579 1199 579 1185 564 c 2,4,-1
 936 335 l 2,5,6
 921 320 921 320 910.5 324.5 c 128,-1,7
 900 329 900 329 900 349 c 2,8,-1
 900 500 l 1,9,-1
 300 500 l 1,10,-1
 300 349 l 2,11,12
 300 329 300 329 289.5 324.5 c 128,-1,13
 279 320 279 320 264 335 c 2,14,-1
 15 564 l 2,15,16
 1 579 1 579 1 599.5 c 128,-1,17
 1 620 1 620 15 635 c 2,18,-1
 264 864 l 2,19,20
 279 879 279 879 289.5 874.5 c 128,-1,21
 300 870 300 870 300 849 c 2,22,-1
 300 700 l 1,23,-1
 900 700 l 1,24,-1
 900 849 l 2,25,26
 900 870 900 870 910.5 874.5 c 128,-1,27
 921 879 921 879 936 864 c 2,0,-1
EndSplineSet
EndChar

StartChar: uniE121
Encoding: 57633 57633 145
Width: 1200
GlyphClass: 2
Flags: W
LayerCount: 2
Fore
SplineSet
1169 400 m 1,0,-1
 997 1132 l 2,1,2
 992 1155 992 1155 974 1177.5 c 128,-1,3
 956 1200 956 1200 936 1200 c 2,4,-1
 264 1200 l 2,5,6
 244 1200 244 1200 226 1180 c 128,-1,7
 208 1160 208 1160 203 1139 c 2,8,-1
 31 400 l 1,9,-1
 1169 400 l 1,0,-1
1100 300 m 2,10,-1
 100 300 l 2,11,12
 59 300 59 300 29.5 270.5 c 128,-1,13
 0 241 0 241 0 200 c 2,14,-1
 0 100 l 2,15,16
 0 59 0 59 29.5 29.5 c 128,-1,17
 59 0 59 0 100 0 c 2,18,-1
 1100 0 l 2,19,20
 1141 0 1141 0 1170.5 29.5 c 128,-1,21
 1200 59 1200 59 1200 100 c 2,22,-1
 1200 200 l 2,23,24
 1200 241 1200 241 1170.5 270.5 c 128,-1,25
 1141 300 1141 300 1100 300 c 2,10,-1
800 100 m 1,26,-1
 800 200 l 1,27,-1
 900 200 l 1,28,-1
 900 100 l 1,29,-1
 800 100 l 1,26,-1
1000 100 m 1,30,-1
 1000 200 l 1,31,-1
 1100 200 l 1,32,-1
 1100 100 l 1,33,-1
 1000 100 l 1,30,-1
EndSplineSet
EndChar

StartChar: uniE122
Encoding: 57634 57634 146
Width: 1200
GlyphClass: 2
Flags: W
LayerCount: 2
Fore
SplineSet
1150 1100 m 128,-1,1
 1171 1100 1171 1100 1185.5 1085.5 c 128,-1,2
 1200 1071 1200 1071 1200 1050 c 2,3,-1
 1200 200 l 2,4,5
 1200 179 1200 179 1185.5 164.5 c 128,-1,6
 1171 150 1171 150 1150 150 c 128,-1,7
 1129 150 1129 150 1114.5 164.5 c 128,-1,8
 1100 179 1100 179 1100 200 c 2,9,-1
 1100 1050 l 2,10,11
 1100 1071 1100 1071 1114.5 1085.5 c 128,-1,0
 1129 1100 1129 1100 1150 1100 c 128,-1,1
1000 200 m 1,12,-1
 325 400 l 1,13,-1
 287 400 l 1,14,-1
 334 124 l 2,15,16
 337 108 337 108 328.5 104 c 128,-1,17
 320 100 320 100 299 100 c 0,18,19
 294 100 294 100 292 100 c 2,20,-1
 208 100 l 2,21,22
 188 100 188 100 173.5 114 c 128,-1,23
 159 128 159 128 155 149 c 0,24,25
 100 486 100 486 100 500 c 2,26,-1
 100 750 l 2,27,28
 100 752 100 752 100 756 c 0,29,30
 100 772 100 772 101 779.5 c 128,-1,31
 102 787 102 787 107.5 793.5 c 128,-1,32
 113 800 113 800 125 800 c 2,33,-1
 325 800 l 1,34,-1
 1000 1050 l 1,35,-1
 1000 200 l 1,12,-1
0 750 m 1,36,-1
 0 500 l 1,37,38
 -4 500 -4 500 -11 500.5 c 128,-1,39
 -18 501 -18 501 -35 506.5 c 128,-1,40
 -52 512 -52 512 -65 521.5 c 128,-1,41
 -78 531 -78 531 -89 551.5 c 128,-1,42
 -100 572 -100 572 -100 600 c 2,43,-1
 -100 650 l 2,44,45
 -100 676 -100 676 -89.5 696 c 128,-1,46
 -79 716 -79 716 -64.5 726 c 128,-1,47
 -50 736 -50 736 -35.5 742 c 128,-1,48
 -21 748 -21 748 -10 749 c 2,49,-1
 0 750 l 1,36,-1
EndSplineSet
EndChar

StartChar: uniE123
Encoding: 57635 57635 147
Width: 1200
GlyphClass: 2
Flags: W
LayerCount: 2
Fore
SplineSet
553 1200 m 2,0,-1
 647 1200 l 2,1,2
 667 1200 667 1200 676 1189.5 c 128,-1,3
 685 1179 685 1179 679 1160 c 2,4,-1
 661 1123 l 1,5,6
 744 1104 744 1104 805 1040.5 c 128,-1,7
 866 977 866 977 881 900 c 2,8,-1
 944 573 l 1,9,-1
 1062 400 l 1,10,-1
 1079 400 l 2,11,12
 1098 400 1098 400 1112 385.5 c 128,-1,13
 1126 371 1126 371 1126 350.5 c 128,-1,14
 1126 330 1126 330 1113 310 c 128,-1,15
 1100 290 1100 290 1082 283 c 0,16,17
 1074 279 1074 279 1059 273.5 c 128,-1,18
 1044 268 1044 268 994 254 c 128,-1,19
 944 240 944 240 891 229 c 128,-1,20
 838 218 838 218 758.5 209 c 128,-1,21
 679 200 679 200 600 200 c 0,22,23
 543 200 543 200 485 205 c 128,-1,24
 427 210 427 210 381 217 c 128,-1,25
 335 224 335 224 292.5 232.5 c 128,-1,26
 250 241 250 241 219 250 c 128,-1,27
 188 259 188 259 164.5 266 c 128,-1,28
 141 273 141 273 129 278 c 2,29,-1
 118 282 l 2,30,31
 100 290 100 290 87 310 c 128,-1,32
 74 330 74 330 74 350.5 c 128,-1,33
 74 371 74 371 88 385.5 c 128,-1,34
 102 400 102 400 121 400 c 2,35,-1
 138 400 l 1,36,-1
 256 573 l 1,37,-1
 319 900 l 2,38,39
 334 977 334 977 395 1040 c 128,-1,40
 456 1103 456 1103 539 1123 c 1,41,-1
 521 1155 l 1,42,43
 515 1174 515 1174 524.5 1187 c 128,-1,44
 534 1200 534 1200 553 1200 c 2,0,-1
498 110 m 1,45,46
 548 104 548 104 600 104 c 0,47,48
 653 104 653 104 702 110 c 1,49,50
 690 61 690 61 662.5 30.5 c 128,-1,51
 635 0 635 0 600 0 c 128,-1,52
 565 0 565 0 537 30.5 c 128,-1,53
 509 61 509 61 498 110 c 1,45,46
EndSplineSet
EndChar

StartChar: uniE124
Encoding: 57636 57636 148
Width: 1200
GlyphClass: 2
Flags: W
LayerCount: 2
Fore
SplineSet
800 946 m 1,0,-1
 1024 1024 l 1,1,-1
 946 800 l 1,2,-1
 1180 755 l 1,3,-1
 1000 600 l 1,4,-1
 1180 445 l 1,5,-1
 946 400 l 1,6,-1
 1024 176 l 1,7,-1
 800 254 l 1,8,-1
 755 20 l 1,9,-1
 600 200 l 1,10,-1
 445 20 l 1,11,-1
 400 254 l 1,12,-1
 176 176 l 1,13,-1
 254 400 l 1,14,-1
 20 445 l 1,15,-1
 200 600 l 1,16,-1
 20 755 l 1,17,-1
 254 800 l 1,18,-1
 176 1024 l 1,19,-1
 400 946 l 1,20,-1
 445 1180 l 1,21,-1
 600 1000 l 1,22,-1
 755 1180 l 1,23,-1
 800 946 l 1,0,-1
EndSplineSet
EndChar

StartChar: uniE125
Encoding: 57637 57637 149
Width: 1200
GlyphClass: 2
Flags: W
LayerCount: 2
Fore
SplineSet
650 1200 m 2,0,-1
 700 1200 l 2,1,2
 740 1200 740 1200 770 1159.5 c 128,-1,3
 800 1119 800 1119 800 1075 c 2,4,-1
 800 925 l 1,5,-1
 772 800 l 1,6,-1
 1100 800 l 2,7,8
 1140 800 1140 800 1170 759.5 c 128,-1,9
 1200 719 1200 719 1200 675 c 2,10,-1
 1200 575 l 2,11,12
 1200 530 1200 530 1171 501 c 1,13,-1
 933 157 l 2,14,15
 917 133 917 133 895 116.5 c 128,-1,16
 873 100 873 100 850 100 c 2,17,-1
 600 100 l 2,18,19
 593 100 593 100 558 125 c 128,-1,20
 523 150 523 150 492 175 c 2,21,-1
 461 200 l 1,22,-1
 400 200 l 2,23,24
 355 200 355 200 327.5 218 c 128,-1,25
 300 236 300 236 300 275 c 2,26,-1
 300 675 l 2,27,28
 300 711 300 711 320 738 c 2,29,-1
 465 934 l 1,30,-1
 561 1132 l 2,31,32
 574 1160 574 1160 598.5 1180 c 128,-1,33
 623 1200 623 1200 650 1200 c 2,0,-1
650 1100 m 1,34,-1
 550 888 l 1,35,-1
 400 675 l 1,36,-1
 400 300 l 1,37,-1
 500 300 l 1,38,-1
 636 200 l 1,39,-1
 850 200 l 1,40,-1
 1100 575 l 1,41,-1
 1100 700 l 1,42,-1
 650 700 l 1,43,-1
 700 925 l 1,44,-1
 700 1100 l 1,45,-1
 650 1100 l 1,34,-1
50 800 m 2,46,-1
 150 800 l 2,47,48
 171 800 171 800 185.5 785.5 c 128,-1,49
 200 771 200 771 200 750 c 2,50,-1
 200 250 l 2,51,52
 200 229 200 229 185.5 214.5 c 128,-1,53
 171 200 171 200 150 200 c 2,54,-1
 50 200 l 2,55,56
 29 200 29 200 14.5 214.5 c 128,-1,57
 0 229 0 229 0 250 c 2,58,-1
 0 750 l 2,59,60
 0 771 0 771 14.5 785.5 c 128,-1,61
 29 800 29 800 50 800 c 2,46,-1
EndSplineSet
EndChar

StartChar: uniE126
Encoding: 57638 57638 150
Width: 1200
GlyphClass: 2
Flags: W
LayerCount: 2
Fore
SplineSet
600 1100 m 2,0,-1
 850 1100 l 2,1,2
 873 1100 873 1100 895 1083.5 c 128,-1,3
 917 1067 917 1067 933 1043 c 2,4,-1
 1171 699 l 1,5,6
 1200 670 1200 670 1200 625 c 2,7,-1
 1200 525 l 2,8,9
 1200 481 1200 481 1170 440.5 c 128,-1,10
 1140 400 1140 400 1100 400 c 2,11,-1
 772 400 l 1,12,13
 800 282 800 282 800 275 c 2,14,-1
 800 125 l 2,15,16
 800 81 800 81 770 40.5 c 128,-1,17
 740 0 740 0 700 0 c 2,18,-1
 650 0 l 2,19,20
 623 0 623 0 598.5 20 c 128,-1,21
 574 40 574 40 561 68 c 2,22,-1
 465 266 l 1,23,-1
 320 462 l 2,24,25
 300 489 300 489 300 525 c 2,26,-1
 300 925 l 2,27,28
 300 964 300 964 327.5 982 c 128,-1,29
 355 1000 355 1000 400 1000 c 2,30,-1
 461 1000 l 1,31,32
 585 1100 585 1100 600 1100 c 2,0,-1
50 1000 m 2,33,-1
 150 1000 l 2,34,35
 171 1000 171 1000 185.5 985.5 c 128,-1,36
 200 971 200 971 200 950 c 2,37,-1
 200 450 l 2,38,39
 200 429 200 429 185.5 414.5 c 128,-1,40
 171 400 171 400 150 400 c 2,41,-1
 50 400 l 2,42,43
 29 400 29 400 14.5 414.5 c 128,-1,44
 0 429 0 429 0 450 c 2,45,-1
 0 950 l 2,46,47
 0 971 0 971 14.5 985.5 c 128,-1,48
 29 1000 29 1000 50 1000 c 2,33,-1
636 1000 m 1,49,-1
 500 900 l 1,50,-1
 400 900 l 1,51,-1
 400 525 l 1,52,-1
 550 312 l 1,53,-1
 650 100 l 1,54,-1
 700 100 l 1,55,-1
 700 275 l 1,56,-1
 650 500 l 1,57,-1
 1100 500 l 1,58,-1
 1100 625 l 1,59,-1
 850 1000 l 1,60,-1
 636 1000 l 1,49,-1
EndSplineSet
EndChar

StartChar: uniE127
Encoding: 57639 57639 151
Width: 1200
GlyphClass: 2
Flags: W
LayerCount: 2
Fore
SplineSet
356 873 m 1,0,-1
 719 1103 l 2,1,2
 750 1119 750 1119 772 1097 c 2,3,-1
 882 985 l 2,4,5
 895 972 895 972 895.5 953 c 128,-1,6
 896 934 896 934 884 919 c 2,7,-1
 800 798 l 1,8,-1
 1102 798 l 2,9,10
 1186 798 1186 798 1240 760 c 128,-1,11
 1294 722 1294 722 1294 650 c 128,-1,12
 1294 578 1294 578 1239 539 c 128,-1,13
 1184 500 1184 500 1100 500 c 2,14,-1
 994 500 l 1,15,-1
 863 161 l 2,16,17
 857 140 857 140 843.5 120 c 128,-1,18
 830 100 830 100 815 100 c 2,19,-1
 473 100 l 2,20,21
 466 100 466 100 383 181 c 128,-1,22
 300 262 300 262 300 275 c 2,23,-1
 300 800 l 2,24,25
 300 817 300 817 314 835.5 c 128,-1,26
 328 854 328 854 342 864 c 2,27,-1
 356 873 l 1,0,-1
400 792 m 1,28,-1
 400 289 l 1,29,-1
 500 200 l 1,30,-1
 793 200 l 1,31,-1
 924 539 l 2,32,33
 930 560 930 560 943.5 580 c 128,-1,34
 957 600 957 600 972 600 c 2,35,-1
 1175 600 l 2,36,37
 1196 600 1196 600 1205.5 625 c 128,-1,38
 1215 650 1215 650 1206 675 c 128,-1,39
 1197 700 1197 700 1175 700 c 2,40,-1
 719 700 l 2,41,42
 717 700 717 700 712 700 c 128,-1,43
 707 700 707 700 706 700 c 128,-1,44
 705 700 705 700 700.5 700 c 128,-1,45
 696 700 696 700 694.5 700.5 c 128,-1,46
 693 701 693 701 689.5 702 c 128,-1,47
 686 703 686 703 684.5 704 c 128,-1,48
 683 705 683 705 680.5 706.5 c 128,-1,49
 678 708 678 708 676.5 710.5 c 128,-1,50
 675 713 675 713 674 715 c 0,51,52
 662 740 662 740 679 762 c 2,53,-1
 825 945 l 1,54,-1
 739 1028 l 1,55,-1
 400 792 l 1,28,-1
50 800 m 2,56,-1
 150 800 l 2,57,58
 171 800 171 800 185.5 785.5 c 128,-1,59
 200 771 200 771 200 750 c 2,60,-1
 200 250 l 2,61,62
 200 229 200 229 185.5 214.5 c 128,-1,63
 171 200 171 200 150 200 c 2,64,-1
 50 200 l 2,65,66
 29 200 29 200 14.5 214.5 c 128,-1,67
 0 229 0 229 0 250 c 2,68,-1
 0 750 l 2,69,70
 0 771 0 771 14.5 785.5 c 128,-1,71
 29 800 29 800 50 800 c 2,56,-1
EndSplineSet
EndChar

StartChar: uniE128
Encoding: 57640 57640 152
Width: 1200
GlyphClass: 2
Flags: W
LayerCount: 2
Fore
SplineSet
475 1103 m 2,0,-1
 841 873 l 2,1,2
 843 872 843 872 847 869.5 c 128,-1,3
 851 867 851 867 861 859 c 128,-1,4
 871 851 871 851 879 842.5 c 128,-1,5
 887 834 887 834 893.5 822.5 c 128,-1,6
 900 811 900 811 900 800 c 2,7,-1
 900 275 l 2,8,9
 900 262 900 262 814 181 c 128,-1,10
 728 100 728 100 721 100 c 2,11,-1
 379 100 l 2,12,13
 364 100 364 100 350.5 120 c 128,-1,14
 337 140 337 140 331 161 c 2,15,-1
 200 500 l 1,16,-1
 94 500 l 2,17,18
 9 500 9 500 -45.5 539 c 128,-1,19
 -100 578 -100 578 -100 650 c 128,-1,20
 -100 722 -100 722 -46 760 c 128,-1,21
 8 798 8 798 92 798 c 2,22,-1
 394 798 l 1,23,-1
 309 919 l 2,24,25
 298 934 298 934 298.5 953 c 128,-1,26
 299 972 299 972 312 985 c 2,27,-1
 422 1097 l 2,28,29
 444 1119 444 1119 475 1103 c 2,0,-1
370 945 m 1,30,-1
 516 762 l 2,31,32
 533 740 533 740 521 715 c 0,33,34
 519 713 519 713 517.5 710.5 c 128,-1,35
 516 708 516 708 513.5 706.5 c 128,-1,36
 511 705 511 705 509.5 704 c 128,-1,37
 508 703 508 703 504.5 702 c 128,-1,38
 501 701 501 701 499.5 700.5 c 128,-1,39
 498 700 498 700 493.5 700 c 128,-1,40
 489 700 489 700 487.5 700 c 128,-1,41
 486 700 486 700 481 700 c 128,-1,42
 476 700 476 700 475 700 c 2,43,-1
 0 700 l 1,44,-1
 0 600 l 1,45,-1
 221 600 l 2,46,47
 236 600 236 600 250 580 c 128,-1,48
 264 560 264 560 270 539 c 2,49,-1
 400 200 l 1,50,-1
 694 200 l 1,51,-1
 800 289 l 1,52,-1
 800 792 l 1,53,-1
 458 1028 l 1,54,-1
 370 945 l 1,30,-1
1050 800 m 2,55,-1
 1150 800 l 2,56,57
 1171 800 1171 800 1185.5 785.5 c 128,-1,58
 1200 771 1200 771 1200 750 c 2,59,-1
 1200 250 l 2,60,61
 1200 229 1200 229 1185.5 214.5 c 128,-1,62
 1171 200 1171 200 1150 200 c 2,63,-1
 1050 200 l 2,64,65
 1029 200 1029 200 1014.5 214.5 c 128,-1,66
 1000 229 1000 229 1000 250 c 2,67,-1
 1000 750 l 2,68,69
 1000 771 1000 771 1014.5 785.5 c 128,-1,70
 1029 800 1029 800 1050 800 c 2,55,-1
EndSplineSet
EndChar

StartChar: uniE129
Encoding: 57641 57641 153
Width: 1200
GlyphClass: 2
Flags: W
LayerCount: 2
Fore
SplineSet
550 1294 m 128,-1,1
 622 1294 622 1294 661 1239 c 128,-1,2
 700 1184 700 1184 700 1100 c 2,3,-1
 700 994 l 1,4,-1
 1039 863 l 2,5,6
 1060 857 1060 857 1080 843.5 c 128,-1,7
 1100 830 1100 830 1100 815 c 2,8,-1
 1100 473 l 2,9,10
 1100 466 1100 466 1019 383 c 128,-1,11
 938 300 938 300 925 300 c 2,12,-1
 400 300 l 2,13,14
 383 300 383 300 364.5 314 c 128,-1,15
 346 328 346 328 336 342 c 2,16,-1
 327 356 l 1,17,-1
 97 719 l 2,18,19
 81 750 81 750 103 772 c 2,20,-1
 215 882 l 2,21,22
 228 895 228 895 247 895.5 c 128,-1,23
 266 896 266 896 281 884 c 2,24,-1
 402 800 l 1,25,-1
 402 1102 l 2,26,27
 402 1186 402 1186 440 1240 c 128,-1,0
 478 1294 478 1294 550 1294 c 128,-1,1
600 972 m 2,28,-1
 600 1175 l 2,29,30
 600 1196 600 1196 575 1205.5 c 128,-1,31
 550 1215 550 1215 525 1206 c 128,-1,32
 500 1197 500 1197 500 1175 c 2,33,-1
 500 719 l 2,34,35
 500 717 500 717 500 712 c 128,-1,36
 500 707 500 707 500 706 c 128,-1,37
 500 705 500 705 500 700.5 c 128,-1,38
 500 696 500 696 499.5 694.5 c 128,-1,39
 499 693 499 693 498 689.5 c 128,-1,40
 497 686 497 686 496 684.5 c 128,-1,41
 495 683 495 683 493.5 680.5 c 128,-1,42
 492 678 492 678 489.5 676.5 c 128,-1,43
 487 675 487 675 485 674 c 0,44,45
 460 662 460 662 438 679 c 2,46,-1
 255 825 l 1,47,-1
 172 739 l 1,48,-1
 408 400 l 1,49,-1
 911 400 l 1,50,-1
 1000 500 l 1,51,-1
 1000 793 l 1,52,-1
 661 924 l 2,53,54
 640 930 640 930 620 943.5 c 128,-1,55
 600 957 600 957 600 972 c 2,28,-1
450 200 m 2,56,-1
 950 200 l 2,57,58
 971 200 971 200 985.5 185.5 c 128,-1,59
 1000 171 1000 171 1000 150 c 2,60,-1
 1000 50 l 2,61,62
 1000 29 1000 29 985.5 14.5 c 128,-1,63
 971 0 971 0 950 0 c 2,64,-1
 450 0 l 2,65,66
 429 0 429 0 414.5 14.5 c 128,-1,67
 400 29 400 29 400 50 c 2,68,-1
 400 150 l 2,69,70
 400 171 400 171 414.5 185.5 c 128,-1,71
 429 200 429 200 450 200 c 2,56,-1
EndSplineSet
EndChar

StartChar: uniE130
Encoding: 57648 57648 154
Width: 1200
GlyphClass: 2
Flags: W
LayerCount: 2
Fore
SplineSet
350 1100 m 2,0,-1
 850 1100 l 2,1,2
 871 1100 871 1100 885.5 1114.5 c 128,-1,3
 900 1129 900 1129 900 1150 c 2,4,-1
 900 1250 l 2,5,6
 900 1271 900 1271 885.5 1285.5 c 128,-1,7
 871 1300 871 1300 850 1300 c 2,8,-1
 350 1300 l 2,9,10
 329 1300 329 1300 314.5 1285.5 c 128,-1,11
 300 1271 300 1271 300 1250 c 2,12,-1
 300 1150 l 2,13,14
 300 1129 300 1129 314.5 1114.5 c 128,-1,15
 329 1100 329 1100 350 1100 c 2,0,-1
600 306 m 1,16,-1
 600 200 l 2,17,18
 600 116 600 116 561 61 c 128,-1,19
 522 6 522 6 450 6 c 128,-1,20
 378 6 378 6 340 60 c 128,-1,21
 302 114 302 114 302 198 c 2,22,-1
 302 500 l 1,23,-1
 181 416 l 2,24,25
 166 404 166 404 147 404.5 c 128,-1,26
 128 405 128 405 115 418 c 2,27,-1
 3 528 l 2,28,29
 -19 550 -19 550 -3 581 c 2,30,-1
 227 944 l 2,31,32
 228 946 228 946 230.5 950 c 128,-1,33
 233 954 233 954 241 963.5 c 128,-1,34
 249 973 249 973 257.5 980.5 c 128,-1,35
 266 988 266 988 277.5 994 c 128,-1,36
 289 1000 289 1000 300 1000 c 2,37,-1
 825 1000 l 2,38,39
 838 1000 838 1000 919 917 c 128,-1,40
 1000 834 1000 834 1000 827 c 2,41,-1
 1000 485 l 2,42,43
 1000 470 1000 470 980 456.5 c 128,-1,44
 960 443 960 443 939 437 c 2,45,-1
 600 306 l 1,16,-1
308 900 m 1,46,-1
 72 561 l 1,47,-1
 155 475 l 1,48,-1
 338 621 l 2,49,50
 360 638 360 638 385 626 c 0,51,52
 387 625 387 625 389.5 623.5 c 128,-1,53
 392 622 392 622 393.5 619.5 c 128,-1,54
 395 617 395 617 396 615.5 c 128,-1,55
 397 614 397 614 398 610.5 c 128,-1,56
 399 607 399 607 399.5 605.5 c 128,-1,57
 400 604 400 604 400 599.5 c 128,-1,58
 400 595 400 595 400 594 c 128,-1,59
 400 593 400 593 400 588 c 128,-1,60
 400 583 400 583 400 581 c 2,61,-1
 400 125 l 2,62,63
 400 103 400 103 425 94 c 128,-1,64
 450 85 450 85 475 94.5 c 128,-1,65
 500 104 500 104 500 125 c 2,66,-1
 500 328 l 2,67,68
 500 343 500 343 520 356.5 c 128,-1,69
 540 370 540 370 561 376 c 2,70,-1
 900 507 l 1,71,-1
 900 800 l 1,72,-1
 811 900 l 1,73,-1
 308 900 l 1,46,-1
EndSplineSet
EndChar

StartChar: uniE131
Encoding: 57649 57649 155
Width: 1200
GlyphClass: 2
Flags: W
LayerCount: 2
Fore
SplineSet
600 1178 m 128,-1,1
 718 1178 718 1178 825 1132.5 c 128,-1,2
 932 1087 932 1087 1009.5 1009.5 c 128,-1,3
 1087 932 1087 932 1132.5 825 c 128,-1,4
 1178 718 1178 718 1178 600 c 128,-1,5
 1178 482 1178 482 1132.5 375 c 128,-1,6
 1087 268 1087 268 1009.5 190.5 c 128,-1,7
 932 113 932 113 825 67.5 c 128,-1,8
 718 22 718 22 600 22 c 128,-1,9
 482 22 482 22 375 67.5 c 128,-1,10
 268 113 268 113 190.5 190.5 c 128,-1,11
 113 268 113 268 67.5 375 c 128,-1,12
 22 482 22 482 22 600 c 128,-1,13
 22 718 22 718 67.5 825 c 128,-1,14
 113 932 113 932 190.5 1009.5 c 128,-1,15
 268 1087 268 1087 375 1132.5 c 128,-1,0
 482 1178 482 1178 600 1178 c 128,-1,1
914 632 m 2,16,-1
 639 855 l 2,17,18
 623 868 623 868 611.5 863 c 128,-1,19
 600 858 600 858 600 837 c 2,20,-1
 600 700 l 1,21,-1
 325 700 l 2,22,23
 315 700 315 700 307.5 692.5 c 128,-1,24
 300 685 300 685 300 675 c 2,25,-1
 300 525 l 2,26,27
 300 515 300 515 307.5 507.5 c 128,-1,28
 315 500 315 500 325 500 c 2,29,-1
 600 500 l 1,30,-1
 600 363 l 2,31,32
 600 342 600 342 611.5 337 c 128,-1,33
 623 332 623 332 639 345 c 2,34,-1
 914 568 l 2,35,36
 930 581 930 581 930 600 c 128,-1,37
 930 619 930 619 914 632 c 2,16,-1
EndSplineSet
EndChar

StartChar: uniE132
Encoding: 57650 57650 156
Width: 1200
GlyphClass: 2
Flags: W
LayerCount: 2
Fore
SplineSet
600 1178 m 128,-1,1
 718 1178 718 1178 825 1132.5 c 128,-1,2
 932 1087 932 1087 1009.5 1009.5 c 128,-1,3
 1087 932 1087 932 1132.5 825 c 128,-1,4
 1178 718 1178 718 1178 600 c 128,-1,5
 1178 482 1178 482 1132.5 375 c 128,-1,6
 1087 268 1087 268 1009.5 190.5 c 128,-1,7
 932 113 932 113 825 67.5 c 128,-1,8
 718 22 718 22 600 22 c 128,-1,9
 482 22 482 22 375 67.5 c 128,-1,10
 268 113 268 113 190.5 190.5 c 128,-1,11
 113 268 113 268 67.5 375 c 128,-1,12
 22 482 22 482 22 600 c 128,-1,13
 22 718 22 718 67.5 825 c 128,-1,14
 113 932 113 932 190.5 1009.5 c 128,-1,15
 268 1087 268 1087 375 1132.5 c 128,-1,0
 482 1178 482 1178 600 1178 c 128,-1,1
561 855 m 2,16,-1
 286 632 l 2,17,18
 270 619 270 619 270 600 c 128,-1,19
 270 581 270 581 286 568 c 2,20,-1
 561 345 l 2,21,22
 577 332 577 332 588.5 337 c 128,-1,23
 600 342 600 342 600 363 c 2,24,-1
 600 500 l 1,25,-1
 875 500 l 2,26,27
 885 500 885 500 892.5 507.5 c 128,-1,28
 900 515 900 515 900 525 c 2,29,-1
 900 675 l 2,30,31
 900 685 900 685 892.5 692.5 c 128,-1,32
 885 700 885 700 875 700 c 2,33,-1
 600 700 l 1,34,-1
 600 837 l 2,35,36
 600 858 600 858 588.5 863 c 128,-1,37
 577 868 577 868 561 855 c 2,16,-1
EndSplineSet
EndChar

StartChar: uniE133
Encoding: 57651 57651 157
Width: 1200
GlyphClass: 2
Flags: W
LayerCount: 2
Fore
SplineSet
600 1178 m 128,-1,1
 718 1178 718 1178 825 1132.5 c 128,-1,2
 932 1087 932 1087 1009.5 1009.5 c 128,-1,3
 1087 932 1087 932 1132.5 825 c 128,-1,4
 1178 718 1178 718 1178 600 c 128,-1,5
 1178 482 1178 482 1132.5 375 c 128,-1,6
 1087 268 1087 268 1009.5 190.5 c 128,-1,7
 932 113 932 113 825 67.5 c 128,-1,8
 718 22 718 22 600 22 c 128,-1,9
 482 22 482 22 375 67.5 c 128,-1,10
 268 113 268 113 190.5 190.5 c 128,-1,11
 113 268 113 268 67.5 375 c 128,-1,12
 22 482 22 482 22 600 c 128,-1,13
 22 718 22 718 67.5 825 c 128,-1,14
 113 932 113 932 190.5 1009.5 c 128,-1,15
 268 1087 268 1087 375 1132.5 c 128,-1,0
 482 1178 482 1178 600 1178 c 128,-1,1
855 639 m 2,16,-1
 632 914 l 2,17,18
 619 930 619 930 600 930 c 128,-1,19
 581 930 581 930 568 914 c 2,20,-1
 345 639 l 2,21,22
 332 623 332 623 337 611.5 c 128,-1,23
 342 600 342 600 363 600 c 2,24,-1
 500 600 l 1,25,-1
 500 325 l 2,26,27
 500 315 500 315 507.5 307.5 c 128,-1,28
 515 300 515 300 525 300 c 2,29,-1
 675 300 l 2,30,31
 685 300 685 300 692.5 307.5 c 128,-1,32
 700 315 700 315 700 325 c 2,33,-1
 700 600 l 1,34,-1
 837 600 l 2,35,36
 858 600 858 600 863 611.5 c 128,-1,37
 868 623 868 623 855 639 c 2,16,-1
EndSplineSet
EndChar

StartChar: uniE134
Encoding: 57652 57652 158
Width: 1200
GlyphClass: 2
Flags: W
LayerCount: 2
Fore
SplineSet
600 1178 m 128,-1,1
 718 1178 718 1178 825 1132.5 c 128,-1,2
 932 1087 932 1087 1009.5 1009.5 c 128,-1,3
 1087 932 1087 932 1132.5 825 c 128,-1,4
 1178 718 1178 718 1178 600 c 128,-1,5
 1178 482 1178 482 1132.5 375 c 128,-1,6
 1087 268 1087 268 1009.5 190.5 c 128,-1,7
 932 113 932 113 825 67.5 c 128,-1,8
 718 22 718 22 600 22 c 128,-1,9
 482 22 482 22 375 67.5 c 128,-1,10
 268 113 268 113 190.5 190.5 c 128,-1,11
 113 268 113 268 67.5 375 c 128,-1,12
 22 482 22 482 22 600 c 128,-1,13
 22 718 22 718 67.5 825 c 128,-1,14
 113 932 113 932 190.5 1009.5 c 128,-1,15
 268 1087 268 1087 375 1132.5 c 128,-1,0
 482 1178 482 1178 600 1178 c 128,-1,1
675 900 m 2,16,-1
 525 900 l 2,17,18
 515 900 515 900 507.5 892.5 c 128,-1,19
 500 885 500 885 500 875 c 2,20,-1
 500 600 l 1,21,-1
 363 600 l 2,22,23
 342 600 342 600 337 588.5 c 128,-1,24
 332 577 332 577 345 561 c 2,25,-1
 568 286 l 2,26,27
 581 270 581 270 600 270 c 128,-1,28
 619 270 619 270 632 286 c 2,29,-1
 855 561 l 2,30,31
 868 577 868 577 863 588.5 c 128,-1,32
 858 600 858 600 837 600 c 2,33,-1
 700 600 l 1,34,-1
 700 875 l 2,35,36
 700 885 700 885 692.5 892.5 c 128,-1,37
 685 900 685 900 675 900 c 2,16,-1
EndSplineSet
EndChar

StartChar: uniE135
Encoding: 57653 57653 159
Width: 1200
GlyphClass: 2
Flags: W
LayerCount: 2
Fore
SplineSet
600 1176 m 128,-1,1
 716 1176 716 1176 822.5 1130 c 128,-1,2
 929 1084 929 1084 1006.5 1006.5 c 128,-1,3
 1084 929 1084 929 1130 822.5 c 128,-1,4
 1176 716 1176 716 1176 600 c 128,-1,5
 1176 484 1176 484 1130 377.5 c 128,-1,6
 1084 271 1084 271 1006.5 193.5 c 128,-1,7
 929 116 929 116 822.5 70 c 128,-1,8
 716 24 716 24 600 24 c 128,-1,9
 484 24 484 24 377.5 70 c 128,-1,10
 271 116 271 116 193.5 193.5 c 128,-1,11
 116 271 116 271 70 377.5 c 128,-1,12
 24 484 24 484 24 600 c 128,-1,13
 24 716 24 716 70 822.5 c 128,-1,14
 116 929 116 929 193.5 1006.5 c 128,-1,15
 271 1084 271 1084 377.5 1130 c 128,-1,0
 484 1176 484 1176 600 1176 c 128,-1,1
627 1101 m 1,16,17
 612 1089 612 1089 590.5 1080.5 c 128,-1,18
 569 1072 569 1072 555 1068.5 c 128,-1,19
 541 1065 541 1065 512 1060.5 c 128,-1,20
 483 1056 483 1056 473 1054 c 0,21,22
 458 1051 458 1051 427.5 1054 c 128,-1,23
 397 1057 397 1057 382 1052 c 0,24,25
 362 1045 362 1045 330.5 1025.5 c 128,-1,26
 299 1006 299 1006 296 991 c 0,27,28
 293 980 293 980 302.5 968.5 c 128,-1,29
 312 957 312 957 311 950 c 0,30,31
 308 916 308 916 283.5 859 c 128,-1,32
 259 802 259 802 254 780 c 0,33,34
 245 746 245 746 259 687 c 128,-1,35
 273 628 273 628 267 600 c 0,36,37
 267 591 267 591 284 555.5 c 128,-1,38
 301 520 301 520 300 496 c 1,39,40
 312 496 312 496 323 491 c 128,-1,41
 334 486 334 486 346.5 476 c 128,-1,42
 359 466 359 466 366 462 c 0,43,44
 382 454 382 454 399 447 c 128,-1,45
 416 440 416 440 439.5 432 c 128,-1,46
 463 424 463 424 474 420 c 0,47,48
 495 411 495 411 526.5 388 c 128,-1,49
 558 365 558 365 586.5 350 c 128,-1,50
 615 335 615 335 644 339 c 1,51,52
 651 324 651 324 641 305 c 128,-1,53
 631 286 631 286 618.5 265 c 128,-1,54
 606 244 606 244 609 227 c 1,55,56
 622 206 622 206 632 192.5 c 128,-1,57
 642 179 642 179 659.5 165 c 128,-1,58
 677 151 677 151 696 147 c 1,59,60
 696 140 696 140 692.5 131 c 128,-1,61
 689 122 689 122 689 117 c 128,-1,62
 689 112 689 112 694 100 c 1,63,64
 798 98 798 98 915 212 c 0,65,66
 945 241 945 241 961.5 259 c 128,-1,67
 978 277 978 277 996 308 c 128,-1,68
 1014 339 1014 339 1017 371 c 1,69,70
 1004 379 1004 379 980 379.5 c 128,-1,71
 956 380 956 380 944 387 c 0,72,73
 929 394 929 394 894.5 402 c 128,-1,74
 860 410 860 410 843 421 c 1,75,76
 825 421 825 421 802 420.5 c 128,-1,77
 779 420 779 420 759 419 c 128,-1,78
 739 418 739 418 717 412.5 c 128,-1,79
 695 407 695 407 679 396 c 0,80,81
 628 361 628 361 613 384 c 0,82,83
 609 385 609 385 609.5 409.5 c 128,-1,84
 610 434 610 434 610 435 c 0,85,86
 604 448 604 448 583.5 452.5 c 128,-1,87
 563 457 563 457 559 459 c 1,88,89
 560 474 560 474 558.5 489.5 c 128,-1,90
 557 505 557 505 551.5 517.5 c 128,-1,91
 546 530 546 530 533 529 c 128,-1,92
 520 528 520 528 502 508 c 0,93,94
 479 483 479 483 460 512 c 0,95,96
 441 540 441 540 452 570 c 0,97,98
 458 586 458 586 474 592 c 0,99,100
 480 591 480 591 500 590.5 c 128,-1,101
 520 590 520 590 533.5 586.5 c 128,-1,102
 547 583 547 583 553 573 c 0,103,104
 560 561 560 561 571 549 c 128,-1,105
 582 537 582 537 592.5 528.5 c 128,-1,106
 603 520 603 520 612.5 513.5 c 128,-1,107
 622 507 622 507 628 503 c 2,108,-1
 633 500 l 1,109,110
 635 512 635 512 640.5 530.5 c 128,-1,111
 646 549 646 549 648.5 565 c 128,-1,112
 651 581 651 581 648 597 c 0,113,114
 645 615 645 615 651.5 626 c 128,-1,115
 658 637 658 637 669.5 648.5 c 128,-1,116
 681 660 681 660 685 673 c 0,117,118
 691 687 691 687 695.5 708 c 128,-1,119
 700 729 700 729 703.5 739 c 128,-1,120
 707 749 707 749 719 761.5 c 128,-1,121
 731 774 731 774 753 784 c 1,122,123
 747 802 747 802 763 820 c 1,124,125
 771 820 771 820 787 818.5 c 128,-1,126
 803 817 803 817 811.5 817 c 128,-1,127
 820 817 820 817 831.5 821.5 c 128,-1,128
 843 826 843 826 852 837 c 1,129,130
 842 860 842 860 821 879.5 c 128,-1,131
 800 899 800 899 783.5 909 c 128,-1,132
 767 919 767 919 734.5 936 c 128,-1,133
 702 953 702 953 691 959 c 0,134,135
 691 960 691 960 693 967 c 128,-1,136
 695 974 695 974 696 978.5 c 128,-1,137
 697 983 697 983 697.5 989 c 128,-1,138
 698 995 698 995 696.5 998.5 c 128,-1,139
 695 1002 695 1002 692 1003 c 1,140,141
 723 990 723 990 750.5 988.5 c 128,-1,142
 778 987 778 987 789 991 c 2,143,-1
 801 996 l 1,144,145
 806 1024 806 1024 791.5 1042 c 128,-1,146
 777 1060 777 1060 755 1066 c 128,-1,147
 733 1072 733 1072 705 1081 c 128,-1,148
 677 1090 677 1090 664 1101 c 1,149,150
 646 1097 646 1097 627 1101 c 1,16,17
613 994 m 1,151,152
 613 977 613 977 621 952 c 128,-1,153
 629 927 629 927 638 907 c 128,-1,154
 647 887 647 887 647 884 c 1,155,156
 639 885 639 885 607.5 889.5 c 128,-1,157
 576 894 576 894 555 899.5 c 128,-1,158
 534 905 534 905 518 916 c 1,159,160
 521 927 521 927 534 945.5 c 128,-1,161
 547 964 547 964 550 971 c 1,162,163
 560 961 560 961 569 961 c 128,-1,164
 578 961 578 961 583 967 c 128,-1,165
 588 973 588 973 596.5 981.5 c 128,-1,166
 605 990 605 990 613 994 c 1,151,152
EndSplineSet
EndChar

